<?xml version="1.0" encoding="UTF-8" standalone="no"?>
<!-- Created with Inkscape (http://www.inkscape.org/) -->

<svg
   xmlns:dc="http://purl.org/dc/elements/1.1/"
   xmlns:cc="http://creativecommons.org/ns#"
   xmlns:rdf="http://www.w3.org/1999/02/22-rdf-syntax-ns#"
   xmlns:svg="http://www.w3.org/2000/svg"
   xmlns="http://www.w3.org/2000/svg"
   xmlns:sodipodi="http://sodipodi.sourceforge.net/DTD/sodipodi-0.dtd"
   xmlns:inkscape="http://www.inkscape.org/namespaces/inkscape"
   id="svg3438"
   version="1.1"
   inkscape:version="0.91 r13725"
   width="408.76306"
   height="616.20251"
   viewBox="0 0 408.76306 616.20251"
   sodipodi:docname="silhouette-football-08.svg">
  <title
     id="title3340">Silhouette Football 08</title>
  <metadata
     id="metadata3444">
    <rdf:RDF>
      <cc:Work
         rdf:about="">
        <dc:format>image/svg+xml</dc:format>
        <dc:type
           rdf:resource="http://purl.org/dc/dcmitype/StillImage" />
        <dc:title>Silhouette Football 08</dc:title>
        <cc:license
           rdf:resource="http://creativecommons.org/publicdomain/zero/1.0/" />
        <dc:date>2017-03-18</dc:date>
        <dc:creator>
          <cc:Agent>
            <dc:title>JLouis</dc:title>
          </cc:Agent>
        </dc:creator>
        <dc:rights>
          <cc:Agent>
            <dc:title>Domaine pubic</dc:title>
          </cc:Agent>
        </dc:rights>
        <dc:publisher>
          <cc:Agent>
            <dc:title>inkscape</dc:title>
          </cc:Agent>
        </dc:publisher>
        <dc:subject>
          <rdf:Bag>
            <rdf:li>silhouette</rdf:li>
            <rdf:li>soccer</rdf:li>
            <rdf:li>player</rdf:li>
            <rdf:li>sport</rdf:li>
            <rdf:li>football</rdf:li>
            <rdf:li>joueurs</rdf:li>
          </rdf:Bag>
        </dc:subject>
        <dc:description>Soccer player in silhouette - Joueur de football en silhouette</dc:description>
      </cc:Work>
      <cc:License
         rdf:about="http://creativecommons.org/publicdomain/zero/1.0/">
        <cc:permits
           rdf:resource="http://creativecommons.org/ns#Reproduction" />
        <cc:permits
           rdf:resource="http://creativecommons.org/ns#Distribution" />
        <cc:permits
           rdf:resource="http://creativecommons.org/ns#DerivativeWorks" />
      </cc:License>
    </rdf:RDF>
  </metadata>
  <defs
     id="defs3442" />
  <sodipodi:namedview
     pagecolor="#ffffff"
     bordercolor="#666666"
     borderopacity="1"
     objecttolerance="10"
     gridtolerance="10"
     guidetolerance="10"
     inkscape:pageopacity="0"
     inkscape:pageshadow="2"
     inkscape:window-width="1235"
     inkscape:window-height="756"
     id="namedview3440"
     showgrid="false"
     fit-margin-top="0"
     fit-margin-left="0"
     fit-margin-right="0"
     fit-margin-bottom="0"
     inkscape:zoom="0.8828125"
     inkscape:cx="-0.93553088"
     inkscape:cy="310.44904"
     inkscape:window-x="0"
     inkscape:window-y="0"
     inkscape:window-maximized="1"
     inkscape:current-layer="svg3438" />
  <g
     id="g3448"
     transform="translate(-1.4753532,-6.3173379)">
    <path
       style="fill:#d0e7f8"
       d="m 3.6122645,619.86226 c -2.1543958,-2.15439 -2.4914199,-3.55274 -1.8392458,-7.63121 1.3750388,-8.59903 3.6354331,-11.28965 14.6633453,-17.45431 5.74125,-3.2094 12.662169,-8.12835 15.379821,-10.931 2.717651,-2.80265 5.906149,-5.09574 7.08555,-5.09574 1.179401,0 3.364196,-1.97373 4.8551,-4.38606 1.490904,-2.41233 5.070754,-5.76913 7.955222,-7.45954 3.997315,-2.34258 6.539774,-5.38684 10.691297,-12.80144 2.995745,-5.35037 8.758261,-14.62697 12.805591,-20.61465 4.04733,-5.98767 9.63192,-15.83142 12.410201,-21.875 9.015598,-19.61156 21.339924,-33.51522 34.880854,-39.35073 10.84891,-4.67539 10.97252,-4.79544 14.36654,-13.95197 4.96266,-13.38853 7.1245,-25.24461 6.19785,-33.9905 -0.73409,-6.9285 -0.22065,-9.30131 6.19257,-28.6182 3.84618,-11.58482 6.99304,-21.57167 6.99304,-22.193 0,-0.62132 1.125,-3.45816 2.5,-6.30408 1.375,-2.84592 2.5,-6.71607 2.5,-8.60033 0,-1.88426 0.84375,-4.26968 1.875,-5.30093 1.11264,-1.11263 1.875,-4.1684 1.875,-7.51551 0,-3.10229 0.5625,-5.98816 1.25,-6.41306 0.6875,-0.4249 1.25,-3.58882 1.25,-7.03095 0,-3.44212 0.65629,-7.48467 1.45841,-8.98346 1.90556,-3.56059 2.09148,-21.19365 0.24753,-23.47778 -0.78049,-0.9668 -1.72886,-5.41406 -2.10751,-9.88281 -0.37866,-4.46875 -1.42758,-11.67854 -2.33094,-16.02174 l -1.64249,-7.89675 -5,4.28885 C 150.72639,276.71665 141.13827,282.5 138.01546,282.5 c -3.39782,0 -14.11816,-9.5175 -17.09838,-15.17994 -4.35099,-8.26689 -12.71021,-37.03497 -20.46941,-70.44506 -4.477466,-19.27934 -2.965469,-40.57269 3.52858,-49.69274 1.81575,-2.54999 6.91548,-5.80306 15.60288,-9.95293 9.83351,-4.69737 13.94874,-7.43797 17.28818,-11.51332 2.41048,-2.94167 4.38615,-6.13431 4.39039,-7.09475 0.004,-0.96044 0.80969,-3.28361 1.78989,-5.16259 1.17955,-2.26112 1.34516,-3.68643 0.48976,-4.2151 -0.71084,-0.43932 -2.11251,-2.55822 -3.11484,-4.70867 -2.76693,-5.936338 -5.06957,-9.788848 -6.36025,-10.641263 -0.64011,-0.422751 -3.8173,-6.093987 -7.06041,-12.602748 -3.24311,-6.50876 -6.34895,-12.41501 -6.90185,-13.125 -1.20706,-1.54999 -2.60602,-7.109668 -3.36359,-13.36737 -0.76526,-6.321155 2.76273,-22.474249 6.40454,-29.323547 C 126.5738,19.018671 135.07496,10 137.72794,10 c 0.97463,0 2.35999,-0.5879276 3.07856,-1.306506 1.76369,-1.7636863 17.4793,-2.9844136 24.62534,-1.9127999 7.21996,1.0827007 15.12536,8.4658329 16.20798,15.1371959 0.38744,2.387561 2.25808,6.502406 4.15697,9.1441 l 3.45251,4.80308 4.61549,-7.14106 c 5.3196,-8.23044 10.1105,-12.21726 20.56295,-17.111743 6.36046,-2.9783599 8.9978,-3.4803592 18.07226,-3.4399317 8.89805,0.039641 11.86527,0.6128481 18.25572,3.5266257 9.65425,4.40194 19.26444,14.039704 23.85755,23.926039 3.01569,6.491002 3.47863,9.013495 3.44109,18.75 -0.0362,9.39724 -0.5713,12.382243 -3.24896,18.125 -4.72791,10.13994 -12.31958,17.984879 -22.03154,22.766565 -7.66259,3.772683 -9.31721,4.108435 -20.2467,4.108435 -10.209,0 -12.88829,-0.462531 -18.8342,-3.251391 -3.81262,-1.788265 -8.98106,-5.050461 -11.48544,-7.249324 -4.37957,-3.845326 -4.60405,-3.903281 -5.88046,-1.518286 -1.89491,3.540696 -1.63885,9.579128 0.48083,11.3383 0.99433,0.825226 1.97871,3.829481 2.1875,6.676121 l 0.37961,5.17571 9.375,2.13439 c 5.15625,1.17392 15.28125,2.77391 22.5,3.55554 11.46177,1.24105 17.32526,2.13561 29.76139,4.54049 5.40792,1.04578 13.87643,10.67721 24.97188,28.40111 26.37635,42.13366 25.83877,41.16758 26.54139,47.69734 l 0.67251,6.25 2.61559,-4.12875 c 1.43858,-2.27083 2.9587,-6.632 3.37805,-9.6915 0.41935,-3.05951 1.83209,-7.67032 3.13941,-10.24625 1.30732,-2.57593 2.37457,-6.08975 2.37165,-7.8085 -0.007,-4.25559 4.80969,-19.5142 7.65873,-24.26071 1.27572,-2.12537 3.34072,-7.23929 4.5889,-11.36429 3.03167,-10.01917 5.25871,-11.64011 8.72476,-6.35025 1.8464,2.81796 1.7656,3.64669 -1.182,12.12251 -1.74015,5.00378 -2.88995,9.37171 -2.55514,9.70654 0.63972,0.6397 9.72344,-7.49788 13.01522,-11.65956 1.05746,-1.33693 4.07492,-5.55568 6.70547,-9.375 5.66658,-8.22737 7.90169,-9.79546 10.40048,-7.29667 1.37651,1.37651 1.49551,2.58073 0.51093,5.17037 -1.20162,3.1605 -1.12003,3.28842 1.27853,2.00475 1.90029,-1.017 3.03301,-0.98032 4.38537,0.14205 2.28834,1.89915 1.23772,5.71347 -2.74855,9.97866 -3.90553,4.1788 -3.86716,6.19654 0.0479,2.51854 6.03394,-5.6686 7.96477,1.22436 2.28004,8.13958 -8.34163,10.1472 -9.34758,11.77348 -7.28258,11.77348 4.74461,0 1.1923,5.24326 -9.73905,14.375 -3.68914,3.0818 -4.49365,4.59499 -4.51495,8.49209 -0.032,5.84628 -7.59916,26.47963 -13.2991,36.26238 -2.32475,3.98995 -4.22682,7.68804 -4.22682,8.21797 0,0.52992 -3.30902,5.98416 -7.35337,12.12052 -6.55425,9.94456 -9.4721,12.87436 -19.87431,19.95564 -0.19397,0.13205 0.33481,2.81054 1.17508,5.95219 1.16491,4.35546 1.18487,6.46462 0.0841,8.88061 -1.1426,2.50775 -1.09269,3.37185 0.23939,4.14356 0.92567,0.53626 3.53687,3.78754 5.80267,7.22504 2.26579,3.4375 6.55117,8.89777 9.52304,12.13395 4.22623,4.60206 5.40343,6.8393 5.40343,10.26909 0,2.72501 1.41967,6.62373 3.75,10.29827 2.0625,3.25223 3.75,6.6676 3.75,7.58971 0,0.92212 3.23437,4.90228 7.1875,8.84481 5.2123,5.19832 7.95732,9.22748 9.98877,14.66156 1.5407,4.12132 5.31698,11.40387 8.39173,16.18342 9.18445,14.2768 25.69793,51.90703 27.06241,61.66869 1.94035,13.88156 4.50446,22.06012 10.451,33.33489 3.11772,5.91127 5.66859,12.42922 5.66859,14.48433 0,8.39739 -7.81925,19.78648 -27.00652,39.33619 -7.29888,7.43676 -12.08916,11.11331 -18.39693,14.11966 -5.88729,2.80595 -9.17773,5.24483 -10.625,7.87527 -1.1531,2.09577 -3.91922,6.14817 -6.14692,9.00533 -2.22771,2.85715 -4.05583,5.65787 -4.0625,6.22379 -0.006,0.56593 2.23787,3.04883 4.98787,5.51755 3.08393,2.76851 5,5.5907 5,7.36456 0,1.67599 1.13723,3.48459 2.72558,4.33467 4.91168,2.62865 14.7636,12.85195 20.04978,20.80557 2.85171,4.29073 6.20506,8.12509 7.45189,8.52082 3.33536,1.05859 4.28101,6.39315 1.64888,9.30161 -5.88633,6.50433 -21.70897,7.7173 -36.87613,2.82692 -9.00852,-2.90462 -9.65107,-3.39132 -10.68357,-8.09228 -1.45381,-6.61918 -7.08205,-14.30831 -14.93922,-20.40954 -6.077,-4.71888 -8.08954,-5.64388 -11.00915,-5.05995 -4.81396,0.96278 -8.11829,-1.0361 -8.59749,-5.20091 -0.33484,-2.91006 -0.91361,-3.38427 -3.76914,-3.08819 -5.2022,0.53939 -6.27437,-2.75546 -4.53577,-13.9386 1.368,-8.79933 1.85085,-9.78661 7.68451,-15.71274 3.42363,-3.4779 7.18106,-6.32345 8.34985,-6.32345 2.00514,0 10.27058,-8.734 17.97034,-18.98909 1.9054,-2.53773 4.49251,-8.00981 5.74914,-12.16016 2.24586,-7.41759 10.23585,-23.05757 12.49162,-24.45172 0.63263,-0.39099 -1.20024,-4.39774 -4.07304,-8.90389 -4.92315,-7.72224 -5.43988,-8.148 -8.99318,-7.40975 -2.07344,0.43079 -5.73865,1.10446 -8.1449,1.49706 -2.40625,0.3926 -4.97748,1.195 -5.71384,1.78311 -0.73635,0.58812 -6.0801,1.60774 -11.875,2.26583 -8.20873,0.93221 -11.08841,0.83431 -13.03616,-0.44315 -4.18943,-2.74771 -10.34598,-14.50828 -13.12039,-25.06324 -3.07044,-11.68112 -4.56045,-13.98295 -18.86228,-29.13924 l -10.73266,-11.37387 -2.10207,4.00655 c -1.15614,2.20361 -4.00143,7.01056 -6.32287,10.68211 -2.32143,3.67155 -5.97301,11.2653 -8.11461,16.875 -6.5586,17.17964 -5.93876,16.51315 -14.91711,16.03985 -6.56088,-0.34585 -8.10524,-0.0163 -9.92403,2.1183 -2.86566,3.36305 -20.28032,15.1663 -22.37659,15.1663 -0.90884,0 -1.65243,0.60426 -1.65243,1.3428 0,0.73854 -2.9765,4.53541 -6.61445,8.4375 -3.63795,3.90209 -8.94759,10.25975 -11.79919,14.12814 -4.71701,6.39896 -12.89809,12.85242 -23.80412,18.77736 -2.08633,1.13345 -5.74397,5.11014 -8.12808,8.83711 -7.01241,10.96216 -12.05693,15.8944 -20.79905,20.33606 -14.5531,7.39409 -32.232018,28.1818 -37.099566,43.62344 -1.245934,3.95256 -3.624549,8.54569 -5.28581,10.20695 -1.661261,1.66125 -4.425535,5.70139 -6.14283,8.97805 -6.460576,12.32705 -10.183405,14.5877 -29.500353,17.91378 -19.305383,3.32407 -31.2465886,3.24877 -34.7142865,-0.21893 z"
       id="path3462"
       inkscape:connector-curvature="0" />
    <path
       style="fill:#add8f5"
       d="m 4,619.75 c -0.825,-0.825 -1.5,-4.15684 -1.5,-7.40409 0,-7.69505 3.6525014,-12.09465 14.984407,-18.0494 4.697906,-2.46867 11.260041,-6.98426 14.582521,-10.03462 3.322481,-3.05036 6.649354,-5.31263 7.393053,-5.02725 0.743699,0.28539 2.623358,-1.53793 4.17702,-4.0518 1.553663,-2.51388 5.497516,-6.33927 8.76412,-8.50085 4.741712,-3.1377 6.995822,-5.96096 11.179142,-14.00184 2.881922,-5.53942 6.519233,-11.64295 8.082912,-13.56341 4.436698,-5.449 13.980479,-21.65895 16.343184,-27.75864 3.052328,-7.88004 11.939317,-20.98056 19.010511,-28.02382 3.81414,-3.79909 9.86451,-7.85433 16.30435,-10.92793 l 10.23968,-4.8872 3.68934,-9.69707 c 4.75762,-12.50492 6.99361,-24.87457 5.991,-33.14252 -0.58247,-4.80321 -0.13244,-8.72552 1.68426,-14.67956 4.57112,-14.98137 12.70619,-39.33462 14.5242,-43.47991 0.99016,-2.2577 1.8003,-5.70445 1.8003,-7.65944 0,-1.955 0.84375,-4.25479 1.875,-5.11065 1.12027,-0.92975 1.875,-3.6625 1.875,-6.78915 0,-2.87816 0.80761,-6.32491 1.79469,-7.65944 1.21886,-1.64791 1.56685,-4.12031 1.08461,-7.70591 -0.47251,-3.51324 -0.11,-6.23147 1.0835,-8.125 2.20016,-3.49057 2.17976,-16.97102 -0.0431,-28.4705 -0.86381,-4.46875 -2.45208,-12.76563 -3.5295,-18.4375 -1.07742,-5.67187 -2.36256,-10.3125 -2.85586,-10.3125 -0.4933,0 -1.96846,1.1934 -3.27814,2.65199 -3.47707,3.87241 -15.89621,12.08452 -19.73088,13.04697 -2.64447,0.66372 -4.42147,-0.087 -8.90742,-3.76285 -7.05028,-5.77724 -10.76649,-12.21892 -14.81824,-25.68611 -1.75816,-5.84375 -4.36031,-14.26238 -5.78255,-18.70805 C 105.62036,220.0486 97.5,182.1326 97.5,175.34656 c 0,-7.86047 3.17924,-22.0995 6.02813,-26.99847 1.49378,-2.56873 6.23133,-5.68738 16.47187,-10.84315 12.1733,-6.12887 14.99721,-8.12497 18.4375,-13.03269 2.23437,-3.18744 4.07111,-6.76327 4.08164,-7.94629 0.01,-1.18303 0.53084,-2.95963 1.15623,-3.94801 0.77224,-1.22044 0.36503,-2.77857 -1.26915,-4.85607 -1.32342,-1.68247 -2.40756,-3.68629 -2.4092,-4.45295 -0.002,-0.76666 -2.30316,-4.76893 -5.11448,-8.89393 -2.81133,-4.125 -7.704,-12.84375 -10.87263,-19.375 -4.72355,-9.736311 -5.85597,-13.430193 -6.28774,-20.510155 -1.202,-19.7096 7.24158,-37.456626 21.21179,-44.5836979 6.46603,-3.2987154 22.32781,-4.671214 28.90365,-2.5009917 C 173.36077,9.2279619 181.25,17.667424 181.25,21.75299 c 0,1.647682 1.87389,5.780371 4.16419,9.183751 l 4.1642,6.187965 2.87547,-5.420332 C 201.25471,15.114603 222.37396,4.9207232 240.3125,8.6038784 265.52196,13.779906 282.42035,38.077525 277.4749,62.038412 274.75816,75.201084 268.64751,84.69922 258.36955,91.734994 242.01176,102.9327 218.4543,102.13195 204.56502,89.906122 201.49951,87.207755 198.43555,85 197.7562,85 c -1.49038,0 -3.27651,5.898871 -2.8387,9.375 0.17317,1.375 1.10634,3.388041 2.07369,4.473426 0.96735,1.085384 1.75881,4.050564 1.75881,6.589294 0,3.6308 0.60021,4.8483 2.8125,5.70499 5.29874,2.05188 21.5617,5.0004 31.5625,5.72238 5.5,0.39705 14.64256,1.63441 20.31679,2.74968 13.83141,2.71856 17.1856,5.7921 32.14537,29.45582 23.93258,37.85707 25.66174,40.93753 25.68198,45.75177 0.01,2.50395 0.49772,5.30774 1.08265,6.23063 1.69377,2.67242 6.00722,-4.45567 7.08176,-11.7028 0.50766,-3.42385 1.9678,-8.18562 3.24474,-10.58168 1.27693,-2.39607 2.32179,-5.77107 2.32189,-7.5 2.2e-4,-4.24801 5.61588,-22.19975 7.75896,-24.80329 0.9463,-1.14962 2.7842,-5.46522 4.08422,-9.59022 3.04517,-9.66239 4.00313,-10.92891 7.0379,-9.30475 3.15316,1.68752 3.09975,8.01711 -0.13126,15.55475 -4.44439,10.36834 -3.24605,10.63246 6.42282,1.41564 3.87114,-3.69014 8.97904,-9.73702 11.35089,-13.4375 5.75731,-8.98238 8.0257,-10.84267 10.35953,-8.49576 1.5108,1.51926 1.40532,2.55298 -0.75063,7.35709 l -2.50838,5.58948 2.95594,-2.77698 c 3.18604,-2.99313 6.51589,-3.59633 7.85872,-1.4236 0.46003,0.74437 -0.81869,3.69749 -2.84163,6.5625 -5.42189,7.67887 -6.12031,9.29533 -2.65576,6.14663 3.76209,-3.41911 7.3085,-3.67029 7.3085,-0.51764 0,2.37725 -7.49184,12.91944 -11.875,16.70998 -2.48576,2.14967 -2.48399,2.16222 0.3125,2.20357 1.54687,0.0229 2.8125,0.39706 2.8125,0.83155 0,1.89579 -5.34609,9.21004 -6.73174,9.21004 -0.84031,0 -3.32569,1.8549 -5.52305,4.12201 -2.92149,3.0142 -3.99685,5.28181 -4.0013,8.4375 -0.0138,9.77619 -19.0399,50.49211 -29.67655,63.50786 -3.96303,4.84945 -12.30516,11.86522 -15.36019,12.91798 -0.62189,0.21431 -0.16831,3.06062 1.00798,6.32515 1.80572,5.01137 1.88171,6.34703 0.48807,8.57859 -1.45208,2.32516 -1.2868,3.03957 1.37413,5.9395 1.66361,1.81302 4.33887,5.54641 5.94502,8.29641 1.60615,2.75 5.35193,7.64778 8.32395,10.88395 3.87023,4.2142 5.40368,6.9511 5.40368,9.64447 0,5.49773 8.19724,19.76708 15.51829,27.01348 4.61841,4.57131 7.17403,8.50229 9.34556,14.375 1.64387,4.4457 5.36048,11.73935 8.25912,16.2081 6.13995,9.46579 19.554,37.98685 23.80998,50.625 1.62064,4.8125 3.88094,13.81101 5.02289,19.99669 1.50366,8.14497 3.66723,14.35023 7.84505,22.5 8.86005,17.28353 7.82496,23.09212 -7.08822,39.77688 -4.58572,5.13048 -11.01112,12.44527 -14.27868,16.25508 -4.26347,4.97099 -8.49682,8.20555 -14.99233,11.45512 -9.01139,4.5082 -14.69166,8.76278 -14.69166,11.00416 0,0.64742 -2.0004,3.90221 -4.44533,7.23287 -4.91034,6.68925 -4.68813,8.97736 1.24973,12.86799 1.73575,1.13731 3.53812,3.6076 4.00529,5.48952 0.48011,1.93408 4.56741,6.87173 9.40131,11.35722 4.70355,4.36453 10.88051,11.25516 13.72657,15.3125 2.84607,4.05733 5.64269,7.37697 6.21473,7.37697 0.57204,0 1.97092,1.42066 3.10864,3.15703 1.94471,2.96802 1.92772,3.31512 -0.28369,5.79752 -3.82308,4.29155 -9.71091,6.04833 -20.1246,6.00464 -12.87798,-0.054 -26.60265,-4.72297 -26.60265,-9.04985 0,-3.60121 -7.4955,-15.31532 -12.4703,-19.4888 -9.51035,-7.97849 -12.26572,-9.44573 -14.4047,-7.67054 -2.48773,2.06464 -7.77921,-1.28384 -8.34652,-5.28171 -0.31733,-2.23622 -1.20414,-2.84329 -4.15348,-2.84329 -4.49556,0 -5.04586,-2.0802 -3.7504,-14.17701 0.78414,-7.32218 1.38321,-8.61525 6.55089,-14.13992 3.1283,-3.3444 7.22919,-6.49751 9.1131,-7.0069 3.16472,-0.85572 7.70814,-5.67558 18.35371,-19.47043 2.28994,-2.96738 4.5894,-7.91712 5.34784,-11.51155 0.73178,-3.46819 4.05745,-10.89055 7.39036,-16.49414 l 6.05984,-10.18834 -5.36573,-7.99842 -5.36573,-7.99843 -9.16694,2.41815 c -5.04182,1.32999 -11.13569,2.91635 -13.54194,3.52525 -2.40625,0.6089 -7.84727,1.12052 -12.09115,1.13692 l -7.71616,0.0299 -4.51349,-7.1875 c -2.48241,-3.95312 -5.36874,-10.28125 -6.41404,-14.0625 -3.9867,-14.42135 -5.66271,-17.40679 -15.95055,-28.41225 -5.63634,-6.02951 -11.20621,-12.33506 -12.3775,-14.01234 -1.17128,-1.67726 -2.30909,-2.80226 -2.52846,-2.5 -8.50256,11.71595 -16.91388,28.56277 -22.58606,45.23709 -0.612,1.79911 -2.27025,2.1875 -9.33963,2.1875 -7.09741,0 -9.00251,0.44975 -10.93083,2.58052 -3.43342,3.79383 -17.59612,13.66943 -19.60356,13.66943 -0.95063,0 -3.06435,1.82812 -4.69713,4.0625 -12.05917,16.50222 -30.61023,35.00847 -37.87403,37.78254 -4.72932,1.80615 -6.67439,3.74196 -12.7566,12.69596 -7.63423,11.23884 -11.8235,15.13112 -20.4355,18.98684 -6.13613,2.74722 -18.93531,13.34193 -18.93531,15.67398 0,0.85677 -1.96875,3.46595 -4.375,5.79818 -2.40625,2.33222 -4.375,4.7301 -4.375,5.32861 0,0.5985 -1.406581,2.93232 -3.125738,5.18625 -1.719155,2.25393 -4.25926,7.39269 -5.644677,11.41948 -1.385418,4.02679 -3.756443,8.63869 -5.268945,10.24867 -1.512504,1.60999 -4.767664,6.41679 -7.23369,10.6818 -5.542539,9.58584 -10.244515,12.43043 -25.013116,15.13238 C 28.11225,621.64415 6.1903506,621.94035 4,619.75 Z"
       id="path3460"
       inkscape:connector-curvature="0" />
    <path
       style="fill:#90ccf6"
       d="m 3.7446399,619.36854 c -2.225896,-2.68204 -0.9353375,-13.75723 1.9782438,-16.9767 1.2855873,-1.42055 6.0082353,-4.59755 10.4947733,-7.05999 4.486539,-2.46244 11.421198,-7.26499 15.410354,-10.67233 3.989158,-3.40735 7.579619,-5.86856 7.978805,-5.46937 0.399186,0.39919 2.335539,-1.4964 4.303005,-4.2124 1.967466,-2.71601 5.796644,-6.33926 8.509281,-8.05169 3.254495,-2.05446 6.599918,-5.99401 9.835539,-11.58226 7.581494,-13.09403 9.199494,-15.72295 15.359193,-24.95566 3.156357,-4.73104 8.611555,-14.48817 12.122658,-21.68252 9.753153,-19.98446 21.221608,-31.7905 36.461558,-37.53483 6.53911,-2.46475 8.80422,-5.65822 13.49104,-19.02029 2.57676,-7.34633 3.21618,-11.69994 3.43692,-23.4005 0.25963,-13.76246 0.57569,-15.30712 7.4174,-36.25 3.93043,-12.03125 7.9473,-23.72221 8.9264,-25.97991 0.9791,-2.2577 1.78019,-5.70445 1.78019,-7.65944 0,-1.955 0.84375,-4.25479 1.875,-5.11065 1.11615,-0.92633 1.875,-3.65814 1.875,-6.74993 0,-2.8566 0.85509,-6.41462 1.9002,-7.90672 1.34963,-1.92685 1.66404,-4.1898 1.08514,-7.81004 -0.62159,-3.88723 -0.30749,-5.65797 1.32328,-7.45997 1.75627,-1.94065 2.0343,-4.11264 1.55599,-12.15559 -0.3203,-5.38601 -1.20229,-13.16775 -1.95999,-17.29275 -0.75768,-4.125 -2.29497,-12.41024 -3.41617,-18.41165 l -2.03855,-10.91165 -5.78745,5.11321 c -6.15176,5.43509 -17.23123,12.30384 -19.87788,12.32336 -1.91067,0.0141 -11.95498,-9.0623 -15.43114,-13.94411 -3.44939,-4.84422 -14.07697,-39.84551 -20.05324,-66.04416 -5.384716,-23.60537 -5.723785,-31.76143 -1.91187,-45.98865 2.43473,-9.08718 5.72677,-12.17691 20.41778,-19.16305 10.78597,-5.12915 13.35456,-6.94779 17.1875,-12.1693 2.47852,-3.37642 4.5064,-7.08493 4.5064,-8.24115 0,-1.15621 0.62644,-3.27271 1.39207,-4.70333 1.09985,-2.05507 0.99794,-2.8217 -0.48547,-3.65185 -1.03266,-0.57791 -2.20731,-2.36458 -2.61035,-3.97038 -0.40303,-1.6058 -3.44686,-7.097358 -6.76409,-12.203463 -3.31721,-5.106105 -8.394,-14.442708 -11.28173,-20.74801 C 118.24321,61.819406 117.5,59.008908 117.5,51.805842 c 0,-4.614936 0.61896,-10.706055 1.37547,-13.535817 C 120.54142,32.038391 127.57865,17.5 128.92907,17.5 c 0.53337,0 2.2718,-1.404197 3.86319,-3.12044 6.35129,-6.849581 26.50935,-10.397537 36.11759,-6.3569421 5.80976,2.4432051 10.88094,8.1019831 11.89439,13.2726031 0.46675,2.381378 2.62858,6.989018 4.80407,10.239198 l 3.95544,5.909418 2.10396,-4.412058 c 3.124,-6.551086 12.79405,-16.298205 19.28829,-19.442014 17.18943,-8.3212565 35.25036,-6.8360756 48.88487,4.019884 12.19944,9.713337 17.65913,21.079115 17.65913,36.762145 0,13.434609 -3.40195,21.641362 -12.99636,31.352029 -9.85494,9.974342 -18.26994,13.451325 -32.62864,13.481769 -11.68944,0.02479 -20.68056,-3.374394 -29.13938,-11.01642 l -5.08933,-4.597914 -1.83025,3.539317 c -2.01624,3.898981 -1.41199,9.952044 1.26022,12.62426 0.92055,0.920555 1.67374,3.872845 1.67374,6.560635 0,4.07547 0.46699,4.97605 2.8125,5.42383 1.54687,0.29531 6.75,1.39547 11.5625,2.44479 4.8125,1.04932 13.53125,2.27094 19.375,2.7147 14.89871,1.13137 28.55218,4.02505 33.54166,7.10872 4.99688,3.08824 11.12769,11.30911 23.95834,32.126 5.15625,8.36569 12.04687,19.42536 15.3125,24.57706 4.31311,6.80419 5.94274,10.63858 5.95664,14.01559 0.0265,6.43554 1.47427,8.48108 3.97476,5.61588 3.19404,-3.65988 4.7561,-7.45647 4.7561,-11.55967 0,-2.13508 1.125,-6.08715 2.5,-8.78237 1.375,-2.69523 2.5,-6.51179 2.5,-8.48126 0,-4.01693 5.34681,-20.56528 7.93252,-24.55115 0.92503,-1.42593 2.95006,-6.42119 4.50005,-11.1006 2.42054,-7.30754 3.19733,-8.45396 5.50531,-8.125 3.832,0.5462 4.10087,5.96396 0.74174,14.94618 -1.52068,4.06628 -2.42351,7.73462 -2.00627,8.15184 0.41724,0.41724 2.76671,-0.77305 5.22106,-2.64507 4.22821,-3.22502 8.39493,-8.19498 17.8875,-21.3358 2.2863,-3.16499 4.81755,-5.53713 5.625,-5.27143 2.35321,0.77438 2.41638,5.40581 0.1349,9.89019 l -2.10989,4.1471 3.0521,-2.8125 c 3.28469,-3.02683 6.60912,-3.6366 7.95487,-1.45913 0.46003,0.74437 -0.81869,3.69749 -2.84163,6.5625 -5.42189,7.67887 -6.12031,9.29533 -2.65576,6.14663 3.57844,-3.2522 7.3085,-3.6924 7.3085,-0.86251 0,2.02132 -6.7156,11.69972 -11.32055,16.31496 l -2.63408,2.63996 2.69584,0.70498 c 3.78891,0.99082 1.87556,4.11288 -6.75136,11.01633 -6.11409,4.89263 -6.87809,6.02152 -6.93071,10.24087 -0.12647,10.14053 -17.28614,47.83448 -28.5764,62.77262 -4.21028,5.57063 -13.09648,13.43986 -16.43239,14.55184 -0.88356,0.29452 -0.62834,2.25725 0.74974,5.7655 1.70631,4.34384 1.81476,5.92162 0.59151,8.60635 -1.27885,2.80677 -1.14473,3.67294 0.91744,5.9245 1.3284,1.4504 4.38777,5.73085 6.79861,9.5121 2.41084,3.78125 6.09134,8.49092 8.1789,10.46594 2.45709,2.32462 4.09779,5.37988 4.65264,8.66396 1.2412,7.34659 8.72733,20.4175 16.33592,28.52279 3.62838,3.86522 6.99731,8.64647 7.48654,10.625 1.03939,4.20352 6.80514,15.17713 11.75257,22.36797 1.90568,2.76983 4.89974,8.39828 6.65345,12.50769 1.75373,4.10941 6.31468,14.22096 10.13545,22.47012 3.82079,8.24917 6.94688,16.16385 6.94688,17.58819 0,7.99819 5.30045,25.99353 11.20402,38.03834 5.35179,10.91903 6.3008,13.86032 5.64639,17.5 -1.10547,6.14827 -5.49146,13.2233 -14.41036,23.24534 -15.91308,17.88128 -21.36639,22.90642 -28.45665,26.2224 -9.0523,4.23357 -10.44263,5.5055 -17.31079,15.8367 -5.45097,8.19943 -5.58811,8.63179 -3.66766,11.56277 1.09727,1.67465 3.11341,3.64335 4.48029,4.37489 1.36688,0.73154 2.86852,2.8607 3.33697,4.73147 0.48315,1.92948 4.84358,7.13098 10.07616,12.01976 5.07345,4.74007 9.9964,10.11112 10.9399,11.93565 0.9435,1.82452 4.04402,5.71673 6.89002,8.64936 6.41473,6.60993 6.27873,9.66546 -0.60329,13.55481 -6.59665,3.72806 -19.58079,3.88021 -30.96856,0.36289 -9.09514,-2.80922 -9.61044,-3.2774 -12.64202,-11.48635 -2.83193,-7.66839 -5.4847,-10.89787 -14.54836,-17.71114 -6.31585,-4.74771 -8.14489,-5.53121 -11.60242,-4.97014 -4.37088,0.7093 -6.45944,-0.77073 -7.34287,-5.20341 -0.3571,-1.79178 -1.34376,-2.40444 -3.48288,-2.16266 -1.64155,0.18553 -3.43802,-0.37697 -3.99213,-1.25 -1.44534,-2.2772 -1.27457,-10.15582 0.36785,-16.97131 1.59865,-6.63386 9.58603,-15.99157 14.91261,-17.47104 2.96689,-0.82407 12.91057,-11.50473 19.70969,-21.17048 1.55739,-2.21402 3.67838,-7.27652 4.71331,-11.25 1.03493,-3.97348 4.42428,-11.30397 7.53189,-16.28997 l 5.65019,-9.06548 -5.49019,-7.80952 c -3.0196,-4.29525 -6.29476,-7.70351 -7.27815,-7.57393 -0.98337,0.12959 -5.16296,1.15221 -9.28796,2.27253 -10.17873,2.76441 -22.43449,4.58395 -27.76889,4.12265 -3.90965,-0.33809 -4.91919,-1.23546 -9.00222,-8.00217 -2.5293,-4.19176 -5.83773,-12.25053 -7.35203,-17.90837 -2.98016,-11.13463 -9.74175,-21.54919 -18.15887,-27.96924 -2.3958,-1.82736 -5.58022,-5.30329 -7.07645,-7.72425 -1.49624,-2.42097 -3.09644,-4.37668 -3.55599,-4.34604 -0.87001,0.058 -11.27146,15.74517 -14.05299,21.19428 -0.87734,1.71875 -3.40361,8.1875 -5.61394,14.375 l -4.01876,11.25 -8.57355,0.3767 c -6.80246,0.29889 -9.21937,0.95904 -11.69992,3.19569 -5.85372,5.27815 -17.38868,13.30261 -19.12218,13.30261 -1.59373,0 -4.80107,3.62862 -19.33974,21.88001 -7.33777,9.21161 -15.34011,16.00944 -23.26112,19.75986 -5.47391,2.59178 -7.58679,4.5905 -11.7063,11.07387 -6.56202,10.32741 -12.80799,16.39463 -20.7523,20.15843 -6.89779,3.268 -19.56975,13.87027 -19.56975,16.37346 0,0.83267 -1.96875,3.42214 -4.375,5.75437 -2.40625,2.33222 -4.375,4.752 -4.375,5.37726 0,0.62526 -1.354144,2.74616 -3.009209,4.71309 -1.655065,1.96694 -4.205565,7.17129 -5.667776,11.56524 -1.462212,4.39395 -3.907599,9.1624 -5.434192,10.59656 -1.526593,1.43416 -4.391614,5.59225 -6.366714,9.24021 -4.110226,7.59148 -10.440196,13.04873 -16.922696,14.58956 -18.675919,4.43912 -43.457271,5.52789 -46.3547731,2.03662 z"
       id="path3458"
       inkscape:connector-curvature="0" />
    <path
       style="fill:#75c2f8"
       d="m 4,619.75 c -2.2978801,-2.29787 -1.776402,-11.15638 0.9167529,-15.57314 1.5200806,-2.49292 5.5968321,-5.62414 11.0606371,-8.49528 4.759275,-2.50093 11.689464,-7.24502 15.400419,-10.54242 3.710955,-3.2974 7.417318,-5.76677 8.236363,-5.4875 0.819045,0.27929 2.374448,-1.20415 3.456449,-3.29651 1.082003,-2.09235 4.986917,-6.03502 8.677587,-8.76149 4.843078,-3.57778 8.013131,-7.32402 11.392293,-13.46292 2.575091,-4.67816 8.19986,-13.84949 12.499486,-20.38074 4.299627,-6.53125 10.417904,-17.33419 13.596173,-24.00651 9.082572,-19.0676 22.0487,-32.83616 35.76384,-37.97717 7.94569,-2.97836 9.29379,-4.49766 12.99195,-14.64182 4.64531,-12.74221 7.04856,-27.48004 5.37192,-32.94304 -0.93459,-3.04522 -0.92655,-5.47615 0.0275,-8.30586 0.74188,-2.20034 4.26788,-13.28185 7.83557,-24.6256 3.56767,-11.34375 7.28236,-22.11804 8.25486,-23.94286 0.9725,-1.82483 1.76817,-4.95169 1.76817,-6.94859 0,-1.9969 0.82587,-4.72261 1.83525,-6.05714 1.00938,-1.33452 1.85313,-4.74816 1.875,-7.58586 0.0242,-3.1431 0.81387,-5.80189 2.02057,-6.80336 1.5198,-1.26133 1.78997,-2.91644 1.1609,-7.11148 -0.60648,-4.04424 -0.28463,-6.28451 1.23633,-8.6058 2.99487,-4.57074 1.68497,-21.83779 -3.67843,-48.48902 -1.09789,-5.4555 -2.14425,-10.06719 -2.32524,-10.24819 -0.181,-0.18099 -3.62546,2.48384 -7.65436,5.92182 -7.03619,6.00424 -15.40868,11.12048 -18.19813,11.12048 -1.68617,0 -11.91772,-9.39064 -15.0984,-13.8575 -3.22786,-4.5331 -14.4863,-41.00045 -18.68337,-60.5175 -0.88706,-4.125 -2.37272,-10.5713 -3.30146,-14.32513 -2.266598,-9.16116 -2.167316,-29.23421 0.18374,-37.15108 2.85117,-9.60093 6.0552,-12.68479 20.02576,-19.27468 10.36487,-4.88909 13.47161,-7.02795 17.24699,-11.87382 2.53268,-3.25081 4.60488,-6.96304 4.60488,-8.24941 0,-1.28636 0.90844,-3.7253 2.01876,-5.41986 1.74631,-2.66521 1.76679,-3.08102 0.15165,-3.08102 -1.02691,0 -2.60261,-1.82812 -3.50155,-4.0625 -0.89894,-2.23437 -4.34218,-8.115222 -7.65165,-13.06855 C 130.20775,86.665622 127.5,82.327711 127.5,81.979146 c 0,-0.348563 -1.98946,-4.8251 -4.42103,-9.947856 C 117.79284,60.894625 116.6661,53.138117 118.66837,41.668565 120.19688,32.91284 126.94198,17.5 129.24521,17.5 c 0.70724,0 2.432,-1.410944 3.83284,-3.135431 1.40083,-1.724488 5.80571,-4.269249 9.78865,-5.6550251 17.16274,-5.9714084 35.65517,0.098136 37.9227,12.4469071 0.4513,2.457701 2.55686,7.137681 4.67905,10.399955 l 3.85851,5.931405 2.35873,-4.597634 c 3.381,-6.590238 14.15028,-16.851837 21.43931,-20.428597 5.42959,-2.6643257 7.97286,-3.0669065 19.375,-3.0669065 11.11024,0 13.9974,0.4330074 18.80819,2.8207825 8.36111,4.149934 18.36316,14.291489 22.22925,22.539279 2.91956,6.228515 3.33756,8.68578 3.33756,19.620265 0,11.154032 -0.3761,13.265867 -3.4928,19.612609 -4.49655,9.156631 -14.90414,18.749142 -24.05826,22.174142 -9.3919,3.51396 -24.20099,3.534531 -33.52342,0.04656 -3.73629,-1.397927 -9.35547,-4.79704 -12.48708,-7.553586 l -5.69381,-5.011903 -1.88187,3.639115 c -1.78005,3.442231 -1.65606,9.059635 0.26497,12.005466 0.47975,0.735677 1.43587,3.868847 2.1247,6.962597 1.11132,4.99124 1.67466,5.66932 5,6.01839 2.06117,0.21637 6.84132,1.17772 10.62257,2.13634 3.78125,0.95863 11.65625,2.07364 17.5,2.47782 25.79156,1.78385 36.96796,5.94513 43.88794,16.34068 8.52736,12.81028 19.7685,30.63003 23.59395,37.40177 2.33026,4.125 6.10014,10.235 8.37749,13.57776 2.62692,3.85591 4.14062,7.5885 4.14062,10.21026 0,4.57605 1.0435,8.08698 2.40356,8.08698 1.78072,0 6.34644,-9.82542 6.34644,-13.65749 0,-2.16816 1.125,-6.14729 2.5,-8.84251 1.375,-2.69523 2.50844,-6.18844 2.51876,-7.7627 0.0244,-3.72867 5.62642,-21.73538 7.83528,-25.18534 0.94267,-1.47233 3.04879,-6.4982 4.68024,-11.1686 2.47768,-7.09295 3.38831,-8.43125 5.5285,-8.125 3.61092,0.5167 3.93355,6.54329 0.7481,13.97461 -2.8285,6.59864 -3.22192,9.51703 -1.28295,9.51703 2.52228,0 12.92628,-10.79362 18.82188,-19.52677 5.7025,-8.44708 8.72964,-11.22712 10.40298,-9.55377 1.2711,1.27109 0.81614,4.54384 -1.15785,8.32901 -2.32437,4.45706 -1.75514,5.35539 1.27312,2.00919 2.44758,-2.70454 6.2387,-3.3097 7.54033,-1.20364 0.44326,0.71721 -0.56085,3.10784 -2.23136,5.3125 -1.67053,2.20466 -3.76383,5.41473 -4.65182,7.13348 l -1.6145,3.125 3.0627,-2.8125 c 3.53984,-3.25064 7.27659,-3.69444 7.27659,-0.8642 0,1.88025 -4.91901,8.91431 -10.97833,15.69871 l -2.92231,3.27201 2.71733,0.7106 2.71732,0.7106 -2.72894,3.83243 c -1.50091,2.10784 -3.80238,4.40692 -5.11438,5.10909 -5.1979,2.78183 -8.69069,7.5406 -8.69069,11.84068 0,9.63064 -17.74059,47.97537 -29.07973,62.85328 -2.9124,3.82131 -7.93775,8.68067 -11.16743,10.79857 -4.14124,2.71565 -5.62295,4.40342 -5.02673,5.72573 0.46499,1.03125 0.89501,5.09181 0.95561,9.02348 0.0696,4.51518 0.82147,7.96867 2.04107,9.375 1.06198,1.22458 3.90477,5.32027 6.31732,9.10152 2.41255,3.78125 6.14673,8.52711 8.29818,10.54636 2.90931,2.73056 3.91171,4.77074 3.91171,7.96149 0,2.69785 1.62377,6.96315 4.375,11.49215 2.40625,3.96111 4.375,7.77307 4.375,8.47102 0,0.69797 3.03866,4.19564 6.75259,7.77262 4.87621,4.69642 7.47905,8.49601 9.36693,13.67372 1.4379,3.94357 4.96032,10.77855 7.8276,15.18888 2.86728,4.41031 7.70005,13.36251 10.73949,19.89376 3.03943,6.53125 6.93846,14.90716 8.66453,18.61312 6.05007,12.98999 7.89886,17.86953 7.89886,20.84757 0,2.82102 1.0675,8.1595 3.98214,19.91431 0.68187,2.75 4.03378,10.625 7.4487,17.5 8.73645,17.58849 8.16515,19.90312 -10.11448,40.97922 -15.10581,17.41675 -19.4618,21.38658 -28.20939,25.70862 -4.13491,2.04298 -8.45207,4.74898 -9.5937,6.01333 -3.47718,3.85099 -12.25712,17.21127 -12.2603,18.65628 -0.001,0.74659 2.24703,3.3773 4.99703,5.84604 3.39841,3.05081 5,5.52878 5,7.73599 0,2.20569 0.90219,3.6032 2.8125,4.35656 3.4912,1.37681 15.47516,13.84182 20.35081,21.16771 1.99998,3.00506 4.94818,6.32331 6.55155,7.37389 4.75578,3.1161 3.31628,7.81617 -3.46486,11.31302 -4.86068,2.50653 -6.9838,2.82914 -15.625,2.37434 -5.5,-0.28949 -13.00049,-1.5344 -16.66775,-2.76648 -5.56721,-1.87038 -6.98975,-2.9844 -8.61859,-6.74933 -4.56251,-10.54589 -6.25542,-13.1666 -11.58866,-17.9398 -8.49269,-7.60089 -12.24536,-9.57854 -16.77953,-8.84274 -4.226,0.68579 -6.35082,-0.86275 -7.17175,-5.22665 -0.28228,-1.5006 -1.46038,-2.5 -2.94701,-2.5 -4.10206,0 -5.60249,-1.78224 -5.58687,-6.63628 0.0416,-12.95003 6.68702,-24.68227 15.8592,-27.99897 6.4926,-2.34776 23.33108,-24.27644 24.5693,-31.99648 0.4074,-2.54005 3.57555,-9.55998 7.04033,-15.59985 l 6.29962,-10.98157 -5.01058,-7.3784 c -2.75581,-4.05813 -5.45436,-7.65269 -5.99677,-7.98791 -0.5424,-0.33523 -4.90452,0.53643 -9.69357,1.93703 -10.40212,3.04217 -19.12571,4.5522 -27.01456,4.67618 -5.59755,0.088 -5.94386,-0.12312 -9.59275,-5.84625 -4.37455,-6.86134 -6.91595,-13.22149 -9.0152,-22.56169 -1.64266,-7.30871 -9.8857,-19.41017 -16.82861,-24.70579 -2.25291,-1.71838 -5.6431,-5.35648 -7.53374,-8.08468 -1.89062,-2.72819 -3.82534,-4.96034 -4.29933,-4.96034 -2.81533,0 -17.20428,26.98956 -21.82503,40.9375 l -2.17406,6.5625 -7.91158,0 c -7.78621,0 -8.08422,0.12873 -18.80971,8.125 -5.99399,4.46875 -11.63487,8.125 -12.53531,8.125 -0.90043,0 -3.45495,2.53125 -5.67672,5.625 -2.22176,3.09375 -4.43856,5.625 -4.92622,5.625 -0.48765,0 -4.05729,4.21258 -7.93251,9.36127 -7.71255,10.24707 -16.69287,18.0269 -25.10262,21.74693 -4.10362,1.81524 -6.54515,4.17549 -10.04182,9.70757 -6.62853,10.48699 -12.67252,16.36877 -21.2376,20.66759 -7.12546,3.57629 -19.375,13.97961 -19.375,16.45486 0,0.63647 -2.109375,3.5737 -4.6875,6.52722 -8.197103,9.39062 -10.027508,12.34856 -12.723642,20.5614 -1.449289,4.41475 -4.233152,9.73037 -6.18636,11.81248 -1.953209,2.08213 -4.895937,6.31264 -6.539394,9.40115 -5.315076,9.98852 -9.754826,12.56312 -26.808124,15.54599 C 25.828655,621.64368 6.1520206,621.90202 4,619.75 Z"
       id="path3456"
       inkscape:connector-curvature="0" />
    <path
       style="fill:#56b4f6"
       d="m 4.4184642,619.56135 c -1.9244082,-1.40716 -2.1712992,-2.6959 -1.4811219,-7.73129 1.1635922,-8.48933 2.8380567,-10.42953 14.7088527,-17.04315 5.763343,-3.21095 12.417274,-7.85157 14.786514,-10.3125 2.36924,-2.46092 5.276487,-4.47441 6.46055,-4.47441 1.184063,0 3.38735,-1.99747 4.896192,-4.43884 1.508842,-2.44135 4.226594,-5.3577 6.039449,-6.48076 6.123103,-3.79327 9.122225,-7.1758 13.592751,-15.3304 2.449863,-4.46875 8.511879,-14.3125 13.471145,-21.875 4.959267,-7.5625 9.978349,-16.28125 11.153515,-19.375 6.965378,-18.33709 22.158799,-34.9081 37.204989,-40.57837 7.49824,-2.82577 8.95684,-4.5202 12.893,-14.9776 4.6127,-12.25482 7.12203,-27.62715 5.43183,-33.27574 -1.19639,-3.99833 -0.54094,-6.89106 6.37277,-28.125 4.23848,-13.01756 8.51515,-25.5155 9.50371,-27.7732 0.98857,-2.2577 1.79739,-5.66581 1.79739,-7.57359 0,-1.90778 0.82586,-4.56056 1.83525,-5.89509 1.00937,-1.33452 1.85312,-4.41062 1.875,-6.83577 0.0219,-2.42516 0.92954,-5.67971 2.01705,-7.23235 1.43338,-2.04645 1.74509,-4.19736 1.13317,-7.81926 -0.61303,-3.62855 -0.29021,-5.84162 1.17928,-8.08435 2.35921,-3.60062 2.90011,-18.06384 0.91831,-24.55444 -0.69697,-2.28263 -1.84759,-8.08774 -2.55692,-12.90024 -0.70935,-4.8125 -1.92704,-11.71777 -2.70599,-15.34505 l -1.41627,-6.59505 -4.57694,3.85431 C 152.18993,274.4836 139.86826,282.5 137.87765,282.5 c -2.62933,0 -14.07314,-11.2233 -16.5379,-16.21923 -1.19549,-2.42317 -3.42288,-8.62452 -4.94976,-13.78077 -1.52688,-5.15625 -3.87377,-12.53545 -5.21532,-16.39821 -1.34154,-3.86278 -4.6859,-16.74769 -7.43192,-28.63317 -3.778238,-16.35321 -4.989141,-24.22293 -4.977914,-32.35177 0.01613,-11.67748 2.352034,-22.58341 5.906314,-27.57551 1.26396,-1.77528 8.00946,-6.00085 15.35411,-9.61824 10.37441,-5.10961 14.07495,-7.66761 17.78724,-12.29545 2.57812,-3.21396 4.6875,-6.93977 4.6875,-8.27958 0,-1.33982 0.86394,-3.75456 1.91986,-5.3661 1.73303,-2.64494 1.72754,-3.00387 -0.0565,-3.68845 -1.08696,-0.41711 -2.7467,-2.60221 -3.6883,-4.85578 -0.9416,-2.25358 -3.77754,-7.100165 -6.30207,-10.770203 -6.75647,-9.822241 -15.64688,-29.364871 -16.43997,-36.137957 -0.38027,-3.247519 -0.0249,-9.27958 0.78962,-13.40458 0.81456,-4.125 1.61777,-8.34375 1.78491,-9.375 0.72996,-4.50383 4.91674,-11.648133 9.81844,-16.754143 15.18453,-15.8174748 47.38687,-13.16056 50.42723,4.160594 0.6473,3.687677 7.33221,16.343549 8.63277,16.343549 0.20645,0 2.06091,-2.986614 4.12101,-6.636919 4.58001,-8.115336 11.02935,-13.941887 20.18596,-18.23669 C 219.6354,9.8391629 222.32025,9.375 232.5,9.375 c 10.22816,0 12.82844,0.4541003 18.75,3.274419 9.09529,4.331893 18.18178,13.347101 22.29355,22.118658 2.91302,6.214307 3.33132,8.676899 3.33049,19.606923 -8.8e-4,11.285922 -0.34234,13.148343 -3.5157,19.175266 -8.41535,15.982625 -20.56258,23.985978 -37.84754,24.936329 -13.53684,0.744274 -22.07036,-1.781696 -31.23371,-9.24535 -3.84498,-3.131775 -7.11011,-5.50786 -7.25588,-5.28019 -2.91866,4.558937 -3.39229,11.686214 -1.01848,15.326354 0.47975,0.735671 1.43587,3.868841 2.1247,6.962591 1.11132,4.99124 1.67466,5.66932 5,6.01839 2.06117,0.21637 7.01457,1.2246 11.00756,2.24051 3.993,1.01591 13.27425,2.3583 20.625,2.98308 18.38957,1.56303 26.27387,3.35569 32.02462,7.28146 4.94316,3.37446 17.13165,20.90727 32.36472,46.55575 3.85314,6.4877 8.14838,13.48331 9.54496,15.54581 1.39659,2.0625 2.54295,5.53212 2.54747,7.71026 0.009,4.42826 1.07162,7.91474 2.4118,7.91474 1.78072,0 6.34644,-9.82541 6.34644,-13.65749 0,-2.16816 1.125,-6.14729 2.5,-8.84251 1.375,-2.69523 2.5,-6.20405 2.5,-7.79738 0,-3.46633 5.74361,-21.45166 8.0435,-25.18713 0.89415,-1.45227 2.92918,-6.43737 4.52228,-11.07799 2.13171,-6.20956 3.48935,-8.4375 5.14157,-8.4375 3.48393,0 4.27769,5.7619 1.70868,12.40325 -3.31858,8.57911 -3.7357,11.34675 -1.71012,11.34675 2.48824,0 14.72949,-13.07064 20.19425,-21.5625 3.0839,-4.79216 5.45428,-7.1875 7.1126,-7.1875 3.1703,0 3.15932,2.53222 -0.0381,8.7998 -2.86246,5.61087 -2.15591,6.47132 1.49872,1.8252 2.92818,-3.72258 7.27668,-4.19879 7.27668,-0.79688 0,1.28047 -1.6875,4.45155 -3.75,7.04688 -4.43831,5.58489 -4.97505,8.46166 -0.85694,4.59289 3.18819,-2.99514 5.26985,-3.42908 6.54583,-1.36452 0.84417,1.36589 -4.79483,10.25443 -10.33688,16.29364 l -3.00265,3.27201 2.71733,0.7106 2.71732,0.7106 -2.72894,3.83243 c -1.50091,2.10784 -3.95543,4.47935 -5.4545,5.27004 -4.76946,2.51563 -8.35057,7.283 -8.35057,11.11673 0,5.78512 -4.5178,17.90813 -13.37294,35.88481 -10.4102,21.13356 -18.63486,32.89973 -26.66061,38.14057 -4.45358,2.9082 -5.93604,4.56555 -5.29101,5.9152 0.49286,1.03125 0.94568,5.09181 1.00628,9.02348 0.0677,4.39721 0.8333,8.00541 1.98904,9.375 1.03336,1.22458 3.63624,5.03902 5.78415,8.47652 2.1479,3.4375 5.90549,8.18847 8.35019,10.55771 3.31969,3.21723 4.4449,5.34881 4.4449,8.42038 0,5.87182 10.01365,23.36846 16.78591,29.32963 3.82235,3.36457 6.16348,6.77517 7.58178,11.04526 1.12853,3.39771 5.03098,11.12076 8.67211,17.16233 8.95137,14.85269 25.64791,51.73603 26.98437,59.6096 3.4228,20.16494 3.56504,20.61964 11.44289,36.58275 l 6.27129,12.70767 -1.95275,6.66733 c -2.08624,7.12315 -5.75714,12.06114 -22.697,30.53135 -7.97887,8.69968 -12.47738,12.44384 -19.18714,15.96973 -4.82059,2.53314 -9.95063,6.13809 -11.40011,8.01099 -11.30557,14.60815 -12.14175,16.2809 -10.07193,20.1484 0.72486,1.35441 2.35815,2.79272 3.62955,3.19625 2.36628,0.75102 5.19103,5.59426 5.19103,8.90037 0,1.01593 1.26562,2.33175 2.8125,2.92406 3.64193,1.39454 15.61676,14.08417 20.36275,21.57824 2.03486,3.21312 5.00227,6.45226 6.59426,7.19806 2.17896,1.0208 2.79697,2.20319 2.5,4.78295 -0.30359,2.63713 -1.69091,4.081 -6.01951,6.26485 -4.81167,2.42757 -7.07094,2.76308 -15.625,2.32037 -5.5,-0.28465 -13.07302,-1.56172 -16.82891,-2.83792 -6.06545,-2.06095 -7.03305,-2.87935 -8.65492,-7.32036 -2.94327,-8.05929 -7.8057,-14.51968 -15.73801,-20.91009 -6.4924,-5.23038 -7.94144,-5.88341 -11.55207,-5.20605 -4.24725,0.79679 -8.46492,-1.2544 -7.10472,-3.45525 1.0965,-1.77419 -2.15279,-5.01106 -4.23007,-4.21393 C 297.80014,571.53604 295,569.0355 295,565.88684 c 0,-1.40639 0.63027,-6.17638 1.40061,-10.6 1.63774,-9.40459 5.74364,-14.93138 14.09668,-18.97502 C 317.71593,532.81734 335,511.40641 335,505.95869 c 0,-3.3344 3.16639,-10.42681 8.90471,-19.94573 l 5.04093,-8.36203 -5.29134,-7.88797 c -2.91023,-4.33837 -5.41901,-8.05585 -5.57506,-8.26103 -0.15605,-0.2052 -5.30285,1.0381 -11.43734,2.76288 -6.13449,1.72479 -15.65495,3.51137 -21.15659,3.97019 l -10.00296,0.83421 -4.66884,-7.83758 c -2.56785,-4.31068 -5.8362,-12.11687 -7.26301,-17.3471 -3.50575,-12.85105 -4.76289,-15.00132 -14.50831,-24.81564 -4.62945,-4.66219 -10.01599,-10.60924 -11.97008,-13.21566 l -3.55287,-4.73898 -5.6398,9.13038 c -7.66664,12.41168 -12.00734,21.29297 -15.3065,31.31787 l -2.77677,8.4375 -7.94616,0 c -7.77145,0 -8.16467,0.16466 -17.88514,7.48925 -5.46643,4.11909 -11.05766,7.91596 -12.42492,8.4375 -2.91911,1.11349 -15.74658,15.02786 -21.3145,23.12056 -4.85354,7.05438 -14.0226,14.80678 -22.04718,18.64078 -4.75073,2.26982 -7.39758,4.78242 -11.65296,11.06191 -7.94854,11.72935 -12.36494,15.95386 -21.54222,20.60623 -7.60181,3.85368 -10.50998,6.52141 -23.185798,21.26877 -1.772782,2.0625 -3.849113,4.86841 -4.614068,6.23536 -0.764954,1.36694 -2.428064,3.59869 -3.695798,4.95945 -1.267734,1.36075 -3.420967,6.08728 -4.784964,10.50338 -1.456961,4.71709 -4.150152,9.8919 -6.528727,12.54457 -2.226804,2.48342 -5.148806,6.81267 -6.493338,9.62058 -3.980388,8.3126 -9.821913,11.55602 -25.830813,14.3422 -16.422513,2.85815 -32.0801466,3.18111 -35.4311198,0.73081 z"
       id="path3454"
       inkscape:connector-curvature="0" />
    <path
       style="fill:#2fa6f8"
       d="M 4.6274968,619.44893 C 2.193808,617.01524 1.9724494,613.82455 3.784651,607.30005 5.0761893,602.6501 7.3608441,600.80315 22.5,592.17034 c 3.09375,-1.76417 7.563469,-5.22419 9.932709,-7.68895 2.36924,-2.46477 5.276487,-4.48139 6.46055,-4.48139 1.184063,0 3.346635,-1.9316 4.805714,-4.29244 1.459078,-2.36084 5.197137,-5.87646 8.306797,-7.8125 4.110138,-2.55891 6.890456,-5.73857 10.182549,-11.64506 2.490741,-4.46875 8.54001,-14.3125 13.442819,-21.875 4.902807,-7.5625 11.775622,-19.65625 15.27292,-26.875 8.331296,-17.19657 17.993622,-27.60018 31.774172,-34.21181 5.25428,-2.52092 10.12013,-5.2764 10.81299,-6.12333 1.96474,-2.40159 7.24793,-16.061 8.84931,-22.87942 1.42398,-6.06315 1.88988,-13.8199 1.42112,-23.66044 -0.15955,-3.34948 2.68762,-13.82156 8.62509,-31.72356 4.8748,-14.69795 8.86326,-27.94981 8.86326,-29.44859 0,-1.49876 0.82586,-3.81691 1.83525,-5.15144 1.00937,-1.33452 1.85312,-4.41062 1.875,-6.83577 0.0219,-2.42516 0.92954,-5.67971 2.01705,-7.23235 1.43338,-2.04645 1.74509,-4.19737 1.13317,-7.81927 -0.58606,-3.46888 -0.29026,-5.84348 0.9676,-7.76764 2.9994,-4.58821 3.83019,-15.93428 1.62949,-22.25418 -1.05665,-3.03446 -1.92215,-7.48595 -1.92335,-9.8922 -0.002,-4.18441 -3.16527,-20.66249 -4.8695,-25.36671 -0.7043,-1.9441 -1.70715,-1.47773 -7.55388,3.51296 -3.70799,3.16507 -9.49222,7.14844 -12.85387,8.85191 l -6.11208,3.09723 -3.55134,-2.52879 c -4.95108,-3.52547 -11.20333,-10.8692 -13.21733,-15.52471 -2.65311,-6.1329 -12.67631,-39.15642 -15.0368,-49.54189 -1.17195,-5.15625 -3.19025,-13.81165 -4.48511,-19.23423 -4.167534,-17.45261 -2.467595,-39.32935 3.73272,-48.03688 1.51816,-2.13207 7.27103,-5.75715 15.08008,-9.50248 9.90114,-4.74872 13.69986,-7.33855 17.60423,-12.00187 2.73826,-3.27057 4.97867,-7.00889 4.97867,-8.30738 0,-1.29849 0.90634,-3.65488 2.01409,-5.23642 1.89178,-2.7009 1.85384,-2.98777 -0.625,-4.72401 -1.4515,-1.01667 -2.63909,-2.61905 -2.63909,-3.56085 0,-0.9418 -2.88168,-6.063855 -6.40373,-11.38234 -3.52204,-5.318485 -7.55639,-12.53165 -8.96521,-16.029256 -1.40881,-3.497607 -3.28909,-7.226005 -4.17839,-8.285331 -2.58105,-3.074511 -4.55213,-14.717678 -3.66972,-21.676983 2.71293,-21.395932 13.4367,-36.138199 28.26025,-38.8501389 7.27026,-1.3300814 18.74676,-1.618437 19.44506,-0.4885716 0.3626,0.5867073 1.724,1.0667405 3.02534,1.0667405 3.59824,0 11.06056,8.416586 12.02625,13.564136 0.88452,4.714876 7.05313,14.316449 8.80855,13.710706 0.56462,-0.194836 3.12852,-3.606333 5.69754,-7.581103 10.19971,-15.780933 31.61502,-23.4491344 49.94906,-17.885311 7.94667,2.411574 10.42007,3.852364 16.98597,9.894577 7.18912,6.615721 10.83472,12.433274 13.46823,21.492217 6.04479,20.793363 -4.37814,43.549055 -24.20357,52.84205 -6.23654,2.923317 -8.67263,3.336374 -19.62063,3.32682 -13.87679,-0.01212 -18.47901,-1.640219 -29.18664,-10.325227 -4.34975,-3.528099 -5.65805,-4.060243 -6.54411,-2.661775 -2.28855,3.612011 -2.64287,9.690635 -0.77073,13.222473 1.02782,1.938987 2.34862,5.768127 2.93512,8.509207 l 1.06636,4.98376 10.625,2.20505 c 5.84375,1.21278 16.53125,2.74698 23.75,3.40934 26.89328,2.4676 34.01669,5.30392 41.55104,16.54435 6.37057,9.50418 21.12322,33.04527 25.30128,40.37373 1.95978,3.4375 4.9364,8.06982 6.61474,10.29405 1.85577,2.45936 3.36625,6.58274 3.85473,10.52271 0.44176,3.56328 1.44427,6.69151 2.2278,6.95165 2.19345,0.72825 6.70041,-7.5516 6.70041,-12.30946 0,-2.33529 1.125,-6.34497 2.5,-8.91043 1.375,-2.56546 2.5,-6.03802 2.5,-7.71681 0,-3.95152 6.13045,-23.26858 8.15826,-25.70671 0.8577,-1.03125 2.86473,-5.97189 4.46007,-10.97919 2.94413,-9.2408 4.93367,-10.86537 7.77681,-6.35019 0.94235,1.49655 0.53585,4.27263 -1.51441,10.34242 -1.54139,4.56322 -2.62324,9.19873 -2.40413,10.30111 0.66953,3.3684 12.58173,-7.77684 19.90403,-18.6225 4.16968,-6.17608 7.37317,-9.69165 8.83127,-9.69165 2.96059,0 2.89622,2.65756 -0.2119,8.75 -3.44849,6.7596 -3.13375,7.50102 1.17954,2.77857 2.02375,-2.21571 4.2914,-4.02857 5.03922,-4.02857 2.41238,0 2.86283,3.68997 0.8023,6.57215 -1.10208,1.54156 -2.93007,4.08359 -4.06219,5.64892 -2.76169,3.81852 -1.34312,4.91318 2.01509,1.55497 2.79194,-2.79194 5.65104,-2.84548 5.65104,-0.10575 0,1.83885 -4.3665,8.16623 -10.62312,15.3937 -3.80574,4.39629 -4.00847,4.93597 -1.5625,4.15965 2.12112,-0.67323 2.81062,-0.39749 2.81062,1.124 0,2.11146 -2.75757,5.07122 -10.41831,11.18225 -3.6461,2.90851 -4.58169,4.51497 -4.58169,7.86707 0,9.4348 -17.71641,48.3221 -28.63489,62.85323 -4.21975,5.61596 -10.26741,11.13561 -15.85112,14.46716 -1.99934,1.19293 -2.06799,1.78101 -0.61682,5.28445 0.89809,2.16819 1.39224,6.00355 1.0981,8.52303 -0.44592,3.81965 0.3845,5.95343 4.99729,12.84055 3.04264,4.54282 7.72029,10.63773 10.39476,13.54424 3.94338,4.28552 4.86268,6.22117 4.86268,10.23873 0,2.72479 0.5765,5.31046 1.28112,5.74594 0.70462,0.43547 3.19277,4.58777 5.5292,9.22733 2.54339,5.05049 6.05475,9.81358 8.75024,11.86954 3.22259,2.45799 6.05249,6.75156 9.95696,15.10691 3.00014,6.42013 7.14477,14.12923 9.21027,17.13134 6.35527,9.23706 25.2675,51.92044 25.28097,57.05711 0.0197,7.5173 5.30169,24.62758 11.28049,36.54174 l 6.34072,12.63538 -2.13152,6.4557 c -2.38931,7.23647 -6.13639,12.29098 -22.11883,29.83655 -9.26151,10.1673 -12.59031,12.89873 -20.56551,16.875 -6.29584,3.13896 -10.1792,5.94766 -11.47725,8.30108 -1.07902,1.95632 -3.56192,5.61257 -5.51755,8.125 -6.4786,8.32322 -6.47979,8.39443 -0.23966,14.45914 3.20094,3.11095 5.67035,6.66171 5.67035,8.15338 0,1.58898 1.12125,3.07028 2.8125,3.71562 3.61451,1.37921 13.94479,12.45668 20.21526,21.67744 2.68828,3.95312 5.62731,7.1875 6.5312,7.1875 0.90388,0 1.99658,1.40715 2.42824,3.127 0.59319,2.36347 0.0649,3.71521 -2.16369,5.53605 -7.27252,5.94192 -21.88504,6.40999 -36.27805,1.16204 -5.85157,-2.1336 -7.49261,-3.33474 -8.11182,-5.93739 -1.55472,-6.53474 -8.35639,-15.87749 -15.8687,-21.79715 -6.17842,-4.86855 -8.32258,-5.90153 -11.09779,-5.34648 C 307.68952,578.89965 305,577.76731 305,574.9556 c 0,-3.46326 -3.62976,-6.61145 -5.67026,-4.91799 -1.26018,1.04585 -1.99482,0.73965 -3.07709,-1.2826 -1.05233,-1.96629 -1.06466,-4.9576 -0.0475,-11.51344 1.64732,-10.61721 5.97914,-16.90545 14.48094,-21.0211 3.09752,-1.49948 7.14213,-4.77813 8.98802,-7.28588 1.84589,-2.50775 4.32856,-5.53483 5.51706,-6.72684 4.87973,-4.89415 9.87328,-13.63523 11.12575,-19.47533 0.73315,-3.41853 3.83052,-10.26636 6.88303,-15.2174 3.05252,-4.95103 5.55004,-9.33125 5.55004,-9.73378 0,-0.40254 -2.34899,-4.33725 -5.21997,-8.7438 -5.86335,-8.99942 -4.02506,-8.64782 -21.03003,-4.02232 -5.15625,1.40254 -13.3125,2.85037 -18.125,3.21738 l -8.75,0.66729 -3.28525,-5.38738 c -5.18662,-8.50532 -6.89132,-12.39679 -8.65718,-19.76236 -2.54586,-10.61901 -5.17559,-14.92273 -16.54272,-27.07323 -5.79145,-6.19056 -11.13122,-12.33003 -11.86613,-13.64326 -0.73492,-1.31322 -1.5532,-2.11112 -1.81839,-1.7731 -5.42831,6.91904 -15.37597,25.05359 -18.34063,33.43489 -5.39538,15.25309 -4.93355,14.74099 -12.90835,14.31375 -6.71753,-0.35988 -7.02575,-0.22026 -18.58109,8.41717 -6.46265,4.83073 -12.73464,8.79228 -13.93776,8.80345 -1.20313,0.0113 -2.1875,0.55077 -2.1875,1.19908 0,0.64831 -2.97957,4.44519 -6.62124,8.4375 -3.64169,3.99231 -8.73575,10.1896 -11.32014,13.77176 -5.46432,7.57396 -12.12069,13.14095 -21.19277,17.7244 -5.03402,2.5433 -7.77718,5.18368 -12.44267,11.97643 -8.17896,11.90822 -11.58,15.20385 -19.63509,19.02651 C 109.50613,541.58384 95,554.22277 95,556.9133 c 0,0.7516 -1.6875,2.61417 -3.75,4.13905 -2.0625,1.52487 -3.75,3.35569 -3.75,4.06847 0,0.71279 -1.365019,3.08658 -3.033375,5.27508 -1.668356,2.1885 -4.453799,7.89377 -6.189873,12.67837 -1.736075,4.78459 -4.306727,9.56689 -5.712561,10.6273 -1.405835,1.06043 -4.030618,4.73952 -5.832852,8.17574 -1.802235,3.43623 -4.366189,7.4418 -5.697675,8.90129 -5.106275,5.59713 -18.758368,9.00456 -40.468668,10.10061 -11.937373,0.60268 -14.09849,0.40873 -15.9374993,-1.43028 z"
       id="path3452"
       inkscape:connector-curvature="0" />
    <path
       style="fill:#0095fd"
       d="m 6.0337279,619.46653 c -2.4537998,-1.2527 -2.8676798,-2.34527 -2.6462739,-6.98561 0.3521453,-7.38045 3.2658709,-10.90307 13.942311,-16.85592 4.932131,-2.75 11.601142,-7.39063 14.820026,-10.3125 3.218883,-2.92188 6.736582,-5.3125 7.817108,-5.3125 1.080525,0 3.023621,-1.9665 4.317991,-4.37 1.29437,-2.4035 4.780359,-5.79229 7.746641,-7.53065 3.916428,-2.29518 6.725867,-5.46267 10.259912,-11.5675 7.556227,-13.05289 9.157897,-15.65295 15.583041,-25.29664 3.299715,-4.95263 8.496895,-14.24322 11.549286,-20.64575 9.513448,-19.95486 23.10872,-34.15823 37.16449,-38.82681 7.2487,-2.40764 8.40258,-4.0528 13.46605,-19.19955 3.34344,-10.00149 3.99281,-13.92902 4.23678,-25.625 0.25987,-12.45907 0.81051,-15.406 5.6173,-30.0631 2.93103,-8.9375 6.45704,-19.34375 7.83554,-23.125 1.37851,-3.78125 2.92298,-9.26297 3.43216,-12.18161 0.50919,-2.91864 1.85911,-6.33793 2.99985,-7.59843 1.28112,-1.41563 2.07406,-4.42856 2.07406,-7.88088 0,-3.07399 0.51301,-6.12345 1.14001,-6.77658 0.62702,-0.65312 1.43258,-4.28125 1.79013,-8.0625 0.35756,-3.78125 1.3524,-10.72945 2.21073,-15.44045 1.25459,-6.88574 1.2499,-9.33702 -0.0239,-12.5 -0.8715,-2.164 -2.06491,-7.87205 -2.65204,-12.68455 -1.23044,-10.08562 -4.17597,-24.00271 -5.32289,-25.14962 -0.43088,-0.43089 -3.47975,1.59845 -6.77523,4.50966 -3.29549,2.9112 -8.79193,6.89867 -12.21432,8.86104 -5.89647,3.38101 -6.38768,3.46348 -9.375,1.57412 -10.01852,-6.33633 -13.33158,-11.90774 -20.31948,-34.1702 -6.14469,-19.57611 -6.30895,-20.20138 -11.59435,-44.13455 -4.633839,-20.98282 -5.189216,-28.44063 -2.9999,-40.28373 2.54635,-13.77445 4.44513,-15.99816 20.22934,-23.69101 11.67768,-5.69142 14.71346,-7.77806 18.09437,-12.4372 2.23437,-3.07912 4.06596,-6.32518 4.0702,-7.21346 0.004,-0.88828 0.82602,-3.18389 1.82619,-5.10136 1.65895,-3.18044 1.60345,-3.70136 -0.6327,-5.9375 -1.34815,-1.34815 -2.45253,-3.15431 -2.45417,-4.01369 -0.002,-0.85937 -2.30576,-4.9375 -5.12027,-9.0625 C 130.10729,85.552762 123.75,73.371938 123.75,70.660646 123.75,69.609791 123.20929,68.75 122.54843,68.75 c -2.16793,0 -4.94295,-12.271291 -4.41488,-19.52288 0.93027,-12.774862 6.0934,-25.761758 12.9797,-32.648068 C 137.45727,10.235029 144.13575,8.125 157.87124,8.125 l 12.31032,0 4.90923,5.264096 C 177.96376,16.469763 180,19.89166 180,21.639049 c 0,1.64222 1.6875,5.315381 3.75,8.16258 2.0625,2.847197 3.75,5.744095 3.75,6.437547 0,2.653481 2.70737,1.089603 4.74564,-2.741252 4.1217,-7.746627 13.7787,-16.802825 21.8514,-20.49193 6.59146,-3.012206 9.39876,-3.5561319 18.40296,-3.5656435 8.87161,-0.00937 11.79568,0.5331014 17.71894,3.2872215 9.99804,4.648764 17.82526,12.329303 22.56187,22.139086 3.44264,7.129874 3.99338,9.6248 4.0304,18.258342 0.0636,14.818635 -2.76616,21.811485 -12.94545,31.990765 -10.32244,10.32244 -17.12734,13.024699 -32.61576,12.951881 -12.28369,-0.05775 -19.12482,-2.524887 -27.17951,-9.801806 -5.93989,-5.366332 -6.96177,-5.519792 -8.86984,-1.332024 -2.01189,4.415585 -1.81278,9.95953 0.42435,11.816184 1.03125,0.855861 1.875,2.85687 1.875,4.44668 0,7.33061 1.64796,8.74364 12.69816,10.88789 19.70023,3.82277 25.2303,4.66543 30.61738,4.66543 2.96922,0 7.79729,0.55354 10.72902,1.23009 2.93174,0.67655 6.75178,1.4995 8.48896,1.82879 6.02514,1.14209 13.36049,9.25872 24.61843,27.24052 26.26842,41.95739 25.92554,41.34415 26.58662,47.54889 0.35004,3.28531 1.19893,6.05588 1.88643,6.15685 2.24297,0.32936 6.56069,-7.5521 7.47409,-13.64304 0.49108,-3.27479 1.68218,-7.48051 2.6469,-9.34606 0.9647,-1.86554 1.76119,-4.68545 1.76997,-6.26647 0.0208,-3.73098 5.86295,-22.07632 8.15038,-25.59316 0.97252,-1.49522 3.08663,-6.52354 4.69802,-11.17402 3.15778,-9.11337 4.93858,-10.83764 7.07334,-6.84879 1.06316,1.98652 0.67371,4.49114 -1.79868,11.56765 -1.946,5.56986 -2.70991,9.47786 -1.99283,10.19494 1.90175,1.90175 14.14483,-9.67835 20.20122,-19.1073 5.67958,-8.84233 8.17801,-11.01347 10.26829,-8.92319 0.76355,0.76355 0.2347,3.18687 -1.45901,6.68564 -3.67977,7.60137 -3.33993,8.3513 1.6103,3.55335 3.93681,-3.8157 6.98301,-4.31663 6.98301,-1.1483 0,0.71987 -1.59405,3.35855 -3.54233,5.86373 -3.59083,4.61727 -5.72128,8.92988 -4.41138,8.92988 0.3948,0 2.48652,-1.49288 4.64826,-3.3175 3.90839,-3.29889 3.93272,-3.30216 4.33541,-0.58284 0.37179,2.5106 -2.64427,7.1115 -9.52191,14.52534 -3.74301,4.03484 -4.73514,6.17147 -2.46031,5.29855 1.07681,-0.41321 2.27166,-0.43749 2.6552,-0.0539 0.96918,0.96919 -2.74184,7.88039 -4.23144,7.88039 -0.66786,0 -3.38874,1.96448 -6.04638,4.36549 -3.54655,3.2041 -4.68995,5.11626 -4.29781,7.1875 0.62958,3.32549 -5.78429,22.13961 -11.18925,32.82201 -2.08712,4.125 -4.92012,9.75 -6.29557,12.5 -7.60615,15.20746 -19.12328,29.06373 -26.4832,31.86196 -2.98112,1.13342 -3.01763,1.29679 -1.2404,5.55027 2.21891,5.3106 2.34611,9.69777 0.33935,11.70453 -1.15568,1.15568 -0.7617,2.26805 1.74875,4.9375 1.78227,1.89515 4.84418,5.99948 6.80426,9.12072 1.96006,3.12123 5.67312,7.78061 8.25125,10.35417 3.62565,3.61921 4.6875,5.66644 4.6875,9.03736 0,2.42272 1.30671,6.42885 2.94239,9.02083 1.61831,2.56446 3.38605,6.06891 3.92831,7.78766 0.54226,1.71875 4.27441,6.37708 8.29367,10.35184 4.01927,3.97477 7.67574,8.75602 8.1255,10.625 1.09322,4.54275 6.01599,14.26107 11.16977,22.0508 7.13385,10.78257 24.34858,50.17665 25.65142,58.70057 2.31066,15.11758 3.94925,20.35483 10.61415,33.92498 l 6.76708,13.7782 -2.4585,6.72617 c -1.35218,3.69939 -3.74106,8.18657 -5.30865,9.97148 -1.56758,1.78491 -5.38139,6.11512 -8.47514,9.62269 -3.09375,3.50756 -8.24798,9.45921 -11.45385,13.2259 -4.09121,4.80691 -8.56284,8.26531 -15,11.60115 -9.06704,4.6987 -16.04615,10.0485 -16.04615,12.30011 0,0.63865 -1.96875,3.84315 -4.375,7.12111 -2.40625,3.27796 -4.375,6.35663 -4.375,6.84146 0,0.48484 2.53125,3.34163 5.625,6.3484 3.75233,3.64684 5.625,6.52278 5.625,8.63852 0,1.80691 0.71589,3.17162 1.66375,3.17162 1.91558,0 19.58625,17.83473 19.58625,19.76809 0,0.7065 2.6329,3.91744 5.85087,7.13542 6.70118,6.70117 6.49785,8.4084 -1.47302,12.36873 -3.67041,1.82364 -7.11861,2.3408 -14.41106,2.16136 -10.01227,-0.24635 -22.42135,-3.69231 -23.94752,-6.65014 -0.47064,-0.91215 -2.43939,-4.97041 -4.375,-9.01836 -2.69723,-5.64077 -5.49032,-8.9381 -11.95771,-14.11649 -7.20363,-5.7679 -9.09932,-6.70296 -12.95494,-6.3901 -3.29771,0.26759 -4.81537,-0.22381 -5.62406,-1.82101 -0.60916,-1.20312 -1.60542,-3.17187 -2.21393,-4.375 -0.69617,-1.37645 -2.26194,-2.06292 -4.22307,-1.8515 -4.02466,0.43388 -4.87916,-2.63896 -3.34251,-12.01987 0.63661,-3.88637 1.16073,-7.50057 1.16471,-8.03155 0.0165,-2.20364 10.50569,-12.1361 14.17012,-13.41805 6.00021,-2.09909 22.77198,-23.74047 24.10988,-31.11005 0.93939,-5.17445 5.49285,-14.71487 10.53242,-22.06748 l 3.46885,-5.061 -5.54865,-8.3765 c -3.05177,-4.60714 -6.36786,-8.37656 -7.36908,-8.37656 -2.62797,0 -13.36609,2.61146 -15.82212,3.84788 -1.14997,0.57891 -6.98337,1.75995 -12.96314,2.62453 l -10.8723,1.57198 -3.00199,-3.7097 c -4.29466,-5.30709 -9.15711,-15.60484 -10.06414,-21.31391 -1.42705,-8.9823 -5.10972,-15.19953 -15.60376,-26.3428 -5.72494,-6.07914 -11.33071,-12.45923 -12.45727,-14.17798 -1.12657,-1.71875 -2.2873,-2.84375 -2.57943,-2.5 -0.29212,0.34375 -2.83556,4.06205 -5.6521,8.26289 -6.55971,9.78376 -10.44716,17.54216 -14.6363,29.21046 -1.84592,5.14159 -4.02505,9.76683 -4.84249,10.27831 -0.81745,0.51149 -4.46966,0.5831 -8.11603,0.15915 -6.15152,-0.71522 -6.91798,-0.50002 -10.625,2.98319 -5.79364,5.44385 -17.99583,14.10521 -19.87935,14.11076 -1.56475,0.005 -6.05224,5.15145 -19.11588,21.92457 -6.75562,8.67391 -15.72167,16.05818 -24.04366,19.8019 -4.12153,1.85411 -6.62901,4.47546 -11.76653,12.30085 -6.95712,10.59698 -10.46977,13.82655 -20.49618,18.84437 C 107.32791,542.62502 95,553.10364 95,555.5471 c 0,0.86099 -1.194184,2.63699 -2.653743,3.94666 -4.435523,3.98005 -12.321611,17.00785 -14.275593,23.58326 -1.013664,3.41112 -3.461855,7.91112 -5.440424,10 -1.978569,2.08889 -4.997244,6.47443 -6.708168,9.74564 -4.995015,9.55026 -10.07273,12.68868 -25.024737,15.46718 -13.472126,2.50348 -31.0992998,3.09844 -34.8636071,1.17669 z"
       id="path3450"
       inkscape:connector-curvature="0" />
  </g>
</svg>
