<?xml version="1.0" encoding="UTF-8" standalone="no"?>
<!-- Created with Inkscape (http://www.inkscape.org/) -->

<svg
   xmlns:dc="http://purl.org/dc/elements/1.1/"
   xmlns:cc="http://creativecommons.org/ns#"
   xmlns:rdf="http://www.w3.org/1999/02/22-rdf-syntax-ns#"
   xmlns:svg="http://www.w3.org/2000/svg"
   xmlns="http://www.w3.org/2000/svg"
   xmlns:sodipodi="http://sodipodi.sourceforge.net/DTD/sodipodi-0.dtd"
   xmlns:inkscape="http://www.inkscape.org/namespaces/inkscape"
   id="svg3406"
   version="1.1"
   inkscape:version="0.91 r13725"
   width="340.32782"
   height="639.61578"
   viewBox="0 0 340.32782 639.61578"
   sodipodi:docname="silhouette-football-19.svg">
  <title
     id="title3340">Silhouette Football 19</title>
  <metadata
     id="metadata3412">
    <rdf:RDF>
      <cc:Work
         rdf:about="">
        <dc:format>image/svg+xml</dc:format>
        <dc:type
           rdf:resource="http://purl.org/dc/dcmitype/StillImage" />
        <dc:title>Silhouette Football 19</dc:title>
        <cc:license
           rdf:resource="http://creativecommons.org/publicdomain/zero/1.0/" />
        <dc:date>2017-03-19</dc:date>
        <dc:creator>
          <cc:Agent>
            <dc:title>JLouis</dc:title>
          </cc:Agent>
        </dc:creator>
        <dc:rights>
          <cc:Agent>
            <dc:title>Domaine pubic</dc:title>
          </cc:Agent>
        </dc:rights>
        <dc:publisher>
          <cc:Agent>
            <dc:title>inkscape</dc:title>
          </cc:Agent>
        </dc:publisher>
        <dc:subject>
          <rdf:Bag>
            <rdf:li>silhouette</rdf:li>
            <rdf:li>soccer</rdf:li>
            <rdf:li>player</rdf:li>
            <rdf:li>sport</rdf:li>
            <rdf:li>football</rdf:li>
            <rdf:li>joueurs</rdf:li>
          </rdf:Bag>
        </dc:subject>
        <dc:description>Soccer player in silhouette - Joueur de football en silhouette</dc:description>
      </cc:Work>
      <cc:License
         rdf:about="http://creativecommons.org/publicdomain/zero/1.0/">
        <cc:permits
           rdf:resource="http://creativecommons.org/ns#Reproduction" />
        <cc:permits
           rdf:resource="http://creativecommons.org/ns#Distribution" />
        <cc:permits
           rdf:resource="http://creativecommons.org/ns#DerivativeWorks" />
      </cc:License>
    </rdf:RDF>
  </metadata>
  <defs
     id="defs3410" />
  <sodipodi:namedview
     pagecolor="#ffffff"
     bordercolor="#666666"
     borderopacity="1"
     objecttolerance="10"
     gridtolerance="10"
     guidetolerance="10"
     inkscape:pageopacity="0"
     inkscape:pageshadow="2"
     inkscape:window-width="1235"
     inkscape:window-height="756"
     id="namedview3408"
     showgrid="false"
     fit-margin-top="0"
     fit-margin-left="0"
     fit-margin-right="0"
     fit-margin-bottom="0"
     inkscape:zoom="0.8828125"
     inkscape:cx="-87.399111"
     inkscape:cy="329.96471"
     inkscape:window-x="0"
     inkscape:window-y="0"
     inkscape:window-maximized="1"
     inkscape:current-layer="svg3406" />
  <g
     id="g3416"
     transform="translate(-0.32499259,-0.15421792)">
    <path
       style="fill:#d2e6f6"
       d="m 36.25,637.46444 c -4.46875,-1.2966 -9.075116,-2.07325 -10.236371,-1.72588 -1.297172,0.38803 -2.63972,-0.35565 -3.481479,-1.92849 C 21.720229,632.29299 19.90682,631.25 18.08102,631.25 16.386459,631.25 15,630.7254 15,630.08424 c 0,-0.64118 -1.125,-1.52283 -2.5,-1.95924 -1.90543,-0.60476 -2.5,-1.89129 -2.5,-5.40951 0,-6.76274 4.214369,-10.58225 16.010986,-14.51089 11.378835,-3.7895 20.648793,-9.25045 22.802868,-13.4332 0.820386,-1.59302 2.791369,-4.30265 4.37996,-6.0214 6.704271,-7.25357 11.409582,-17.12421 12.200479,-25.59374 0.423133,-4.53123 2.712408,-17.64196 5.087277,-29.13493 2.374869,-11.49298 5.240431,-25.95883 6.367916,-32.14633 1.127485,-6.1875 3.510694,-14.50951 5.296019,-18.49336 3.242181,-7.23475 3.245108,-7.27249 2.459039,-31.70778 -0.500795,-15.56741 -0.32956,-25.31916 0.470851,-26.81473 0.691821,-1.29269 1.851495,-5.58669 2.577053,-9.54223 1.5036,-8.19722 13.919622,-32.06122 21.410052,-41.15085 5.33525,-6.4743 5.30339,-6.195 2.90535,-25.46797 -0.98019,-7.87769 -2.08112,-18.2125 -2.44651,-22.96624 -0.36539,-4.75375 -1.2612,-9.01205 -1.99068,-9.46289 -2.59652,-1.60474 -3.86867,-9.60434 -3.8793,-24.39395 -0.008,-11.57381 -0.57647,-16.71309 -2.48738,-22.5 C 99.801853,265.25 97.348336,256.17898 95.711721,249.21716 92.497184,235.5432 83.638267,213.91759 79.845011,210.48474 78.555255,209.31753 77.5,207.1624 77.5,205.69556 c 0,-1.46682 -1.03135,-4.61402 -2.291889,-6.99376 -1.26054,-2.37974 -5.748264,-10.90232 -9.97272,-18.93908 -4.224457,-8.03675 -7.910454,-14.22425 -8.191104,-13.75 -0.280649,0.47425 -3.595396,6.84302 -7.366103,14.1528 -7.9319,15.37655 -12.659716,22.50379 -18.885869,28.47068 -3.766405,3.60958 -5.310585,4.24815 -10.097728,4.17578 -6.700206,-0.10125 -13.9973563,-3.43858 -17.2420724,-7.88552 -1.2836012,-1.7592 -2.62840255,-6.2592 -2.98844735,-10 C -0.28936408,187.09844 1.7439785,178.75926 13.399618,141.875 21.383077,116.61134 23.481654,107.00424 21.30997,105.66206 20.589486,105.21678 20,103.7691 20,102.44501 c 0,-1.3241 -1.6875,-5.14999 -3.75,-8.50198 -4.670219,-7.590074 -4.807607,-11.7141 -0.494905,-14.855686 3.210911,-2.338985 3.252742,-2.57309 3.081691,-17.246701 -0.09538,-8.181542 -0.49483,-16.156189 -0.887682,-17.721439 -0.986794,-3.9317 2.957553,-5.417071 5.683093,-2.140153 1.128522,1.356823 3.175908,2.227519 4.720727,2.007594 3.411957,-0.485738 5.064266,2.430807 6.768021,11.946458 C 37.323459,68.234369 38.753044,72.5 40.67318,72.5 41.97487,72.5 42.5,71.044877 42.5,67.437925 42.5,58.158249 47.876587,52.126587 52.25,56.5 c 1.902166,1.902166 1.902317,0.415084 4.92e-4,-4.844317 -1.408192,-3.89429 -1.255953,-4.398095 2.5,-8.273257 C 57.734624,40.303585 58.75,38.121389 58.75,34.786889 c 0,-5.322087 3.82344,-14.446813 8.26558,-19.725996 1.758801,-2.090218 3.608039,-5.3496324 4.109416,-7.2431442 1.28953,-4.8700683 5.150454,-6.2568812 20.191568,-7.25264967 12.192096,-0.80715454 13.927646,-0.62609724 22.906796,2.38969697 13.59343,4.5655715 22.58009,12.2632789 24.43969,20.9342929 1.98015,9.233085 1.66864,24.152612 -0.61778,29.58856 -3.2806,7.799611 -6.79527,18.810877 -6.79527,21.289185 0,2.650607 3.70527,6.483166 6.26786,6.483166 0.9328,0 2.88654,1.118443 4.34163,2.485429 1.45508,1.366986 5.42885,3.01748 8.83056,3.667765 9.98786,1.909312 27.07652,10.811506 40.56306,21.130976 1.72048,1.31644 3.90988,4.55544 4.86536,7.19777 1.64568,4.55104 16.48355,20.51806 19.06708,20.51806 0.62975,0 1.54876,1.04432 2.04222,2.32071 0.49348,1.2764 7.36598,7.17076 15.27223,13.09859 15.35661,11.51385 25.46272,22.37352 27.69007,29.75482 1.67787,5.5603 -2.04422,25.98787 -7.59828,41.70088 -1.94408,5.5 -6.2034,17.59375 -9.46518,26.875 -3.26176,9.28125 -6.64496,17.71875 -7.51821,18.75 -0.87326,1.03125 -2.14124,6.10434 -2.81774,11.27354 -0.6765,5.1692 -2.71331,13.10625 -4.52626,17.63788 -1.81294,4.53166 -4.4515,12.6773 -5.86345,18.10147 -2.99483,11.50486 -10.34038,25.85106 -20.31747,39.68097 -3.89592,5.40038 -7.06007,10.46288 -7.03144,11.25 0.0286,0.78713 2.00883,3.6475 4.4005,6.3564 l 4.34846,4.92526 5.912,-2.01603 c 3.2516,-1.10881 9.00575,-2.70626 12.787,-3.5499 15.64609,-3.49078 36.49591,-12.9705 42.81185,-19.46513 2.57778,-2.65071 7.64416,-8.99878 11.25865,-14.10683 4.75225,-6.71598 7.60766,-9.56573 10.31315,-10.2927 4.97949,-1.33802 7.87224,-0.27652 8.34965,3.0639 0.21544,1.50735 1.46153,2.94471 2.7691,3.19413 3.22156,0.61452 5.90621,3.44983 9.95109,10.50954 1.87104,3.26563 4.22194,5.9375 5.2242,5.9375 1.00227,0 1.82231,0.77488 1.82231,1.72195 0,2.5126 3.03146,4.62299 7.0837,4.9314 2.84834,0.2168 3.81193,1.12095 4.92429,4.62059 0.76065,2.39309 3.01065,5.44966 5,6.7924 5.32997,3.59752 9.85511,13.21286 8.35306,17.74921 -1.62581,4.91013 -6.28879,5.14515 -19.61946,0.98886 -9.91201,-3.09041 -12.00815,-3.30333 -28.1543,-2.85992 l -17.44496,0.47909 -9.75867,5.07953 c -15.83947,8.2447 -31.41647,18.33383 -51.18636,33.15312 -10.21476,7.65687 -18.85355,14.34697 -19.1973,14.8669 -0.34375,0.51993 -5.95834,4.94617 -12.47685,9.8361 -9.37119,7.02987 -12.75836,8.89077 -16.18281,8.89077 -5.79528,0 -12.43763,-4.78352 -16.90186,-12.17199 -1.97832,-3.27416 -5.46745,-7.18855 -7.75367,-8.69863 l -4.15672,-2.74563 -3.59299,5.24563 c -1.97614,2.88508 -4.75005,7.52581 -6.16424,10.3127 -2.56337,5.05155 -2.5639,5.09361 -0.17106,13.72295 3.59251,12.95571 3.13483,22.8357 -1.86099,40.17251 -2.34365,8.1331 -6.50074,19.84996 -9.23797,26.03746 -11.70135,26.45089 -19.509481,43.13739 -24.56637,52.5 -4.225282,7.82294 -5.263346,10.89594 -4.768176,14.11536 0.348135,2.26345 -0.225056,6.4822 -1.273758,9.375 -1.048701,2.8928 -2.19821,9.2173 -2.554463,14.05445 -1.073679,14.57824 -3.145725,16.80398 -15.681823,16.84503 -2.492187,0.009 -7.625,0.84524 -11.40625,1.86016 -8.562645,2.29831 -9.961441,2.25211 -20,-0.66056 z M 213.3681,247.8125 c 0.97279,-1.20313 3.13867,-5 4.81309,-8.4375 2.92575,-6.00644 3.04486,-7.26079 3.0566,-32.1875 l 0.0122,-25.9375 -2.8125,0.016 c -1.54688,0.009 -6.88326,-0.93605 -11.85864,-2.0997 -4.97537,-1.16365 -9.43821,-1.72364 -9.91742,-1.24443 -1.51147,1.51145 6.93535,37.41758 9.68967,41.18936 3.19761,4.37882 4.95529,14.84208 4.01832,23.92056 -0.74949,7.26181 0.0112,8.4751 2.99867,4.78068 z M 65.55467,95.479021 c 1.555084,-0.596741 1.684845,-1.161728 0.574179,-2.5 -0.789229,-0.950961 -2.06921,-1.732486 -2.844405,-1.736722 -0.775194,-0.0042 -2.916556,-0.793998 -4.758583,-1.755028 -1.842025,-0.961031 -3.67015,-1.426315 -4.0625,-1.033966 -0.983971,0.983971 -0.8985,5.94489 0.119975,6.963361 1.04747,1.047472 8.296798,1.088673 10.971336,0.06235 z"
       id="path3430"
       inkscape:connector-curvature="0" />
    <path
       style="fill:#b0d6f3"
       d="m 38.75,637.84073 c -3.78125,-1.03557 -8.5625,-1.95773 -10.625,-2.04928 -2.236849,-0.0993 -4.67306,-1.30612 -6.037594,-2.99086 -1.258176,-1.55343 -2.793,-2.51205 -3.41072,-2.13028 -0.61772,0.38178 -2.822679,-0.5624 -4.899906,-2.09816 -8.3457754,-6.1703 -2.932535,-15.4546 11.547366,-19.805 12.886646,-3.87171 18.496419,-7.55673 25.958339,-17.05185 11.798446,-15.01324 13.708559,-18.91998 14.944435,-30.56573 0.614291,-5.78851 2.519115,-16.99332 4.232942,-24.89957 1.713827,-7.90625 4.347988,-21.40625 5.853692,-30 1.67832,-9.57895 3.955522,-18.03853 5.885043,-21.86234 3.126098,-6.19512 3.143013,-6.40591 2.499145,-31.14323 -0.507966,-19.51607 -0.274895,-25.79947 1.077002,-29.03502 C 86.723635,421.9384 87.5,418.49949 87.5,416.56739 c 0,-6.15738 14.33741,-33.54933 22.96602,-43.8771 2.49708,-2.98881 4.08003,-6.08378 3.76494,-7.36119 -0.29902,-1.21225 -1.58105,-12.48483 -2.84895,-25.05016 -1.60224,-15.87868 -2.88029,-23.50295 -4.19074,-25 -2.49631,-2.85178 -3.7105,-11.93374 -3.54302,-26.50121 0.1,-8.69439 -0.53909,-14.09279 -2.37087,-20.02773 -1.379244,-4.46875 -3.94676,-14.02329 -5.705591,-21.2323 -3.447866,-14.13196 -10.402918,-30.98764 -15.133423,-36.67611 -1.616101,-1.94336 -2.939651,-4.75586 -2.941221,-6.25 -0.0016,-1.49413 -2.844114,-7.77909 -6.316762,-13.96659 -3.47265,-6.1875 -7.766933,-14.48437 -9.54285,-18.4375 C 59.861615,168.23438 58.038621,165 57.586435,165 c -0.452186,0 -3.328494,5.1694 -6.391796,11.48755 -7.104362,14.65295 -15.876798,28.22096 -21.073607,32.59379 -3.098656,2.60735 -5.386821,3.41866 -9.641736,3.41866 -6.680861,0 -14.6058856,-3.75496 -17.6137925,-8.34561 -3.21995435,-4.91428 -2.71207414,-18.5814 1.153074,-31.02939 1.7077712,-5.5 6.2487905,-20.125 10.0911535,-32.5 7.551749,-24.32172 9.47189,-33.55898 7.260037,-34.92598 C 20.616395,105.23341 20,103.49894 20,101.84464 20,100.19034 18.3125,96.17591 16.25,92.923685 11.568203,85.541257 11.556305,83.360121 16.17538,79.244504 L 19.850764,75.969723 19.11633,58.797381 c -0.56757,-13.2708 -0.369649,-17.39779 0.871135,-18.164636 1.016489,-0.628225 2.364075,0.01328 3.672918,1.748454 1.308834,1.735159 2.816967,2.453095 4.110434,1.956745 3.158021,-1.211846 5.812596,4.0501 7.828984,15.518755 C 37.601136,71.239711 38.109403,72.5 40.698771,72.5 41.991984,72.5 42.5,70.961075 42.5,67.043574 c 0,-3.627375 0.868439,-6.560468 2.590725,-8.75 C 47.65632,55.031949 51.25,53.839609 51.25,56.25 c 0,0.6875 0.5625,1.25 1.25,1.25 1.625801,0 1.625801,-4.6202 0,-5.625 -2.216484,-1.369862 -1.342376,-4.182799 2.747154,-8.840515 2.980945,-3.39511 4.077398,-5.933695 4.312792,-9.985275 0.341674,-5.880867 2.421426,-10.629337 8.0718,-18.429451 C 69.621785,11.872589 71.25,8.5555979 71.25,7.2486686 c 0,-4.0341071 7.450371,-6.1062842 22.933572,-6.3785312 12.588548,-0.22134924 14.796288,0.0896555 22.750778,3.2049082 12.00015,4.6996743 19.89428,12.6266134 21.89615,21.9871704 1.6981,7.940075 0.99304,23.043564 -1.32169,28.312784 -3.35135,7.628978 -6.17837,16.333124 -6.218,19.144676 -0.058,4.113019 2.16954,7.730324 4.76032,7.730324 1.21724,0 4.11923,1.40625 6.44887,3.125 2.32964,1.71875 5.69036,3.125 7.4683,3.125 4.85305,0 23.87927,8.408114 28.1567,12.443071 2.0625,1.945589 6.15772,4.743229 9.10051,6.216979 4.04583,2.02616 6.02628,4.11643 8.12183,8.57225 3.48992,7.42069 22.56862,26.48812 37.77766,37.75535 11.75099,8.70541 23.80829,20.85902 25.74356,25.94917 2.576,6.77543 0.24075,24.25918 -5.55147,41.56318 -7.5909,22.67747 -16.0993,45.84825 -17.78297,48.42804 -1.00615,1.54167 -2.13327,5.47917 -2.50472,8.75 -0.90873,8.00187 -3.02385,16.40659 -5.25141,20.86717 -1.00808,2.01861 -3.15543,8.61219 -4.77189,14.6524 -3.94123,14.72707 -9.82615,26.68533 -20.42768,41.50935 l -8.81931,12.33198 5.09543,6.08592 c 4.94842,5.91034 5.19297,6.03549 8.47613,4.3377 1.85939,-0.96152 5.61128,-2.124 8.33753,-2.58326 8.26159,-1.39174 28.17281,-8.21625 37.4568,-12.83821 9.67897,-4.8186 15.54397,-10.4726 23.9248,-23.06409 4.42467,-6.6477 6.5064,-8.65113 9.98817,-9.61249 5.3046,-1.46466 7.96203,-0.64341 7.96203,2.46058 0,1.37858 1.6491,3.09017 4.0962,4.25138 2.32894,1.10517 5.16026,3.96179 6.5625,6.62115 3.30782,6.27333 13.63427,16.55238 16.62872,16.55238 2.85815,0 4.58773,1.9484 5.63525,6.3482 0.42207,1.77276 2.20292,3.87727 3.95744,4.67669 1.75453,0.79941 3.54101,2.44272 3.96996,3.6518 0.42897,1.20907 1.57543,3.12751 2.54769,4.2632 2.35526,2.7511 1.60875,11.03643 -1.15006,12.76415 -1.60039,1.00225 -4.54165,0.5692 -11.875,-1.74842 C 316.65265,385.94977 313.45062,385.625 295,385.625 l -20.625,0 -10.26703,5.42812 c -12.65081,6.68844 -37.59508,22.90697 -51.00049,33.16003 -5.50964,4.21401 -11.50879,8.78685 -13.33144,10.16185 -1.82265,1.375 -7.15853,5.63156 -11.85748,9.45901 -12.3255,10.03953 -18.07259,13.66663 -21.64622,13.66131 -4.60115,-0.006 -10.66413,-4.16021 -14.98668,-10.26646 -4.7149,-6.6605 -11.35446,-13.47886 -13.12541,-13.47886 -1.29889,0 -10.80334,14.69938 -12.31356,19.04387 -0.41466,1.19289 0.3502,6.48599 1.69969,11.76247 3.86261,15.10266 2.99184,24.00987 -4.62584,47.31866 -3.97624,12.16661 -26.10527,61.14852 -32.398405,71.71284 -3.092756,5.19183 -4.32346,8.54169 -3.843689,10.46216 0.388158,1.55375 0.151749,5.075 -0.525352,7.825 -0.677101,2.75 -1.995581,10.5432 -2.929954,17.31821 -0.934372,6.77503 -2.463697,13.0743 -3.3985,13.9984 -0.934803,0.9241 -6.48089,2.27015 -12.32464,2.99124 -5.84375,0.72109 -12.590036,1.87494 -14.991748,2.56411 -5.168978,1.48324 -4.990287,1.49502 -13.758252,-0.90623 z M 215.18614,245.3125 c 5.831,-9.05553 6.06386,-10.49885 6.06386,-37.58531 l 0,-25.90519 -7.8125,-1.6773 c -4.29688,-0.92251 -10.26045,-1.95616 -13.2524,-2.297 -4.85808,-0.55341 -5.36586,-0.37119 -4.74763,1.7038 0.38075,1.27793 2.4619,10.1985 4.62479,19.8235 2.75733,12.27031 4.73643,18.36955 6.62263,20.40977 2.3442,2.53562 2.74451,4.66533 3.11321,16.5625 0.2327,7.509 0.86107,13.65273 1.39639,13.65273 0.53531,0 2.33156,-2.10938 3.99165,-4.6875 z M 66.71875,95.252817 C 67.855659,93.413261 65.636517,91.456994 60.344689,89.63381 54.335818,87.563585 53.75,87.836701 53.75,92.708334 c 0,3.411026 0.227821,3.541666 6.176229,3.541666 3.396926,0 6.45356,-0.448733 6.792521,-0.997183 z"
       id="path3428"
       inkscape:connector-curvature="0" />
    <path
       style="fill:#8fc9f4"
       d="m 38.125,637.44529 c -4.8125,-1.27001 -9.812989,-2.33975 -11.112196,-2.3772 -1.299209,-0.0375 -3.043378,-0.99967 -3.87593,-2.13824 -0.832554,-1.13859 -2.582065,-2.15284 -3.887804,-2.25389 C 14.665176,630.32123 10,626.17318 10,622.45215 c 0,-5.72329 5.071703,-10.46467 13.784955,-12.88718 13.139895,-3.65321 19.265004,-7.53933 27.406126,-17.38803 10.859468,-13.1372 13.69772,-18.99209 15.079399,-31.10651 0.645341,-5.65828 2.577295,-16.792 4.293233,-24.7416 1.715936,-7.9496 4.528245,-21.90422 6.249573,-31.01024 1.72133,-9.10603 4.345486,-18.93956 5.831462,-21.85231 2.569891,-5.0374 2.670912,-6.48683 2.069588,-29.6936 -0.37334,-14.40824 -0.136235,-25.67718 0.579094,-27.52268 0.666202,-1.71875 1.970491,-6.65091 2.89842,-10.96036 1.95441,-9.07659 15.00938,-34.02708 21.99168,-42.03023 l 4.55853,-5.22501 -2.32877,-19.9547 c -1.28082,-10.97509 -2.34778,-22.08685 -2.37103,-24.69281 -0.0252,-2.83114 -1.1228,-6.19964 -2.727,-8.36943 -2.37273,-3.20929 -2.78453,-5.92726 -3.54338,-23.38688 -0.47226,-10.86557 -1.53061,-21.38245 -2.35191,-23.37085 -0.8213,-1.9884 -2.577548,-8.45715 -3.902776,-14.375 C 93.600926,236.3965 86.245696,217.87426 80.424654,210.84159 78.816094,208.89823 77.5,206.18891 77.5,204.82091 c 0,-2.47372 -18.779421,-39.80138 -20.030394,-39.8142 -0.360466,-0.004 -3.372392,5.47766 -6.693169,12.18079 -7.334658,14.80531 -15.811043,27.81757 -20.922556,32.11864 -4.781276,4.02317 -11.923184,4.23048 -19.493324,0.56585 C 3.463332,206.5331 1.25,202.24577 1.25,192.22445 1.25,183.39572 2.5703987,178.18137 14.303686,140.67449 22.255689,115.25495 23.84621,107.22955 21.25,105.625 20.5625,105.2001 20,103.49894 20,101.84464 c 0,-1.6543 -1.6875,-5.66873 -3.75,-8.920955 -4.679357,-7.37858 -4.680178,-9.06479 -0.0066,-13.54236 l 3.743399,-3.586404 -0.804073,-15.887112 c -0.44224,-8.737913 -0.460562,-16.782287 -0.04071,-17.876388 0.970706,-2.529617 4.259512,-1.348584 5.29053,1.899868 0.632587,1.993102 1.119673,2.166528 2.610319,0.929401 3.14909,-2.613513 5.546524,1.497836 8.082118,13.859981 1.295921,6.318198 2.6749,12.003265 3.064395,12.633481 1.046906,1.69393 4.287596,1.391012 4.45743,-0.416652 0.08074,-0.859375 0.296006,-3.695298 0.478371,-6.302051 0.182364,-2.606754 1.328485,-5.841129 2.546935,-7.1875 C 48.021596,54.85179 51.25,54.158435 51.25,56.25 c 0,0.6875 0.628075,1.25 1.395721,1.25 1.37381,0 1.054333,-3.546865 -0.691425,-7.67624 -0.578577,-1.368557 0.490227,-3.597255 3.211409,-6.696511 3.060928,-3.486203 4.157359,-6.000831 4.394241,-10.078039 C 59.904531,27.118234 62.273694,21.764125 67.54662,15 69.422395,12.59375 71.300877,9.1343336 71.721025,7.3124081 72.8012,2.6283445 77.863725,1.25 93.987658,1.25 c 18.509432,0 27.637182,2.9083971 36.843062,11.739394 5.70508,5.472755 6.83628,7.348135 7.91298,13.118719 1.84286,9.87681 1.53391,20.824966 -0.73709,26.119536 C 129.82392,71.304595 129.27477,81.25 136.40409,81.25 c 1.18476,0 3.74414,1.322511 5.6875,2.938914 1.94337,1.616401 5.78341,3.238685 8.53341,3.605073 2.75,0.366389 8.19834,2.137629 12.1074,3.936088 C 166.64148,93.528534 170.3371,95 170.9449,95 c 0.60781,0 3.31572,1.88837 6.0176,4.196379 2.70187,2.308011 7.27566,5.399181 10.16397,6.869271 3.96804,2.01965 5.87285,4.07763 7.79402,8.42073 2.6567,6.0059 5.27393,9.32027 12.57951,15.93021 2.40625,2.17712 6.34375,5.97252 8.75,8.43421 2.40625,2.46169 9.71875,8.46275 16.25,13.3357 20.21741,15.08414 27.51651,24.2636 27.47295,34.55044 -0.034,8.02045 -3.70195,24.77229 -8.10439,37.01306 -1.85447,5.15625 -5.98666,16.71964 -9.18266,25.69641 -3.196,8.97678 -6.79527,17.81637 -7.9984,19.64351 -1.29799,1.97123 -2.20062,5.75442 -2.21977,9.3036 -0.0177,3.28982 -1.45918,9.91898 -3.20317,14.73148 -1.74399,4.8125 -4.72041,14.09375 -6.61426,20.625 -4.0686,14.0312 -9.2864,24.87301 -17.37929,36.11157 -3.24281,4.50328 -7.11013,10.15698 -8.59407,12.5638 l -2.69806,4.37604 4.9616,5.92609 4.96158,5.92607 6.22025,-2.45178 c 3.42113,-1.34849 7.46504,-2.45747 8.98646,-2.46439 3.22041,-0.0147 23.25631,-6.97514 33.76294,-11.72923 8.4969,-3.84471 16.82009,-11.87857 24.44814,-23.5983 4.37409,-6.72032 6.32434,-8.60828 9.91699,-9.60026 4.72007,-1.30329 7.76316,-0.0646 7.76316,3.1598 0,0.91481 1.82813,2.53206 4.0625,3.5939 2.58689,1.22936 5.37821,4.27469 7.68476,8.38406 4.20828,7.49748 10.96443,13.90459 15.62045,14.81345 2.36924,0.46248 3.64165,1.82207 4.66708,4.98685 0.77632,2.39597 2.8873,5.19944 4.69801,6.23918 3.82824,2.19824 8.2672,10.31909 8.2672,15.1244 0,6.81937 -5.04422,7.34992 -20,2.10361 -8.57529,-3.00812 -29.14244,-4.2502 -39.375,-2.37791 -8.41832,1.54034 -18.438,6.40179 -36.7475,17.82955 -11.3015,7.05376 -23.94701,16.34037 -61.63807,45.26575 -11.37067,8.72621 -13.23309,9.7336 -16.89624,9.13916 -5.76693,-0.93585 -11.21265,-5.16541 -15.38831,-11.95171 -3.38752,-5.50542 -9.72523,-11.3697 -12.28759,-11.3697 -0.65117,0 -3.80114,4.35937 -6.99994,9.6875 -6.28791,10.47355 -6.29309,10.5222 -2.55824,24.02241 1.03999,3.7592 1.89089,9.28227 1.89089,12.27348 0,6.27936 -5.00139,26.90424 -9.25574,38.16903 -4.56692,12.09247 -21.554164,49.11107 -27.921974,60.84758 -4.333383,7.98686 -6.005978,12.6424 -6.736306,18.75 -2.613555,21.85669 -3.867999,29.50526 -5.466711,33.33153 -1.790718,4.28578 -1.689981,4.24695 -12.56787,4.84447 -2.102981,0.1155 -6.884231,0.90354 -10.625,1.75116 -3.74077,0.84762 -7.645149,1.718 -8.676399,1.93419 -1.03125,0.21618 -5.8125,-0.64605 -10.625,-1.91606 z M 218.09719,240.836 c 3.07042,-6.16153 3.15281,-7.015 3.15281,-32.65989 l 0,-26.33302 -12.1875,-2.7228 c -6.70313,-1.49754 -12.58345,-2.33192 -13.06738,-1.85416 -0.48393,0.47773 1.01832,9.30393 3.33834,19.61375 4.56768,20.29811 5.4133,23.12012 6.92799,23.12012 2.14396,0 3.73855,8.4261 3.73855,19.75526 0,11.75848 0.0257,11.85892 2.47219,9.6449 1.35971,-1.23051 3.89096,-5.08438 5.625,-8.56416 z M 66.622687,95.460646 C 68.172504,93.910829 65.008796,90.283547 61.597172,89.69875 59.687477,89.371403 57.140625,88.682588 55.9375,88.16805 54.085565,87.376039 53.75,87.924174 53.75,91.741264 l 0,4.508736 6.041666,0 c 3.322918,0 6.396876,-0.355209 6.831021,-0.789354 z"
       id="path3426"
       inkscape:connector-curvature="0" />
    <path
       style="fill:#79c1f6"
       d="m 35.625,636.8458 c -3.4375,-0.95451 -7.234375,-1.76029 -8.4375,-1.79064 C 25.984375,635.02482 23.875,633.875 22.5,632.5 c -1.375,-1.375 -3.625,-2.5 -5,-2.5 -1.375,0 -2.5,-0.4969 -2.5,-1.10421 0,-0.60732 -1.125,-1.3984 -2.5,-1.75798 -1.836861,-0.48035 -2.5,-1.70501 -2.5,-4.61694 0,-5.6191 5.31207,-10.45742 14.373496,-13.09166 9.197272,-2.67371 17.852568,-7.01921 21.646094,-10.86769 11.186911,-11.34896 20.238299,-27.16365 20.217174,-35.32367 -0.0072,-2.81207 1.929395,-14.67535 4.303724,-26.36285 2.374327,-11.6875 5.531976,-27.43686 7.016997,-34.99857 1.485021,-7.56172 3.62647,-15.43672 4.758776,-17.5 1.6703,-3.04362 2.190277,-9.05799 2.755895,-31.87643 0.485875,-19.60138 1.313153,-30.65676 2.729729,-36.47893 2.36192,-9.70756 16.487305,-36.28191 23.002105,-43.27429 3.82774,-4.10835 4.22769,-5.17722 3.60027,-9.62178 -1.73517,-12.29177 -4.38352,-36.62273 -4.3934,-40.36311 -0.006,-2.26221 -1.22378,-5.75368 -2.70623,-7.7588 -2.4284,-3.28459 -2.72205,-5.41529 -2.96472,-21.51189 -0.15571,-10.32876 -0.90255,-19.44826 -1.77025,-21.6162 -0.8255,-2.0625 -3.162965,-10.74101 -5.194365,-19.28559 C 93.53816,236.44946 85.683749,217.03402 80.49875,210.872 78.849437,208.9119 77.5,205.88154 77.5,204.13785 c 0,-1.7437 -2.721305,-8.02866 -6.047344,-13.9666 C 68.126618,184.23331 63.891389,176.14062 62.041038,172.1875 60.190685,168.23437 58.200866,165 57.619216,165 c -0.581651,0 -3.418851,4.92109 -6.30489,10.93576 -6.228187,12.97989 -17.583771,30.41484 -22.147771,34.00488 -6.777181,5.33093 -21.6243161,1.549 -26.0291405,-6.63027 C -0.41675666,196.71067 1.0344146,182.78932 7.261214,163.75 21.0057,121.72428 24.410219,107.57812 21.25,105.625 20.5625,105.2001 20,103.46823 20,101.77639 20,100.08455 18.616196,96.508234 16.924881,93.829018 11.954688,85.955721 11.833712,83.606072 16.183952,79.438277 l 3.807799,-3.648102 -0.723027,-17.133183 c -0.768288,-18.205677 -0.02366,-20.975181 4.196893,-15.609613 1.882778,2.393562 2.751848,2.740943 3.938823,1.57441 2.322458,-2.282463 5.87572,2.859936 6.923938,10.020552 C 36.342476,68.401105 37.637371,72.5 39.969844,72.5 42.614589,72.5 43.75,70.1124 43.75,64.550899 43.75,60.025016 46.746774,55 49.44588,55 c 0.992266,0 1.80412,0.95625 1.80412,2.125 0,1.66636 0.327514,1.797486 1.517457,0.607542 1.181737,-1.181736 1.187663,-2.391183 0.02679,-5.466696 -1.577914,-4.180372 -1.422289,-4.60238 3.960238,-10.738906 1.406202,-1.603187 2.605087,-4.929259 2.74285,-7.609499 C 59.751584,28.970776 63.348423,20.838914 68.141231,14.375 69.670518,12.3125 71.273466,9.1343336 71.70334,7.3124081 72.807431,2.6329706 77.87333,1.25 93.91028,1.25 c 18.12764,0 26.95129,2.8201406 36.62059,11.704368 6.13164,5.633786 7.14004,7.245772 8.22857,13.153744 2.15285,11.684575 1.5196,19.214542 -2.54237,30.231195 -5.48197,14.867917 -6.29055,19.249523 -4.12327,22.343739 0.98887,1.411825 2.80892,2.566954 4.04455,2.566954 1.23562,0 3.76396,1.40625 5.61852,3.125 1.88519,1.747138 4.85919,3.116843 6.74503,3.1065 4.91125,-0.02694 24.36941,8.425048 29.88684,12.98185 2.60493,2.15141 6.75211,4.93424 9.21594,6.18407 3.05876,1.55162 5.37862,4.1288 7.31378,8.125 3.12126,6.44553 4.62507,8.3588 11.84008,15.06407 2.68595,2.49618 7.18595,6.84705 10,9.6686 2.81406,2.82153 10.46021,9.09852 16.99146,13.94885 18.81066,13.96944 26.25,23.1051 26.25,32.23554 0,8.43179 -3.27111,23.36642 -8.14843,37.20255 -2.46865,7.00313 -6.78946,19.48297 -9.6018,27.73297 -2.81233,8.25 -6.15653,16.49309 -7.43156,18.31796 -1.40952,2.0174 -2.31821,5.48878 -2.31821,8.85605 0,5.16168 -3.64436,18.55195 -6.51457,23.93609 -0.69198,1.29806 -2.58904,7.33327 -4.2157,13.41159 -3.73626,13.96115 -8.55574,23.58105 -19.41408,38.75132 -4.73311,6.61266 -8.60565,12.29251 -8.60565,12.62189 0,0.32938 2.42964,3.28289 5.3992,6.56335 5.37547,5.93829 5.41546,5.95607 9.10569,4.04779 2.03857,-1.05419 5.93706,-2.29269 8.66331,-2.75223 7.80632,-1.31584 20.22893,-5.48217 32.4568,-10.88551 12.28256,-5.42749 18.3584,-10.78769 27.49421,-24.25579 6.21692,-9.16505 7.73336,-10.39807 12.84923,-10.44776 3.21393,-0.0312 4.34382,0.61881 5.2588,3.02537 0.64095,1.68583 2.87151,3.94742 4.9568,5.02577 2.08529,1.07835 4.9217,4.17612 6.30314,6.88396 3.14236,6.15955 11.67057,14.19866 15.93928,15.02515 2.31885,0.44896 3.63793,1.84342 4.6833,4.95094 0.80039,2.37927 2.9641,5.19177 4.80825,6.25 3.91899,2.24883 8.33199,10.33621 8.33199,15.26938 0,6.1189 -3.69764,6.74982 -16.05951,2.74017 -9.80215,-3.17939 -12.5277,-3.5117 -29.09011,-3.54679 l -18.27463,-0.0387 -10.95396,5.55417 c -16.30971,8.26979 -50.17968,31.08228 -66.87179,45.04024 -1.71875,1.43723 -8.75,6.94084 -15.625,12.23026 -10.1475,7.8072 -13.3296,9.61728 -16.90806,9.61783 -5.72331,8.9e-4 -11.71636,-4.3101 -16.26206,-11.6978 -3.37467,-5.48449 -9.72307,-11.36965 -12.26464,-11.36965 -1.46633,0 -11.17623,15.38786 -12.14464,19.24635 -0.39787,1.58524 0.22765,6.15377 1.39006,10.1523 4.16755,14.3359 3.09375,25.87825 -4.56019,49.01779 -4.40748,13.32478 -26.87712,63.19364 -31.87915,70.75221 -2.396006,3.62061 -3.681383,7.66894 -4.415551,13.90686 -2.260074,19.20295 -4.500337,32.72143 -5.836198,35.2175 -1.376492,2.572 -10.295824,5.0954 -12.718355,3.59819 -0.589657,-0.36442 -4.32996,0.18597 -8.311784,1.2231 -8.777523,2.28626 -15.30767,2.28114 -23.589432,-0.0185 z M 218.18145,241.13426 c 3.47987,-6.86202 3.58016,-7.9844 3.29317,-36.85759 L 221.25,181.67836 209.0625,179.0502 c -6.70313,-1.44549 -12.60905,-2.21719 -13.12429,-1.71489 -0.87062,0.84876 1.4578,13.28934 6.11364,32.66469 1.07382,4.46875 2.71684,8.73334 3.65114,9.47687 3.10556,2.47144 4.29701,8.06495 4.29701,20.17324 l 0,11.98736 2.63511,-2.38123 c 1.4493,-1.30969 3.94516,-4.96457 5.54634,-8.12198 z M 67.5,94.625 C 67.5,92.140936 64.814581,90 61.698771,90 60.158095,90 58.549899,89.4375 58.125,88.75 55.862897,85.089842 51.669032,90.130064 53.344233,94.495565 54.254755,96.86835 67.5,96.98946 67.5,94.625 Z"
       id="path3424"
       inkscape:connector-curvature="0" />
    <path
       style="fill:#5bb3f4"
       d="m 36.25,636.62825 c -3.78125,-1.07647 -7.979911,-2.00375 -9.330358,-2.0606 -1.350446,-0.0569 -3.459821,-1.10782 -4.6875,-2.33551 C 21.004464,631.00446 18.875,630 17.5,630 c -1.375,0 -2.5,-0.5625 -2.5,-1.25 0,-0.6875 -0.78277,-1.25 -1.73949,-1.25 -2.979049,0 -3.5962459,-6.06816 -1.060005,-10.42178 1.939694,-3.32961 4.291588,-4.65627 14.909049,-8.40996 16.598255,-5.86812 18.278881,-7.3051 32.397005,-27.70015 5.15777,-7.45092 5.924127,-9.4409 6.739397,-17.5 1.781342,-17.60892 14.284665,-77.05147 16.945701,-80.56222 1.340855,-1.76902 1.737755,-8.15192 1.768589,-28.44214 0.02186,-14.38869 0.565403,-27.88869 1.207863,-30 0.642458,-2.11131 1.786749,-6.91835 2.542865,-10.68231 1.492468,-7.42954 14.677106,-31.7431 22.176216,-40.89478 l 4.34747,-5.30551 -1.92217,-14.72808 c -1.0572,-8.10043 -2.30503,-19.49852 -2.77297,-25.32907 -0.55236,-6.8824 -1.47256,-11.05565 -2.62331,-11.8971 -2.55,-1.86461 -4.47098,-17.16156 -3.55419,-28.30253 0.60651,-7.37052 0.32261,-10.65187 -1.24373,-14.375 -1.1163,-2.65341 -3.69549,-11.81252 -5.731531,-20.3536 C 93.629119,236.8327 85.5622,216.46559 81.263871,211.8892 c -1.298791,-1.38281 -2.891705,-4.87483 -3.539807,-7.76005 -0.648103,-2.88521 -3.695084,-9.63521 -6.771069,-15 -3.075986,-5.36478 -7.151819,-13.2586 -9.057405,-17.54181 -1.905587,-4.28322 -3.89872,-7.51943 -4.429185,-7.19158 -0.530464,0.32785 -3.514519,5.80104 -6.631232,12.16266 -11.547064,23.56905 -21.669043,35.92472 -29.440148,35.9369 -5.881804,0.009 -12.8304771,-3.0015 -16.455047,-7.12966 C 1.6923847,201.66686 1.2525682,200.2316 1.2714221,193.394 1.296434,184.3231 3.1747124,176.81471 13.690251,143.75 21.5202,119.12976 24.076225,106.1217 21.408064,104.47269 20.633629,103.99406 20,102.67352 20,101.53815 20,100.40278 18.178409,95.960474 15.952019,91.666365 L 11.904037,83.858895 16.13186,79.49689 20.359682,75.134884 19.713185,58.192441 C 19.192784,44.55455 19.392936,41.25 20.739364,41.25 c 0.919972,0 2.294196,1.161319 3.05383,2.580709 1.013607,1.893943 1.801051,2.232223 2.959036,1.271181 3.226456,-2.677721 5.651176,1.499204 8.25132,14.214072 1.399271,6.84253 3.236527,12.87891 4.08279,13.414178 2.318354,1.466379 4.66366,-2.541175 4.66366,-7.969052 0,-3.094422 0.87515,-5.636238 2.5,-7.261088 2.96792,-2.96792 5,-3.22193 5,-0.625 0,2.475042 2.028705,2.406155 2.991006,-0.101563 0.417164,-1.087109 -0.0584,-3.142826 -1.056815,-4.568258 -2.109426,-3.011628 -0.840896,-6.363864 3.785158,-10.002718 2.159066,-1.698323 2.822317,-3.501316 2.822317,-7.67224 0,-5.638743 4.549313,-16.389762 8.226853,-19.441848 1.079946,-0.896277 2.545807,-3.791973 3.257467,-6.4348809 1.097408,-4.0754602 2.000558,-5.0015358 5.946473,-6.0974183 2.558897,-0.7106723 10.392579,-1.2952685 17.40818,-1.2991027 10.241541,-0.0056 14.337401,0.5671783 20.780951,2.9060597 9.41673,3.4180897 19.27652,11.0352182 21.65607,16.7302702 2.35405,5.634045 2.25344,28.607309 -0.14544,33.206203 -0.99679,1.910976 -3.00726,7.732877 -4.4677,12.937557 l -2.65533,9.463057 2.8183,2.999941 c 1.55006,1.649967 3.6159,2.999941 4.59073,2.999941 0.97485,0 3.14337,1.078355 4.81892,2.396345 1.67555,1.317989 5.42052,2.785114 8.32216,3.260277 7.79221,1.27603 21.89649,7.583915 27.83131,12.447058 2.85938,2.34304 7.17532,5.20258 9.59097,6.35452 3.20661,1.52913 5.09946,3.71443 7.01277,8.09628 2.4454,5.60043 7.28929,11.25711 17.76131,20.74158 2.38114,2.15659 4.95235,4.68784 5.71381,5.625 0.76147,0.93716 7.1698,5.92269 14.24075,11.07894 14.83203,10.81575 25.71504,22.75346 27.00324,29.62019 1.21774,6.49107 -2.47642,26.03361 -7.75121,41.00481 -2.42228,6.875 -6.65829,18.96875 -9.41338,26.875 -2.75507,7.90625 -6.09158,16.22795 -7.41445,18.49266 -1.32286,2.26471 -2.65313,7.38839 -2.95617,11.38594 -0.30304,3.99756 -2.23211,11.70711 -4.28683,17.13235 -2.05472,5.42522 -4.93723,14.36405 -6.40558,19.86405 -3.1422,11.76977 -9.21245,23.45319 -19.80825,38.125 -4.22029,5.84375 -7.68323,11.22669 -7.69542,11.96208 -0.0125,0.73539 1.24345,2.44366 2.79033,3.79613 1.54687,1.35248 3.71325,3.82706 4.81416,5.49906 1.98173,3.00972 2.05024,3.01919 6.875,0.95088 2.68034,-1.14903 8.11145,-2.71908 12.06914,-3.48899 3.95769,-0.76991 11.70769,-3.04648 17.22224,-5.05905 21.45271,-7.82927 28.5599,-13.12719 39.78511,-29.65706 5.77459,-8.50345 8.63425,-10.59889 13.67116,-10.01761 2.34705,0.27085 3.49253,1.20932 3.7591,3.07978 0.22953,1.61045 1.89233,3.31524 4.14284,4.24743 2.28337,0.9458 5.07751,3.8401 7.11657,7.37166 4.07647,7.06025 12.26782,14.65399 16.45209,15.25183 2.2596,0.32283 3.39193,1.56024 4.28308,4.68052 0.78336,2.74281 2.67533,5.10539 5.35422,6.68598 2.27854,1.34436 4.14279,3.44486 4.14279,4.66777 0,1.22291 0.84375,2.92373 1.875,3.77959 2.70571,2.24554 2.42591,9.6172 -0.42291,11.14185 -2.6045,1.39387 -4.96804,0.98856 -16.45209,-2.82134 C 314.42814,384.80732 310.218,384.375 295,384.375 l -18.125,0 -9.375,4.49461 c -18.89946,9.06086 -41.88141,24.8645 -82.5,56.73149 -15.79821,12.39436 -17.13241,12.90497 -24.45614,9.35963 -4.0895,-1.97969 -7.01562,-4.68659 -9.94041,-9.19564 -2.27971,-3.51455 -6.13644,-7.94168 -8.57051,-9.83805 l -4.42558,-3.44795 -5.13816,7.56627 c -7.59581,11.18533 -8.11574,13.41528 -5.5597,23.84544 3.10591,12.67393 2.00016,27.99482 -3.19248,44.2342 -4.56826,14.28669 -26.817844,64.39049 -32.750142,73.75 -2.870899,4.52948 -4.217205,8.48668 -4.890614,14.375 -1.906611,16.6715 -4.784228,33.83581 -6.077856,36.25298 -1.071682,2.00245 -2.627447,2.49996 -7.854888,2.51186 -3.585186,0.008 -9.61227,0.84524 -13.39352,1.86016 -8.579084,2.30272 -13.743596,2.24609 -22.5,-0.24675 z M 218.70364,240.44976 c 2.73002,-5.46634 2.87916,-7.12392 2.89223,-32.14432 l 0.0138,-26.38078 -12.73101,-2.99449 c -7.00206,-1.64696 -13.08024,-2.64525 -13.50707,-2.21841 -1.58143,1.58143 8.12795,40.55043 11.11067,44.59314 2.49401,3.38035 2.91262,5.49899 3.03689,15.37044 0.0793,6.29731 0.2199,12.25083 0.3125,13.23005 0.26755,2.82927 5.54649,-2.79693 8.872,-9.45563 z M 67.5,94.448771 C 67.5,92.322434 65.920366,91.194085 60,89.091441 54.166015,87.019476 54.140097,87.02556 53.222267,90.682486 52.040121,95.392529 53.191603,96.25 60.698771,96.25 65.787174,96.25 67.5,95.796378 67.5,94.448771 Z"
       id="path3422"
       inkscape:connector-curvature="0" />
    <path
       style="fill:#30a4f6"
       d="m 36.25,636.62825 c -3.78125,-1.07647 -8,-1.99263 -9.375,-2.03588 -1.375,-0.0432 -3.235021,-1.09423 -4.13338,-2.33551 C 21.843261,631.01559 20.408529,630 19.553326,630 c -0.855204,0 -3.068919,-0.70313 -4.919367,-1.5625 -2.648766,-1.23013 -3.366529,-2.43604 -3.374207,-5.66898 -0.01687,-7.10377 2.928573,-9.86911 14.170475,-13.30397 11.668079,-3.56507 20.925378,-8.9728 24.092284,-14.07367 1.200565,-1.93374 3.448877,-4.92213 4.996248,-6.64088 1.547372,-1.71875 4.734473,-6.32501 7.082448,-10.23615 3.430258,-5.71394 4.421547,-8.90676 5.045208,-16.25 0.426891,-5.02636 2.708374,-18.4201 5.069963,-29.76385 2.361588,-11.34375 5.245983,-25.67606 6.409766,-31.84959 1.163784,-6.17352 3.226521,-13.40145 4.583861,-16.06206 2.225726,-4.36278 2.466783,-7.40432 2.456581,-30.99606 -0.0086,-19.94283 0.415778,-27.18078 1.786052,-30.4603 0.98855,-2.36593 1.797362,-6.00987 1.797362,-8.09764 0,-5.70562 13.65264,-31.3001 22.91469,-42.95798 l 3.53969,-4.45529 -1.9278,-16.62304 c -1.06029,-9.14268 -2.29739,-20.56054 -2.74911,-25.37304 -0.45172,-4.8125 -1.63307,-9.67574 -2.62521,-10.80721 -2.56692,-2.92737 -4.43032,-17.71846 -3.47364,-27.57269 0.64895,-6.68459 0.29139,-9.97209 -1.76743,-16.25 -1.41953,-4.32856 -3.980083,-13.86029 -5.690121,-21.18163 -3.285288,-14.06558 -11.600678,-34.29875 -16.530323,-40.22188 -1.61741,-1.94336 -2.955545,-4.75586 -2.973632,-6.25 -0.01809,-1.49413 -2.332293,-6.93534 -5.142679,-12.09159 -2.810386,-5.15625 -7.121959,-13.45313 -9.581273,-18.4375 -2.459312,-4.98438 -4.810645,-9.0625 -5.225181,-9.0625 -0.414536,0 -3.26004,5.1694 -6.323342,11.48755 -11.626779,23.98058 -22.456404,37.28857 -30.300634,37.235 C 15.869209,212.43822 7.6699464,208.74815 4.375,205.03819 2.2600011,202.65679 1.8939536,200.56021 1.9980754,191.42414 2.107337,181.83707 2.9730211,177.95935 9.7110186,156.875 22.357912,117.3007 22.877702,115.20629 22.040417,107.19558 21.56808,102.6765 20.103536,98.134205 18.090814,94.945845 12.153854,85.541094 11.981082,83.987766 16.411632,79.849012 L 20.346896,76.172926 19.718935,58.711462 C 19.215429,44.710684 19.420075,41.25 20.751508,41.25 c 0.913292,0 2.222906,1.050805 2.910252,2.335121 0.85921,1.605449 2.194256,2.154561 4.272458,1.757288 3.871841,-0.740149 4.193082,-0.130144 6.508503,12.359017 2.532304,13.659005 2.792994,14.429686 5.192425,15.350435 2.771084,1.063364 4.07286,-1.396505 4.095713,-7.739361 0.01352,-3.753102 0.808804,-6.102162 2.709336,-8.002695 2.624269,-2.624269 2.732694,-2.632076 4.424356,-0.31859 1.495239,2.044861 1.89777,2.11412 2.921675,0.502696 C 54.439357,56.46601 54.626063,54.78125 54.201124,53.75 52.102551,48.657131 52.456995,46.754011 56.165311,43.203636 59.295269,40.206988 60,38.532349 60,34.091339 60,28.52295 63.436018,20.145971 67.581404,15.607941 68.846006,14.223559 70.738891,11.036894 71.787815,8.526465 74.224964,2.693547 77.977775,1.5036224 94.375,1.3646207 c 10.16404,-0.086162 14.05923,0.4485215 20.84364,2.8611519 8.19385,2.9138535 19.92198,11.3220964 21.73755,15.5842874 0.48378,1.135717 1.15193,8.284849 1.4848,15.886959 0.52845,12.069396 0.28976,14.446883 -1.88248,18.75 -1.36821,2.71039 -3.4237,8.700307 -4.56775,13.310927 -2.35127,9.475866 -1.33864,12.957569 4.17553,14.356404 1.67271,0.424334 4.98559,2.090946 7.36193,3.703583 2.37635,1.612637 5.87075,2.932067 7.76533,2.932067 4.58427,0 21.02802,7.008599 24.95645,10.636854 1.71875,1.587416 5.9375,4.515716 9.375,6.507316 4.75095,2.75259 6.97253,5.10334 9.26244,9.80097 2.77459,5.6919 17.75546,21.80486 20.27287,21.80486 0.59933,0 1.08969,0.74644 1.08969,1.65874 0,0.9123 5.72732,5.80958 12.72739,10.88286 14.66612,10.62922 25.1075,20.76422 28.75231,27.90866 2.10274,4.12169 2.39859,6.30311 1.7062,12.58051 -1.13845,10.32171 -4.86655,24.61757 -10.22154,39.19577 -2.45435,6.68165 -6.36779,17.72076 -8.6965,24.53135 -2.32872,6.81059 -5.06145,13.29717 -6.07274,14.41462 -1.01128,1.11746 -2.10868,5.38891 -2.43866,9.49211 -0.66161,8.22717 -2.5324,15.51824 -5.4218,21.13059 -1.03925,2.01861 -3.20121,8.5715 -4.80436,14.56197 -3.90994,14.61016 -8.92995,24.84788 -19.33709,39.43572 -4.78127,6.70197 -8.66922,12.78091 -8.63991,13.50875 0.0292,0.72784 2.23456,3.80749 4.90055,6.84365 l 4.84726,5.5203 5.41194,-2.01466 c 2.97657,-1.10808 7.66195,-2.40429 10.41195,-2.88049 7.32697,-1.26875 25.04201,-7.69048 34.375,-12.46099 9.48602,-4.84872 13.76396,-8.7261 20.625,-18.69369 2.75,-3.99516 6.5036,-8.86183 8.34135,-10.81485 4.25791,-4.52498 9.28918,-4.75381 11.2226,-0.51041 0.76194,1.67229 2.98211,3.70191 4.93371,4.5103 2.05248,0.85017 4.96423,3.91582 6.90692,7.27198 4.50925,7.79015 10.91991,13.9077 16.06182,15.32745 3.2331,0.8927 4.4117,2.01829 5.02177,4.7959 0.44871,2.04294 2.6745,5.06135 5.09199,6.90526 2.36217,1.8017 4.29484,4.02208 4.29484,4.93416 0,0.91208 0.84375,2.35858 1.875,3.21444 1.93673,1.60734 2.44323,5.81478 1.11626,9.27276 -1.11583,2.90784 -7.51666,2.48128 -19.48106,-1.29828 -9.57129,-3.02357 -11.66877,-3.23403 -27.26854,-2.73618 l -16.89967,0.53934 -10.53641,5.36856 c -5.79503,2.95271 -16.19384,9.02558 -23.10849,13.49524 -13.71234,8.86373 -43.94354,30.97102 -46.94709,34.33117 -3.27167,3.66012 -24.08126,18.52134 -26.14471,18.67133 -7.62426,0.5542 -13.86716,-3.3266 -18.9814,-11.79946 -2.14775,-3.55822 -5.77994,-7.68893 -8.07155,-9.17935 -4.85913,-3.1603 -4.62949,-3.32785 -12.11219,8.83715 -5.17878,8.4194 -5.53836,10.98747 -2.80162,20.00888 3.89831,12.8504 1.60796,31.44188 -6.56424,53.28404 -4.80488,12.84218 -25.552031,58.05315 -29.503842,64.29304 -2.779088,4.38815 -4.174644,8.42709 -4.750985,13.75 -1.158677,10.70117 -3.407565,25.29849 -4.945925,32.1035 -1.439977,6.3698 -2.854224,7.24927 -11.748538,7.30602 -2.75,0.0175 -8.09375,0.86232 -11.875,1.87724 -8.52776,2.28895 -12.505272,2.24276 -21.25,-0.24675 z M 216.42646,244.67247 c 1.81234,-2.91361 3.72373,-6.70372 4.24753,-8.42247 0.5238,-1.71875 1.00831,-14.72195 1.07668,-28.896 l 0.12438,-25.77101 -12.83794,-2.84939 c -7.06086,-1.56717 -13.19157,-2.49576 -13.6238,-2.06353 -0.43222,0.43223 1.03809,9.37391 3.26736,19.87041 2.90707,13.68786 4.95994,20.42161 7.25967,23.81296 2.8345,4.17992 3.23647,6.13745 3.46535,16.875 0.1424,6.68061 0.33438,12.55079 0.42663,13.04483 0.37814,2.02513 3.50002,-0.62646 6.59419,-5.60079 z M 67.5,94.528056 c 0,-2.216287 -1.967921,-3.612927 -7.966751,-5.654027 -5.158387,-1.75514 -6.970378,-0.791514 -7.014108,3.730137 C 52.489045,95.716025 53.706758,96.25 60.833334,96.25 65.662561,96.25 67.5,95.775405 67.5,94.528056 Z"
       id="path3420"
       inkscape:connector-curvature="0" />
    <path
       style="fill:#0095fd"
       d="m 36.473344,636.1726 c -5.033412,-1.29974 -9.544275,-2.23591 -10.024143,-2.08038 -0.479866,0.15553 -2.212434,-0.9634 -3.850147,-2.4865 -1.637715,-1.5231 -3.439088,-2.4841 -4.003052,-2.13554 -0.563963,0.34854 -2.447526,-0.2981 -4.185695,-1.43699 -4.202363,-2.75349 -4.320631,-9.00734 -0.242788,-12.83828 1.604635,-1.50747 7.37026,-4.18745 12.8125,-5.9555 12.519731,-4.06736 16.858661,-6.74799 22.707182,-14.02867 2.57829,-3.20966 4.969049,-6.11699 5.312799,-6.46074 5.41069,-5.41069 10.799195,-17.20199 11.710363,-25.625 0.446226,-4.125 2.732651,-17.0625 5.080943,-28.75 2.348293,-11.6875 5.19839,-26.3125 6.333552,-32.5 1.135161,-6.1875 3.50913,-14.34041 5.275486,-18.11759 3.194098,-6.83026 3.207734,-6.99945 2.508366,-31.12641 -0.430406,-14.84829 -0.221548,-25.51901 0.538404,-27.50741 0.682876,-1.78673 1.808361,-6.34234 2.501078,-10.12359 1.428153,-7.79567 15.363638,-34.04333 21.981018,-41.4015 4.51466,-5.02006 4.89149,-7.80059 2.80194,-20.67491 -0.68748,-4.23578 -1.75432,-13.97566 -2.37075,-21.64419 -0.72672,-9.04054 -1.76312,-14.68318 -2.94771,-16.04859 -2.85,-3.28507 -3.60959,-8.41523 -3.54709,-23.95653 0.0445,-11.06695 -0.51142,-16.13496 -2.40222,-21.89928 -1.35307,-4.125 -3.813995,-13.19602 -5.468724,-20.15784 C 93.733907,235.49846 84.867104,213.89844 81.095011,210.48474 79.805255,209.31753 78.75,206.9513 78.75,205.22648 c 0,-1.72483 -2.971644,-8.52828 -6.603654,-15.11877 C 68.514337,183.51722 63.997,174.89062 62.107817,170.9375 60.218636,166.98437 58.13338,163.75 57.473916,163.75 c -0.659465,0 -2.918911,3.79312 -5.020991,8.42916 -9.337846,20.59418 -21.977064,38.21053 -28.27932,39.41528 C 18.8938,212.60374 8.5384057,209.38065 5.4225263,205.75822 1.849623,201.60449 0.69517881,193.5659 2.3702398,184.50466 3.1037814,180.53657 7.8999384,163.69659 13.028366,147.08248 22.938825,114.97644 24.7736,107.03016 22.588199,105.67951 21.85219,105.22463 21.25,103.44187 21.25,101.71783 21.25,99.993779 19.848417,96.745626 18.135372,94.499707 16.422326,92.253789 14.666218,88.64359 14.232909,86.477044 13.570014,83.16257 14.0504,81.972409 17.262076,78.972254 L 21.079079,75.40664 20.507016,62.39082 C 20.192381,55.232119 19.703704,47.546875 19.421065,45.3125 c -0.598301,-4.729819 2.130681,-5.669975 4.361085,-1.502428 0.899894,1.681467 2.141404,2.315273 3.617501,1.846778 3.314793,-1.052075 4.569588,1.312329 6.913629,13.027305 2.472436,12.35667 3.834027,15.36372 6.70856,14.815736 1.535312,-0.292682 2.276961,-2.123494 2.746875,-6.780844 C 44.428035,60.184479 46.553363,56.25 49.423889,56.25 c 0.889777,0 1.838475,0.662091 2.108216,1.471314 C 52.255187,59.890561 55,57.736661 55,55 c 0,-1.293851 -0.5625,-2.700101 -1.25,-3.125 -2.394361,-1.479796 -1.22222,-5.161509 2.922092,-9.178335 3.391214,-3.286893 4.13142,-4.912013 3.954784,-8.682709 C 60.391438,28.988006 63.114963,22.580571 68.854573,14.65727 70.859557,11.889468 72.5,8.570378 72.5,7.2815134 72.5,4.0002839 76.35415,2.8702176 91.113778,1.8238114 102.6377,1.0068053 104.87684,1.2149901 113.39337,3.8952601 125.3449,7.6565766 135.71834,16.454622 137.54022,24.375 c 2.04009,8.868918 1.45664,23.849498 -1.15676,29.701122 C 133.35994,60.846047 130,71.672083 130,74.644239 130,78.191042 133.59427,82.5 136.55281,82.5 c 1.46359,0 3.85159,1.118443 5.30668,2.485429 1.45508,1.366986 5.42885,3.01748 8.83056,3.667765 7.96696,1.522992 24.21001,8.968161 27.43495,12.575096 1.375,1.53787 4.87949,3.91609 7.78775,5.28494 3.99998,1.88269 5.97505,3.90414 8.10992,8.30029 3.64709,7.51014 21.97174,25.81167 37.99159,37.94363 13.61198,10.30845 23.62053,20.54985 26.30067,26.91254 2.13233,5.06217 1.30456,12.75801 -3.26236,30.33031 -3.57875,13.77006 -15.76333,48.30322 -20.07957,56.90889 -1.38864,2.76862 -2.84535,8.11237 -3.23714,11.875 -0.8107,7.78575 -2.31632,13.38527 -5.54296,20.61467 -1.23318,2.76295 -3.44483,9.73404 -4.91477,15.4913 -3.37888,13.23374 -8.07268,22.5998 -18.92248,37.75815 -4.73311,6.61266 -8.58886,12.80016 -8.56835,13.75 0.0205,0.94985 2.21622,4.24825 4.87935,7.3298 l 4.84206,5.60281 6.05814,-2.17148 c 3.33199,-1.19433 7.03411,-2.16873 8.22697,-2.16533 3.53447,0.01 28.33422,-8.64626 36.32001,-12.67747 8.61894,-4.35083 15.81304,-11.36304 23.37901,-22.78791 3.63932,-5.4955 6.6381,-8.60242 9.14726,-9.47712 5.26554,-1.83557 5.77086,-1.69825 7.15589,1.94465 0.67876,1.78528 2.35233,3.53838 3.71906,3.89579 1.36672,0.3574 2.48495,1.14672 2.48495,1.75404 0,0.60731 0.75833,1.10421 1.68516,1.10421 0.92683,0 2.6437,2.12569 3.81526,4.72375 2.51767,5.58318 11.75618,15.06108 15.20313,15.59705 3.87068,0.60188 5.17396,1.87925 5.96799,5.84936 0.47032,2.35165 2.02561,4.39149 4.22395,5.53994 1.91372,0.99977 4.85297,4.36048 6.53165,7.46825 2.59816,4.81001 2.83455,6.12803 1.5893,8.86106 -1.87923,4.12445 -4.76847,4.11688 -17.94951,-0.047 -9.50544,-3.00276 -11.68622,-3.22069 -27.87703,-2.78567 -16.56321,0.44502 -18.0367,0.69395 -25.83793,4.36496 -16.73343,7.87424 -51.49242,31.68745 -79.32595,54.34584 -12.56303,10.22715 -17.93985,13.58246 -21.7656,13.58246 -4.77351,0 -11.2366,-4.7223 -15.63542,-11.42413 C 146.86354,439.0951 140.02825,432.5 137.85022,432.5 c -2.04441,0 -13.22431,18.90734 -13.20441,22.33116 0.0105,1.81162 0.93162,6.38759 2.04684,10.16884 5.21801,17.69205 0.44979,37.94074 -19.16978,81.40611 C 100.57929,561.789 92.86013,577.75 90.369182,581.875 c -3.641537,6.03038 -4.490003,8.63631 -4.330007,13.29901 0.10945,3.18945 -0.554725,7.68945 -1.47593,10 -0.921205,2.31054 -1.767351,6.73224 -1.880324,9.82599 -0.112975,3.09375 -0.828256,8.33566 -1.589519,11.6487 -1.56087,6.79295 -3.917926,8.34112 -12.737277,8.36614 -2.877119,0.009 -8.324875,0.84524 -12.106125,1.86016 -8.34823,2.24076 -8.383813,2.2395 -19.776656,-0.7024 z M 214.93535,247.5908 c 6.97701,-9.79831 7.50782,-12.6465 7.5372,-40.44253 0.0209,-19.74139 -0.3476,-26.07825 -1.53505,-26.39967 -3.8647,-1.04608 -16.99862,-3.61844 -21.25,-4.16194 -5.81454,-0.74334 -5.82637,-0.59399 -1.53586,19.37206 3.91876,18.23605 5.45457,23.02209 7.9827,24.87629 1.55069,1.13733 2.07328,4.31453 2.36449,14.375 0.51301,17.72343 1.40732,19.44364 6.43652,12.38079 z M 68.239094,95.927574 c 1.144944,-1.144945 -2.46244,-5.927052 -4.477278,-5.935275 -1.037748,-0.0042 -3.530647,-0.864929 -5.539775,-1.912653 -2.924625,-1.525139 -3.85541,-1.58591 -4.668359,-0.304799 -1.563537,2.463953 -1.238862,8.184143 0.508818,8.964429 1.84857,0.82533 13.188866,0.176025 14.176594,-0.811702 z"
       id="path3418"
       inkscape:connector-curvature="0" />
  </g>
</svg>
