<?xml version="1.0" encoding="UTF-8" standalone="no"?>
<!-- Created with Inkscape (http://www.inkscape.org/) -->

<svg
   xmlns:dc="http://purl.org/dc/elements/1.1/"
   xmlns:cc="http://creativecommons.org/ns#"
   xmlns:rdf="http://www.w3.org/1999/02/22-rdf-syntax-ns#"
   xmlns:svg="http://www.w3.org/2000/svg"
   xmlns="http://www.w3.org/2000/svg"
   xmlns:sodipodi="http://sodipodi.sourceforge.net/DTD/sodipodi-0.dtd"
   xmlns:inkscape="http://www.inkscape.org/namespaces/inkscape"
   id="svg3406"
   version="1.1"
   inkscape:version="0.91 r13725"
   width="511.9996"
   height="355.21301"
   viewBox="0 0 511.99963 355.21301"
   sodipodi:docname="silhouette-football-07.svg">
  <title
     id="title3340">Silhouette Football 07</title>
  <metadata
     id="metadata3412">
    <rdf:RDF>
      <cc:Work
         rdf:about="">
        <dc:format>image/svg+xml</dc:format>
        <dc:type
           rdf:resource="http://purl.org/dc/dcmitype/StillImage" />
        <dc:title>Silhouette Football 07</dc:title>
        <dc:date>2017-03-18</dc:date>
        <dc:creator>
          <cc:Agent>
            <dc:title>JLouis</dc:title>
          </cc:Agent>
        </dc:creator>
        <dc:rights>
          <cc:Agent>
            <dc:title>Domaine pubic</dc:title>
          </cc:Agent>
        </dc:rights>
        <dc:publisher>
          <cc:Agent>
            <dc:title>inkscape</dc:title>
          </cc:Agent>
        </dc:publisher>
        <dc:subject>
          <rdf:Bag>
            <rdf:li>silhouette</rdf:li>
            <rdf:li>soccer</rdf:li>
            <rdf:li>player</rdf:li>
            <rdf:li>sport</rdf:li>
            <rdf:li>football</rdf:li>
            <rdf:li>joueurs</rdf:li>
          </rdf:Bag>
        </dc:subject>
        <dc:description>Soccer player in silhouette - Joueur de football en silhouette</dc:description>
      </cc:Work>
    </rdf:RDF>
  </metadata>
  <defs
     id="defs3410" />
  <sodipodi:namedview
     pagecolor="#ffffff"
     bordercolor="#666666"
     borderopacity="1"
     objecttolerance="10"
     gridtolerance="10"
     guidetolerance="10"
     inkscape:pageopacity="0"
     inkscape:pageshadow="2"
     inkscape:window-width="1235"
     inkscape:window-height="756"
     id="namedview3408"
     showgrid="false"
     inkscape:zoom="1.3632824"
     inkscape:cx="109.6618"
     inkscape:cy="177.60651"
     inkscape:window-x="0"
     inkscape:window-y="0"
     inkscape:window-maximized="1"
     inkscape:current-layer="svg3406"
     fit-margin-top="0"
     fit-margin-left="0"
     fit-margin-right="0"
     fit-margin-bottom="0" />
  <g
     id="g3416"
     transform="matrix(3.8959715,0,0,3.8959715,-0.49386308,-0.2464594)">
    <path
       style="fill:#d7e4fb"
       d="m 74.008549,91.01002 c -1.564863,-0.369584 -3.359044,-1.656563 -4.778056,-3.427339 -0.947101,-1.181883 -1.86901,-1.98045 -3.15009,-2.72864 -1.036785,-0.605515 -2.054363,-1.428817 -2.38004,-1.925646 -0.429572,-0.655318 -1.010139,-1.038687 -2.370355,-1.565228 -3.244639,-1.256007 -4.102913,-1.815809 -6.231325,-4.064328 -2.059375,-2.175588 -2.096563,-2.200042 -3.967344,-2.608851 -1.038667,-0.226972 -2.680498,-0.507875 -3.64852,-0.624227 -0.96802,-0.116352 -1.861542,-0.313056 -1.985609,-0.437122 -0.124063,-0.124064 -0.292191,-1.033048 -0.373618,-2.019963 -0.137008,-1.66061 -0.07822,-1.957348 0.788531,-3.980106 1.11941,-2.612386 1.287792,-3.367036 0.909139,-4.074554 -0.196928,-0.367961 -0.209129,-0.873879 -0.0393,-1.629707 0.209697,-0.933295 0.165698,-1.230804 -0.296234,-2.003061 -0.298378,-0.498829 -0.862079,-1.169159 -1.252666,-1.489621 -0.390587,-0.320461 -0.843213,-0.985818 -1.005835,-1.478571 -0.299934,-0.90881 -0.603064,-1.117041 -0.907956,-0.623715 -0.199893,0.323429 -1.325396,0.111006 -2.83076,-0.534269 -0.85807,-0.367812 -1.309633,-0.409345 -2.364963,-0.217535 -0.745215,0.135448 -1.894443,0.144551 -2.680822,0.02124 -1.338979,-0.209972 -2.27044,-0.09892 -4.024134,0.479764 -1.329673,0.438768 -2.688575,-0.584891 -3.664785,-2.760675 -0.414591,-0.924053 -0.753804,-1.82871 -0.753804,-2.01035 0,-0.657114 -0.721694,-0.888475 -3.996444,-1.281181 -1.83267,-0.219775 -3.757115,-0.500691 -4.276545,-0.624258 -0.574501,-0.136669 -1.040164,-0.128924 -1.188863,0.01977 -0.154499,0.154499 -1.178963,0.05385 -2.784154,-0.273541 C 13.357154,48.863419 11.774275,48.55926 11.236485,48.472402 10.698695,48.385547 10.19229,48.14146 10.111141,47.929988 10.003165,47.648607 9.6102666,47.558229 8.6460841,47.592976 6.6225552,47.665905 2.2246274,47.275446 1.8642857,46.990871 1.6875,46.851258 1.5428571,46.565349 1.5428571,46.355523 c 0,-0.209829 -0.282446,-0.603679 -0.62765779,-0.875224 -0.90965883,-0.715536 -1.0101209,-1.337249 -0.41509324,-2.568814 0.48564704,-1.005174 0.49406057,-1.123292 0.11022239,-1.547429 -0.5746986,-0.635035 -0.26630532,-1.359445 0.48565334,-1.140791 0.8252639,0.239971 5.3995135,0.681238 5.545764,0.534988 0.06753,-0.06753 -0.415666,-0.624206 -1.0737681,-1.23706 -1.285397,-1.197018 -1.4053878,-1.484902 -0.821044,-1.969864 0.5607848,-0.46541 4.1997776,2.044849 5.2996413,3.655813 0.632098,0.92583 0.995311,1.222167 1.500812,1.224481 0.366794,0.0018 1.289862,0.168856 2.051262,0.371505 0.761401,0.202649 2.034258,0.444957 2.828572,0.538462 0.794314,0.09351 1.700493,0.331329 2.013732,0.528495 0.349354,0.219901 1.293728,0.360641 2.442857,0.364058 1.030333,0.0031 3.030475,0.158009 4.444761,0.34432 2.535755,0.334044 3.523477,0.339356 6.814285,0.03666 4.654775,-0.428158 6.188485,-0.634726 6.684802,-0.900347 0.930808,-0.498153 5.972127,-1.538571 7.466968,-1.541016 0.782758,-0.0013 2.098062,0.234866 2.922896,0.524772 0.824837,0.289905 1.553416,0.473389 1.619067,0.407738 0.06565,-0.06565 -0.02661,-0.389633 -0.205012,-0.719959 -0.465172,-0.861282 -0.639535,-7.363802 -0.244762,-9.127838 0.241591,-1.079547 0.553459,-1.627318 1.383956,-2.430823 1.711129,-1.655516 2.390189,-1.846358 5.93406,-1.667705 2.445572,0.123287 3.222046,0.257829 3.857143,0.668345 0.43734,0.28269 1.084453,0.703039 1.438025,0.93411 0.353571,0.231069 0.830517,0.8387 1.059881,1.350291 0.557395,1.243267 1.086271,4.487814 0.851724,5.225166 -0.103346,0.324894 -0.213033,1.468455 -0.243746,2.541247 -0.05225,1.824905 -0.343695,2.883922 -1.676114,6.090346 -0.250747,0.603417 -1.398592,1.202105 -1.813325,0.945787 -0.129559,-0.08007 -0.235563,-0.09227 -0.235563,-0.02709 0,0.06517 0.37532,0.356132 0.834048,0.646578 0.77238,0.489037 0.879657,0.498196 1.450918,0.123891 0.438614,-0.28739 0.940665,-0.359807 1.737381,-0.250606 0.665395,0.0912 1.12051,0.05114 1.12051,-0.09864 0,-0.138724 0.109754,-0.252224 0.243895,-0.252224 0.287267,0 1.556105,-1.135887 1.556105,-1.393056 0,-0.271046 3.03652,-3.040295 3.970725,-3.621229 1.895518,-1.178723 3.169358,-2.592247 4.220997,-4.683852 0.582727,-1.15899 1.85028,-3.356399 2.816784,-4.88313 2.249831,-3.553936 5.191015,-9.184296 6.058733,-11.598343 0.37159,-1.033786 0.675618,-2.397276 0.675618,-3.029977 0,-1.848171 1.667054,-4.711928 2.347066,-4.031917 0.186074,0.186074 0.153362,0.49357 -0.106894,1.004816 -0.20626,0.405179 -0.45825,1.025974 -0.559975,1.379546 l -0.184955,0.642857 0.426515,-0.582014 c 0.535263,-0.730413 2.218101,-1.6037 3.090355,-1.6037 0.83646,0 1.18339,0.757197 0.522656,1.140727 -0.784674,0.455469 -2.191911,1.725521 -2.191911,1.978228 0,0.13041 0.318214,0.07681 0.707142,-0.119122 0.388929,-0.195926 1.03472,-0.434881 1.435089,-0.531009 1.064523,-0.255591 0.810941,0.365506 -0.581017,1.42309 -1.038016,0.788665 -1.210554,1.088235 -1.949791,3.385377 -0.597782,1.857577 -1.01584,2.707238 -1.590112,3.231756 -0.624505,0.570397 -1.015753,1.456118 -1.97164,4.463484 -0.655889,2.063535 -1.192528,3.840485 -1.192528,3.948783 0,0.108298 0.260357,-0.042 0.578571,-0.334003 0.318214,-0.291998 3.106563,-2.22266 6.19633,-4.290362 6.094867,-4.078741 8.793576,-6.284364 9.808689,-8.016531 l 0.65115,-1.1111 -0.55535,-1.143086 c -0.30545,-0.628697 -0.48337,-1.330674 -0.39539,-1.559947 0.32426,-0.845018 2.37786,-1.19665 3.63731,-0.622808 0.58546,0.266756 0.74614,0.217886 1.42638,-0.433823 0.42163,-0.403944 0.76659,-0.955474 0.76659,-1.225623 0,-0.554937 3.16025,-3.94856 3.89385,-4.181395 0.26267,-0.08337 0.47758,-0.333576 0.47758,-0.556016 0,-0.9450906 1.37572,-4.4128669 2.19638,-5.5364351 1.31515,-1.8005685 3.99358,-3.5349889 6.51158,-4.21657931 3.2616,-0.88287536 7.33694,0.31842565 9.86292,2.90732901 2.84339,2.9142085 3.50345,8.2164934 1.50941,12.1251224 -1.37508,2.695375 -4.60114,5.022129 -7.92705,5.717279 -1.86469,0.389739 -4.33012,0.05107 -6.34571,-0.871702 l -1.42777,-0.653657 -1.94475,1.000347 c -3.21675,1.654644 -4.96653,3.365487 -5.72767,5.600192 -0.73894,2.169553 -2.60788,3.76552 -4.46589,3.813626 -3.432142,0.08886 -3.11851,-0.02173 -4.831531,1.703572 -0.877639,0.883928 -2.689768,2.959225 -4.02695,4.611772 -2.74159,3.388173 -4.385718,4.978622 -6.870746,6.64642 -1.099566,0.737962 -1.771182,1.378906 -1.877547,1.791808 -0.255445,0.991617 -2.809365,3.76293 -4.560546,4.948745 -2.018345,1.366724 -3.906281,3.152352 -5.756089,5.444161 -0.808557,1.001759 -2.252397,2.761321 -3.208533,3.910138 -0.962707,1.156713 -1.75516,2.361504 -1.775922,2.7 -0.02062,0.336183 0.386939,1.30284 0.905688,2.148125 0.51875,0.845287 1.254919,2.375148 1.635928,3.399696 0.685031,1.842071 0.704294,1.864159 1.730201,1.98417 3.687002,0.431306 6.408422,0.57417 12.094601,0.634922 7.443949,0.07953 8.554592,0.244636 9.760962,1.451003 1.018973,1.018975 1.799193,3.156586 1.600051,4.383751 -0.158932,0.979395 -1.494661,3.057583 -2.211958,3.441469 -0.26092,0.139639 -2.228351,0.839641 -4.372069,1.555557 -2.782548,0.929263 -4.48326,1.346827 -5.944471,1.459507 -1.992245,0.15363 -2.046839,0.17567 -2.048236,0.826869 -0.0028,1.313285 -0.536238,2.579515 -1.387409,3.293403 -0.575138,0.482379 -0.914369,1.03717 -1.0323,1.688266 -0.457825,2.527684 -3.098378,3.770126 -6.370305,2.997381 z"
       id="path3430"
       inkscape:connector-curvature="0" />
    <path
       style="fill:#c6dafa"
       d="M 74.699998,91.043544 C 72.758192,90.789669 71.47985,89.975172 69.3942,87.662956 68.324591,86.477152 66.92971,85.24057 66.189966,84.822358 65.469447,84.415013 64.418064,83.588954 63.853559,82.986669 63.05611,82.135853 62.263768,81.668611 60.301148,80.891821 58.108118,80.023838 57.523612,79.653136 55.867309,78.07981 54.818017,77.083083 53.792073,75.943804 53.587434,75.548077 53.296464,74.985399 53.034273,74.82857 52.384555,74.82857 c -0.456945,0 -1.235044,-0.121386 -1.72911,-0.269745 -0.494067,-0.148361 -1.804647,-0.366205 -2.9124,-0.484097 -1.107754,-0.117895 -2.127695,-0.32795 -2.266535,-0.466789 -0.138841,-0.138842 -0.264119,-1.180641 -0.278398,-2.315111 -0.02355,-1.870676 0.06177,-2.247406 0.916537,-4.047298 0.960225,-2.021963 1.128433,-2.90334 0.705063,-3.694412 -0.146677,-0.274068 -0.140118,-0.899928 0.01718,-1.637373 0.290049,-1.359954 0.06176,-1.884489 -1.597642,-3.670889 -0.525497,-0.565714 -1.03095,-1.280805 -1.123228,-1.589094 -0.141277,-0.471973 -0.303657,-0.538472 -1.0279,-0.420943 -0.543927,0.08827 -1.377044,-0.05383 -2.266262,-0.386526 -1.146669,-0.429023 -1.680115,-0.488927 -2.890856,-0.324625 -0.816594,0.110813 -1.976997,0.09649 -2.578673,-0.03184 -0.799534,-0.170521 -1.509742,-0.125578 -2.638828,0.166999 -2.228498,0.577461 -2.697007,0.518629 -3.652567,-0.458668 -0.83061,-0.849502 -2.030619,-3.234687 -2.050596,-4.07584 -0.0057,-0.239153 -0.105205,-0.493463 -0.221169,-0.565133 -0.115964,-0.07167 -1.696066,-0.31338 -3.51134,-0.537133 -1.815274,-0.223756 -3.76694,-0.51163 -4.337036,-0.63972 -0.621158,-0.139567 -1.211801,-0.139097 -1.473889,0.0013 -0.281938,0.150889 -0.962812,0.0972 -1.916063,-0.151092 C 14.737549,49.018692 13.249116,48.73017 12.243212,48.589369 11.237308,48.448568 10.297729,48.178236 10.155257,47.988632 9.9724305,47.745323 8.799793,47.587654 6.1695431,47.452723 2.2179007,47.249891 1.5428571,47.07964 1.5428571,46.285714 c 0,-0.272906 -0.2287766,-0.61863 -0.5083924,-0.768274 -0.96349986,-0.515651 -1.1050551,-1.183693 -0.52748833,-2.489377 0.47358472,-1.070616 0.48801642,-1.238958 0.13925324,-1.624338 -0.81542953,-0.901038 -0.30831953,-1.462744 0.96594049,-1.069932 0.4568778,0.140839 1.8721155,0.326301 3.1449727,0.412135 L 7.0714284,40.901991 5.8479078,39.800995 C 4.6032651,38.680994 4.1953605,37.542857 5.0385977,37.542857 c 0.7527301,0 4.0320506,2.422275 4.9574781,3.661848 0.5900002,0.790282 1.1074302,1.223866 1.4605362,1.223866 0.30076,0 1.451713,0.231428 2.557673,0.514286 1.105961,0.282857 2.441017,0.514285 2.966791,0.514285 0.525774,0 1.085346,0.155911 1.243494,0.346467 0.196124,0.236314 1.289364,0.401546 3.438629,0.519709 1.733097,0.09528 3.959924,0.289977 4.948502,0.432653 1.735987,0.250547 3.098769,0.180704 9.837141,-0.504154 1.166148,-0.118523 2.265434,-0.331913 2.442857,-0.474203 0.453562,-0.363744 4.784086,-1.340786 6.760962,-1.525389 1.17764,-0.10997 1.9674,-0.03996 2.749749,0.243764 1.304121,0.472944 2.511875,0.760032 2.511875,0.597078 0,-0.0642 -0.120068,-0.432533 -0.266817,-0.818512 -0.146749,-0.385979 -0.318379,-2.331725 -0.381399,-4.323883 -0.145885,-4.611576 0.144622,-5.784693 1.8072,-7.297773 1.663282,-1.513723 2.634081,-1.741366 6.122784,-1.435742 2.723454,0.238585 2.944499,0.301842 4.183697,1.19726 1.497504,1.08207 1.972977,2.008535 2.410392,4.696699 0.209294,1.286244 0.216165,2.017679 0.02371,2.523883 -0.149045,0.392022 -0.270993,1.512941 -0.270993,2.490935 0,1.295172 -0.181201,2.251015 -0.6671,3.518974 -1.106211,2.886662 -1.195565,3.018541 -2.105208,3.107098 -1.075737,0.104724 -1.04624,0.362808 0.104161,0.911397 0.873303,0.41645 0.961866,0.417204 1.40958,0.01203 0.36615,-0.331362 0.749093,-0.395146 1.639578,-0.273091 0.696266,0.09543 1.161846,0.05818 1.161846,-0.09298 0,-0.138723 0.105069,-0.252224 0.233486,-0.252224 0.128415,0 1.314486,-1.072851 2.635714,-2.384112 1.321226,-1.311259 2.723447,-2.547422 3.116047,-2.747024 1.356863,-0.689842 3.028755,-2.482277 3.762491,-4.033762 0.400806,-0.847504 1.773705,-3.218873 3.050884,-5.269705 4.014561,-6.446392 6.744233,-12.35468 6.744233,-14.597693 0,-0.560968 0.122181,-1.34569 0.271514,-1.743826 0.348406,-0.928885 1.531435,-2.652454 1.8206,-2.652454 0.343882,0 0.245324,1.084761 -0.163543,1.8 -0.608894,1.065147 -0.433329,1.279387 0.405951,0.495382 1.120266,-1.046485 3.141767,-1.594724 3.399889,-0.922063 0.18433,0.480357 -0.07227,0.800772 -1.037201,1.295154 -0.457249,0.234271 -1.003616,0.759046 -1.214146,1.166168 l -0.382783,0.740221 0.957001,-0.461846 c 0.526353,-0.254015 1.176428,-0.502288 1.444613,-0.551717 0.783383,-0.144385 0.768458,0.488422 -0.02121,0.899184 -1.263312,0.657139 -1.827018,1.518096 -2.635501,4.025231 -0.601704,1.865907 -0.972352,2.595054 -1.569351,3.087271 -0.658445,0.542879 -0.962341,1.241241 -1.928715,4.432265 -0.63091,2.083318 -1.147114,3.840527 -1.147114,3.904907 0,0.06438 1.359642,-0.822687 3.021428,-1.97127 1.661786,-1.148582 4.294286,-2.924704 5.85,-3.946939 3.673805,-2.413996 6.531583,-4.814598 7.546167,-6.338961 0.44603,-0.670143 0.81097,-1.298967 0.81097,-1.397385 0,-0.09842 -0.24957,-0.694493 -0.55461,-1.324608 -0.683255,-1.411435 -0.46226,-1.881868 1.03546,-2.204107 0.80042,-0.172214 1.32558,-0.129937 2.08333,0.167716 l 1.01313,0.397971 0.60569,-0.810573 c 0.33313,-0.445815 0.75711,-1.186265 0.94219,-1.645445 0.31222,-0.774627 3.46282,-3.92227 3.92595,-3.92227 0.1133,0 0.206,-0.154084 0.206,-0.342409 0,-1.7268705 2.44717,-6.5099399 3.64677,-7.1277331 0.32785,-0.1688403 0.886,-0.5766611 1.24033,-0.9062687 0.35434,-0.3296075 1.45362,-0.9117442 2.44286,-1.29363717 4.95548,-1.91305373 10.81301,0.27860687 12.8448,4.80602627 2.60993,5.8157077 -0.019,12.4887187 -5.77476,14.6578147 -3.21493,1.211577 -5.74353,1.160063 -8.74726,-0.178204 l -1.41869,-0.632078 -2.18131,1.175584 c -2.81293,1.515986 -4.15708,2.852461 -5.29882,5.26854 -1.55983,3.300825 -2.47274,3.937891 -5.56249,3.881739 l -2.031245,-0.03692 -1.798419,1.870915 c -0.989128,1.029001 -2.993122,3.326722 -4.453318,5.106045 -2.495371,3.040729 -4.263824,4.682831 -7.144153,6.633714 -0.844473,0.571971 -1.221429,1.004202 -1.221429,1.400532 0,0.315282 -0.318214,0.876736 -0.707143,1.247672 -0.388928,0.370939 -0.979452,1.036939 -1.312274,1.480004 -0.332823,0.443062 -1.316394,1.285611 -2.185715,1.872329 -1.966644,1.32732 -4.690262,3.920217 -6.42468,6.11633 -0.726023,0.919286 -2.033401,2.514546 -2.905288,3.545021 -2.063481,2.438814 -2.141869,2.792952 -0.994466,4.492784 0.500418,0.741351 1.267223,2.273624 1.704013,3.405052 0.436791,1.131429 0.926584,2.142157 1.08843,2.246063 0.161845,0.103907 0.930695,0.191361 1.708552,0.194346 0.777857,0.003 2.108571,0.127057 2.957143,0.275719 0.848571,0.14866 4.724999,0.312755 8.614285,0.36466 4.452076,0.05942 7.357176,0.203209 7.842857,0.388206 1.587289,0.604597 2.839881,2.390443 3.112331,4.437326 0.128502,0.965417 0.02541,1.278517 -0.87911,2.669742 -0.843307,1.297085 -1.222678,1.642873 -2.143239,1.953514 -0.615204,0.2076 -1.870696,0.63997 -2.789982,0.960822 -3.055199,1.066341 -4.926386,1.534698 -6.815299,1.705868 l -1.87002,0.169457 -0.1585,1.188566 c -0.184158,1.38097 -1.003695,2.860796 -1.682658,3.038348 -0.319808,0.08363 -0.525895,0.460019 -0.638933,1.16691 -0.408451,2.55432 -2.421758,3.72394 -5.677447,3.298284 z"
       id="path3428"
       inkscape:connector-curvature="0" />
    <path
       style="fill:#adcaf9"
       d="m 74.7841,91.007456 c -1.999852,-0.224743 -3.386883,-1.109864 -5.618598,-3.585458 -1.148592,-1.27411 -2.352278,-2.32477 -3.093917,-2.700587 -0.66765,-0.338325 -1.618346,-1.087626 -2.112654,-1.665115 -0.655293,-0.765561 -1.458507,-1.286059 -2.965184,-1.921495 -1.136543,-0.479332 -2.448509,-1.06909 -2.915481,-1.31057 -1.073738,-0.555251 -3.670714,-3.020158 -4.364223,-4.142283 -0.383438,-0.620411 -0.714736,-0.853768 -1.213588,-0.854812 -0.377393,-7.72e-4 -1.1212,-0.122246 -1.652899,-0.269903 -0.531702,-0.147659 -1.835437,-0.365893 -2.89719,-0.484963 -1.061756,-0.11907 -2.102084,-0.358926 -2.311843,-0.533011 -0.275094,-0.228307 -0.381381,-0.854427 -0.381381,-2.24665 0,-1.68058 0.13358,-2.242787 1.033151,-4.348293 0.862977,-2.019852 0.984831,-2.508439 0.739805,-2.966274 -0.175976,-0.328814 -0.235455,-1.10898 -0.148664,-1.949912 0.121518,-1.177405 0.0496,-1.551394 -0.449311,-2.336389 -0.326693,-0.514029 -0.856397,-1.166028 -1.177118,-1.448885 -0.320721,-0.282857 -0.739337,-0.883309 -0.930258,-1.334335 -0.317199,-0.74934 -0.424124,-0.807557 -1.240046,-0.675149 -0.566645,0.09195 -1.295964,-0.02116 -1.99595,-0.309584 -1.403085,-0.578111 -6.610479,-0.700398 -8.678492,-0.203799 -1.960169,0.470703 -2.191117,0.438591 -3.196877,-0.444476 -0.598024,-0.525073 -1.122626,-1.390199 -1.598263,-2.635715 -0.38942,-1.019746 -0.782764,-1.943933 -0.874096,-2.053746 -0.09133,-0.109812 -1.545784,-0.362265 -3.232113,-0.561003 -1.686329,-0.198738 -3.608594,-0.483861 -4.271699,-0.633605 -0.700284,-0.15814 -1.451203,-0.181425 -1.791473,-0.05555 -0.361256,0.133637 -1.07671,0.08722 -1.866371,-0.121091 C 14.875069,49.029011 13.424803,48.748306 12.356555,48.59101 11.243059,48.427053 10.288062,48.142486 10.118476,47.924112 9.8911808,47.63143 8.9711329,47.512488 6.1462279,47.410595 4.1241872,47.337659 2.2612302,47.166366 2.0063236,47.029944 1.751417,46.893522 1.5428571,46.524129 1.5428571,46.20907 c 0,-0.347411 -0.2276801,-0.672722 -0.57857141,-0.826666 C 0.31205103,45.096253 0.08372032,44.163143 0.46805512,43.354481 0.9888801,42.258633 1.01332,41.872913 0.60173178,41.244752 0.01509055,40.349424 0.44063361,39.948659 1.5626421,40.339794 c 0.4565977,0.159169 1.853936,0.361718 3.1051962,0.450103 2.5485606,0.180026 2.8982872,-0.06808 1.3683747,-0.970748 -0.9384735,-0.55371 -1.4076417,-1.178208 -1.4076417,-1.873674 0,-0.578952 0.7598986,-0.470882 1.8,0.255991 0.495,0.345929 1.315974,0.907946 1.8243866,1.24893 0.5084126,0.340982 1.3451451,1.205633 1.8594051,1.921444 0.595334,0.828661 1.067553,1.250619 1.299832,1.161486 0.200647,-0.07699 0.957658,0.03606 1.682245,0.251244 0.724587,0.215179 2.037975,0.467542 2.918638,0.560803 0.880664,0.09326 1.846271,0.322783 2.145794,0.510045 0.568228,0.355253 7.634515,1.02158 10.641127,1.00342 2.816051,-0.017 9.347459,-0.68805 10.034758,-1.030975 0.874248,-0.436205 4.922481,-1.384553 6.707032,-1.571208 1.091867,-0.114202 1.89155,-0.0116 3.294954,0.422746 1.019242,0.31545 1.906889,0.519824 1.972548,0.454163 0.06566,-0.06566 -5.15e-4,-0.434507 -0.146862,-0.819661 -0.146436,-0.385154 -0.311264,-2.316199 -0.366288,-4.29121 -0.129821,-4.659897 0.161548,-5.865315 1.770794,-7.32592 1.646244,-1.494183 2.822994,-1.769832 6.255185,-1.465252 2.629731,0.233368 2.828186,0.292835 4.06925,1.219377 0.790076,0.589847 1.456516,1.343836 1.689603,1.911572 0.578224,1.408397 0.983559,4.356041 0.701146,5.098844 -0.131595,0.346119 -0.239263,1.480888 -0.239263,2.52171 0,1.503118 -0.158691,2.288713 -0.771429,3.818955 -0.424286,1.059603 -0.771428,2.047847 -0.771428,2.196095 0,0.353134 -0.853987,0.801925 -1.525953,0.801925 -0.801964,0 -0.639092,0.367578 0.37772,0.852462 0.834703,0.398042 0.959981,0.399968 1.534399,0.02361 0.444716,-0.291389 0.913079,-0.361247 1.620592,-0.241712 0.85203,0.143949 1.084317,0.0741 1.6156,-0.485812 0.341275,-0.359663 0.765142,-0.655933 0.941927,-0.658376 0.176786,-0.0026 0.321429,-0.159673 0.321429,-0.349398 0,-0.444756 2.981389,-3.311562 3.986869,-3.83364 1.630036,-0.84637 3.239673,-2.608066 4.287779,-4.692834 0.568821,-1.131428 1.875436,-3.387857 2.903588,-5.014285 2.078707,-3.288294 5.501245,-9.972713 6.122265,-11.957143 0.2213,-0.707143 0.479366,-1.98 0.57348,-2.828571 0.17728,-1.598389 1.24037,-3.727223 1.861733,-3.728112 0.424514,-6.17e-4 0.393585,0.741434 -0.06429,1.542397 -0.540553,0.945598 -0.492243,1.555238 0.07,0.883435 1.03168,-1.232704 3.082386,-1.963403 3.636498,-1.29574 0.264567,0.318783 0.144918,0.49063 -0.723129,1.038603 -0.572081,0.36114 -1.222704,1.009644 -1.44583,1.44112 l -0.405683,0.784504 1.030967,-0.525961 c 1.077622,-0.54976 2.080029,-0.691085 2.080029,-0.293252 0,0.12799 -0.508045,0.530443 -1.128991,0.894341 -1.021312,0.59853 -1.19558,0.852242 -1.827182,2.660149 -1.162312,3.327019 -1.216867,3.441646 -1.975397,4.150555 -0.566635,0.529564 -1.017116,1.574614 -1.98386,4.602265 -0.687916,2.154407 -1.207762,3.917114 -1.155209,3.917114 0.05255,0 1.80316,-1.177102 3.890237,-2.615786 2.087079,-1.438681 4.899577,-3.331057 6.249996,-4.205278 3.004053,-1.944735 5.352374,-4.007158 6.493627,-5.703059 l 0.85941,-1.277072 -0.64216,-1.311531 c -0.50959,-1.040761 -0.57876,-1.387933 -0.33503,-1.681599 0.47253,-0.569376 2.1936,-0.744313 3.36208,-0.341738 0.95608,0.329396 1.05722,0.316613 1.51257,-0.191183 0.2684,-0.2993 0.74845,-1.096389 1.06679,-1.771308 0.38069,-0.807119 1.16408,-1.723036 2.28881,-2.676019 1.6446,-1.393461 1.73954,-1.538696 2.48145,-3.796107 0.42429,-1.2909672 1.12062,-2.8212235 1.54742,-3.40057 0.96643,-1.3118706 2.87311,-2.783865 4.74042,-3.659697 1.26567,-0.59364185 1.74526,-0.66905272 4.25502,-0.66905272 2.69436,0 2.90788,0.0404173 4.5,0.85180302 3.61254,1.8410448 5.38813,4.75763 5.44081,8.9370777 0.0605,4.802016 -2.64884,8.623684 -7.35359,10.372545 -2.62753,0.97671 -6.4985,0.634462 -8.80258,-0.778273 -0.58499,-0.358685 -0.8673,-0.415879 -0.99921,-0.202434 -0.10113,0.163624 -0.90429,0.624151 -1.7848,1.023394 -2.43682,1.104907 -4.22321,2.891667 -5.51968,5.520813 -0.80912,1.640829 -1.35711,2.402944 -2.13082,2.963417 -0.9595,0.695055 -1.21547,0.754514 -3.24819,0.754514 l -2.206599,0 -1.887727,1.992857 c -1.038248,1.096072 -3.052247,3.424189 -4.475554,5.173593 -2.116558,2.601494 -3.096563,3.557248 -5.381372,5.248222 -1.758675,1.301582 -2.793546,2.239501 -2.793546,2.531826 0,0.255389 -0.318214,0.806598 -0.707143,1.22491 -0.388928,0.418315 -0.916935,1.061239 -1.173348,1.428722 -0.256412,0.367483 -1.355698,1.292078 -2.442857,2.054656 -1.087159,0.76258 -2.844509,2.294316 -3.905223,3.403857 -2.66452,2.787174 -6.920499,8.005597 -7.094489,8.698834 -0.09818,0.391178 0.150518,1.032775 0.784481,2.023817 0.510526,0.798084 1.281546,2.376298 1.713374,3.507143 0.871246,2.281559 0.727436,2.187398 3.696634,2.420398 0.99,0.07769 2.899285,0.252095 4.242857,0.387571 1.343571,0.135476 4.930714,0.242609 7.971428,0.238078 3.581419,-0.0053 5.800266,0.09631 6.3,0.288623 1.526804,0.58755 2.70208,2.197969 3.065752,4.20084 0.350851,1.932258 -1.490086,4.490632 -3.641348,5.060419 -0.673421,0.178362 -2.288281,0.713957 -3.588575,1.190206 -1.400099,0.512805 -3.357311,0.991345 -4.79962,1.173513 l -2.435449,0.307602 -0.175269,1.168768 c -0.229495,1.530381 -0.772115,2.543992 -1.552145,2.899396 -0.372361,0.169658 -0.6328,0.507246 -0.636135,0.824568 -0.0095,0.899758 -0.939698,2.656622 -1.654722,3.125121 -0.910762,0.596754 -2.285409,0.802664 -4.041244,0.605345 z"
       id="path3426"
       inkscape:connector-curvature="0" />
    <path
       style="fill:#8cb6f9"
       d="m 72.514284,90.287502 c -0.901576,-0.47234 -1.921585,-1.334604 -2.813647,-2.378514 -1.521218,-1.780164 -3.284616,-3.302532 -3.829993,-3.306492 -0.189,-0.0013 -0.941143,-0.62118 -1.671429,-1.377347 -0.993309,-1.028515 -1.781221,-1.554498 -3.127788,-2.088003 -3.46484,-1.372762 -4.930971,-2.412453 -6.876133,-4.876136 -1.133417,-1.435551 -1.630109,-1.610876 -6.202119,-2.189255 -1.11161,-0.140623 -2.192623,-0.398023 -2.402249,-0.571996 -0.298126,-0.247423 -0.359329,-0.79523 -0.281,-2.515181 0.08389,-1.842094 0.238381,-2.483887 0.952182,-3.955531 0.468627,-0.966165 0.83449,-2.007594 0.813031,-2.314286 -0.02147,-0.306689 -0.06404,-1.367619 -0.09462,-2.357619 -0.0611,-1.977963 -0.444608,-2.904189 -1.694474,-4.092416 -0.433643,-0.412256 -0.911859,-1.123519 -1.062704,-1.580585 -0.258403,-0.782969 -0.316602,-0.81505 -1.006283,-0.554726 -0.582572,0.219898 -0.987135,0.178135 -1.981679,-0.204568 -1.63684,-0.629861 -6.730701,-0.746611 -8.94051,-0.204914 -1.80928,0.443512 -2.386404,0.335013 -3.285221,-0.617629 -0.668507,-0.708539 -2.009646,-3.568966 -2.009646,-4.28624 0,-0.399168 -0.444839,-0.497504 -4.242857,-0.937918 -1.272857,-0.147598 -2.545714,-0.342324 -2.828571,-0.432723 -0.282857,-0.0904 -1.324286,-0.184011 -2.314286,-0.208031 -2.434244,-0.05906 -7.130841,-0.927185 -7.484621,-1.38347 C 9.9145893,47.576532 9.0035268,47.466313 6.401093,47.402845 2.0793813,47.297447 1.8233709,47.238281 1.6360411,46.301633 1.5516669,45.879762 1.2828272,45.506267 1.0126936,45.435625 0.75144997,45.36731 0.45979667,45.001002 0.36457515,44.621609 0.2082436,43.998734 0.32858732,43.558133 1.0440629,42.133865 c 0.1457319,-0.290101 0.055674,-0.565321 -0.28623599,-0.874746 -0.347383,-0.314378 -0.42100436,-0.54529 -0.24244876,-0.760436 0.19903991,-0.23983 0.55662395,-0.231094 1.59798775,0.03903 1.5606516,0.404827 4.8294911,0.467925 4.8294911,0.09322 0,-0.140127 -0.4003357,-0.516199 -0.8896348,-0.835714 -1.8976795,-1.239192 -1.8524129,-2.823673 0.048481,-1.696997 2.3020935,1.364472 3.0939338,2.020374 3.9385438,3.262398 0.651178,0.957576 1.009827,1.269429 1.343462,1.168169 0.250326,-0.07598 1.002469,0.03685 1.671429,0.250717 0.66896,0.213868 2.080536,0.516661 3.136836,0.672876 1.056301,0.156214 2.097729,0.43803 2.314286,0.626261 0.398738,0.346582 5.508228,0.72325 10.422311,0.768327 3.08602,0.02831 9.096752,-0.575164 9.9,-0.99395 1.111366,-0.57943 5.7135,-1.528696 7.457142,-1.538159 1.014917,-0.0055 2.102729,0.166544 2.769491,0.438033 0.603933,0.245908 1.321241,0.447104 1.59402,0.447104 0.462896,0 0.471937,-0.0575 0.135617,-0.862421 -0.229572,-0.549447 -0.395272,-2.159169 -0.456595,-4.435714 -0.13238,-4.914406 0.150819,-5.922224 2.088321,-7.431719 1.641245,-1.278679 2.674443,-1.49311 5.843096,-1.212686 2.45889,0.217613 2.763051,0.306463 4.021634,1.174773 1.003325,0.692203 1.471467,1.22687 1.779295,2.03213 0.582364,1.523433 0.971956,4.309149 0.703597,5.030949 -0.121734,0.32742 -0.223874,1.426706 -0.22698,2.442857 -0.0039,1.274307 -0.161635,2.191253 -0.50839,2.955315 -0.276508,0.609274 -0.624168,1.558707 -0.772578,2.109857 -0.330451,1.227204 -0.865751,1.796659 -1.688896,1.796659 -0.863272,0 -0.781228,0.420025 0.179041,0.916601 0.743143,0.384293 0.863941,0.382989 1.607338,-0.01736 0.614831,-0.331107 1.013709,-0.378486 1.696626,-0.201525 0.794567,0.205892 0.970452,0.151933 1.598282,-0.490325 0.388003,-0.396923 0.825076,-0.721679 0.971272,-0.721679 0.146194,0 0.265809,-0.130737 0.265809,-0.290526 0,-0.477671 2.348833,-2.759073 3.728571,-3.62153 2.099489,-1.312365 3.447363,-2.766199 4.509825,-4.864351 0.546468,-1.079164 1.78585,-3.219878 2.754186,-4.757143 3.882342,-6.163351 6.646214,-12.088838 6.921473,-14.839002 0.163535,-1.633929 0.768569,-3.16308 1.487651,-3.759865 0.639923,-0.531089 0.759337,-0.130554 0.301911,1.012667 -0.539725,1.348902 -0.523823,1.822388 0.03782,1.126083 0.550486,-0.682481 1.784645,-1.317847 2.768379,-1.425208 1.061275,-0.115824 1.164878,0.66362 0.157454,1.184579 -0.74752,0.386558 -1.838695,1.554944 -1.838695,1.9688 0,0.114403 0.525548,-0.02447 1.167886,-0.308606 1.814091,-0.802459 2.279008,-0.517234 0.840636,0.515727 -1.232882,0.885389 -1.630443,1.610511 -2.641009,4.817013 -0.233028,0.739391 -0.734924,1.601115 -1.145725,1.967141 -0.788763,0.702792 -1.055947,1.342901 -2.420401,5.79869 -0.548108,1.789907 -0.770665,2.863944 -0.57815,2.790069 0.172155,-0.06606 2.38771,-1.558797 4.923458,-3.317194 2.535747,-1.758394 5.143811,-3.507166 5.795699,-3.886159 2.941482,-1.710114 7.068348,-6.177861 6.423828,-6.954449 -0.14823,-0.178613 -0.44422,-0.742881 -0.65775,-1.253927 -0.34847,-0.834018 -0.34716,-0.970252 0.0129,-1.330278 0.47706,-0.477059 2.6982,-0.546357 3.51421,-0.10964 0.47442,0.253904 0.65449,0.171552 1.39738,-0.639081 0.46903,-0.511799 0.85278,-1.155968 0.85278,-1.431487 0,-0.466671 2.49391,-3.106422 3.79728,-4.019338 0.31578,-0.221181 0.57699,-0.655943 0.58047,-0.9661373 0.01,-0.8644703 0.93619,-3.445698 1.56791,-4.3682088 0.71423,-1.042982 2.06568,-2.4957815 2.32167,-2.4957815 0.10726,0 0.46787,-0.2728571 0.80137,-0.6063491 0.33349,-0.3334921 1.29339,-0.8827061 2.13311,-1.2204757 1.25572,-0.50510249 1.98575,-0.61429578 4.11219,-0.61507948 2.46709,-9.1028e-4 2.67305,0.0426565 4.5,0.95189408 3.43827,1.711159 5.37235,4.8828332 5.37753,8.8185818 0.006,4.534127 -2.21321,8.01532 -6.36267,9.981005 -1.60178,0.758796 -1.92731,0.818995 -4.42885,0.818995 -2.50204,0 -2.82687,-0.0601 -4.43042,-0.819727 -0.95173,-0.450849 -1.78823,-0.726198 -1.85888,-0.611885 -0.0707,0.114313 -0.99813,0.63756 -2.06107,1.16277 -2.37401,1.17302 -4.05143,2.76089 -4.97188,4.706443 -1.77055,3.742444 -2.69057,4.433827 -5.90007,4.433827 l -2.052297,0 -1.899476,1.992857 c -1.04471,1.096072 -2.940421,3.275537 -4.212689,4.843257 -2.493985,3.073151 -4.453089,4.923813 -6.840419,6.46179 -1.090725,0.702673 -1.511781,1.131598 -1.513404,1.541689 -0.0013,0.312491 -0.273333,0.833205 -0.604659,1.157143 -0.331323,0.323938 -0.861351,0.967063 -1.177837,1.429164 -0.316484,0.462101 -1.28933,1.321257 -2.161877,1.909232 -3.200771,2.156875 -3.304142,2.261952 -9.271039,9.424026 -1.218474,1.462536 -2.215409,2.886374 -2.215409,3.164086 0,0.277709 0.447007,1.246073 0.993348,2.15192 0.546344,0.905848 1.259475,2.374866 1.58474,3.264485 0.325266,0.889622 0.688732,1.745633 0.807704,1.902251 0.11897,0.156615 1.112621,0.356783 2.208117,0.444813 1.095492,0.08803 3.148948,0.273978 4.563234,0.413213 1.414285,0.139235 5.117142,0.259825 8.228571,0.267977 7.062896,0.01851 7.902216,0.293639 9.014171,2.954918 0.688201,1.6471 0.574781,2.960547 -0.374835,4.340769 -1.014503,1.47453 -1.557499,1.841694 -3.654167,2.470886 -0.903273,0.271065 -2.452312,0.780377 -3.442312,1.131807 -0.99,0.351427 -2.899286,0.792067 -4.242857,0.979195 l -2.442857,0.340236 -0.165109,1.352787 c -0.161866,1.326204 -0.775659,2.632927 -1.236736,2.632927 -0.458797,0 -1.041012,0.820231 -1.041012,1.466586 0,0.964327 -0.909754,2.275575 -1.907201,2.748895 -0.536189,0.254438 -1.546907,0.413067 -2.631661,0.413031 -1.442008,-4.9e-5 -2.017414,-0.134324 -3.175424,-0.741009 z"
       id="path3424"
       inkscape:connector-curvature="0" />
    <path
       style="fill:#71a6f9"
       d="m 73.512585,90.673564 c -1.614976,-0.577111 -2.792538,-1.459427 -3.892891,-2.916836 -1.090437,-1.444271 -3.087828,-3.156729 -3.681977,-3.156729 -0.18215,0 -1.006056,-0.668618 -1.830904,-1.485815 -1.258984,-1.24731 -1.870634,-1.624431 -3.810412,-2.34935 -2.187187,-0.81738 -2.442852,-0.996279 -4.783489,-3.347221 L 53.040113,74.933924 51.012912,74.47791 c -1.114959,-0.25081 -2.629042,-0.498844 -3.36463,-0.551188 -2.307327,-0.164194 -2.457961,-0.343114 -2.34478,-2.785107 0.08196,-1.768487 0.253355,-2.439807 1.089121,-4.265992 0.906447,-1.98062 0.965307,-2.240632 0.683596,-3.01969 -0.182977,-0.506016 -0.23969,-1.30967 -0.139546,-1.97747 0.201333,-1.342584 -0.236808,-2.346264 -1.543148,-3.535007 -0.483683,-0.440144 -0.952573,-1.133296 -1.041973,-1.540337 -0.202575,-0.922315 -0.4812,-1.104943 -1.098039,-0.719723 -0.381451,0.238223 -0.771578,0.200875 -1.874744,-0.179475 -1.862331,-0.642093 -6.857747,-0.741682 -9.302996,-0.185464 l -1.738515,0.395454 -0.862644,-0.657969 c -0.884181,-0.674398 -1.65328,-2.039896 -2.225227,-3.950784 -0.366835,-1.225604 -0.334435,-1.21249 -3.98797,-1.613929 -1.278364,-0.140461 -2.949131,-0.373883 -3.712816,-0.518711 -0.763686,-0.14483 -1.742752,-0.197555 -2.175703,-0.117167 -0.432951,0.08039 -1.48147,-0.03723 -2.330041,-0.261373 C 14.194285,48.769834 12.829264,48.514592 12.009477,48.42677 10.992002,48.317772 10.415116,48.118846 10.191772,47.799979 9.9322008,47.429387 9.5494305,47.340537 8.3394384,47.370003 5.8298633,47.431115 2.7292571,47.251766 2.2674148,47.018776 2.029493,46.89875 1.7535515,46.544461 1.6542114,46.231467 1.5548714,45.918475 1.1998918,45.447096 0.86536801,45.183959 0.12822093,44.60412 0.10481659,44.118102 0.75037084,42.795915 1.1783026,41.919449 1.1953236,41.731971 0.87894227,41.379752 0.26828143,40.69992 0.42430432,40.290029 1.2214285,40.479999 c 1.3528492,0.322411 5.7214285,0.485753 5.7214285,0.213927 0,-0.1433 -0.5207143,-0.687232 -1.1571428,-1.208738 -1.1327189,-0.928178 -1.4145007,-1.495782 -0.9003253,-1.813559 0.4704272,-0.290739 4.1470227,2.361335 5.0671614,3.655146 0.6464397,0.908964 1.0561417,1.240725 1.5683767,1.270019 0.381347,0.02181 1.792644,0.280643 3.136216,0.575192 1.343571,0.29455 2.689045,0.537064 2.989942,0.53892 0.300897,0.0018 0.676442,0.159244 0.834544,0.349745 0.354671,0.427351 6.301689,0.822546 11.346942,0.754031 3.83159,-0.05204 8.309869,-0.586888 9.9,-1.182382 1.622556,-0.607639 5.009459,-1.262237 6.557142,-1.267321 0.78434,-0.0026 2.12652,0.239622 3.013316,0.54376 1.932629,0.662814 1.975644,0.665244 1.741703,0.0984 -0.680675,-1.649281 -0.947697,-8.100753 -0.414522,-10.015066 0.288972,-1.03752 1.299621,-2.289235 2.464743,-3.052653 1.042354,-0.682977 2.949521,-0.861658 5.666189,-0.530867 2.287586,0.278548 2.702172,0.411257 3.755882,1.202277 1.805001,1.355012 2.157897,2.553344 2.092616,7.10595 -0.03681,2.567178 -0.172291,3.974186 -0.458059,4.757143 -0.223185,0.611483 -0.585286,1.632502 -0.80467,2.268931 -0.467789,1.357055 -1.17372,2.057142 -2.074314,2.057142 -0.522759,0 -0.58922,0.06824 -0.348701,0.358049 0.163434,0.196927 0.628578,0.495329 1.03365,0.663117 0.599245,0.248215 0.879487,0.231123 1.503789,-0.09172 0.585432,-0.30274 0.972612,-0.337624 1.633549,-0.147186 0.68429,0.197167 0.926228,0.168228 1.151748,-0.137762 0.157021,-0.213048 0.38845,-0.392711 0.514285,-0.39925 0.125838,-0.0065 0.460224,-0.305974 0.743082,-0.665411 1.025825,-1.30355 3.11212,-3.28797 4.272209,-4.063598 2.244276,-1.500503 3.274568,-2.652074 4.553067,-5.089016 0.688004,-1.311403 2.064021,-3.657541 3.057819,-5.213639 3.563962,-5.580488 6.502618,-12.162782 6.502618,-14.565204 0,-0.556451 0.222972,-1.448789 0.495492,-1.982973 0.91136,-1.786416 2.062558,-2.173218 1.222022,-0.410601 -0.237489,0.498022 -0.431799,1.117732 -0.431799,1.377134 0,0.384812 0.167114,0.314028 0.907768,-0.384497 0.874715,-0.824964 2.540741,-1.514282 2.989527,-1.236917 0.424343,0.262259 0.207749,0.891427 -0.384382,1.116554 -0.619038,0.235358 -1.970056,1.670445 -1.970056,2.092645 0,0.308562 0.0418,0.303046 0.924778,-0.122045 1.888033,-0.908951 2.682262,-0.664933 1.022721,0.314219 -1.154954,0.68144 -1.513702,1.279409 -2.341208,3.902382 -0.498639,1.580553 -0.915876,2.399458 -1.506968,2.95771 -0.532046,0.502487 -0.979138,1.310422 -1.280669,2.314287 -0.254792,0.848258 -0.812342,2.619954 -1.239002,3.937102 -0.426656,1.317147 -0.724047,2.446506 -0.660864,2.509688 0.06318,0.06318 0.6248,-0.273968 1.248042,-0.749219 0.623243,-0.475251 3.477063,-2.43667 6.341825,-4.358705 5.795616,-3.888416 8.085214,-5.772435 9.307541,-7.658803 l 0.82322,-1.270442 -0.53399,-0.864018 c -0.72104,-1.166663 -0.70281,-2.112377 0.0446,-2.312669 0.92229,-0.247163 2.49525,-0.186535 3.0645,0.118117 0.43547,0.233059 0.6479,0.161043 1.26286,-0.428129 0.40663,-0.389576 0.86403,-1.086172 1.01644,-1.547993 0.26844,-0.813359 3.58679,-4.218354 4.11102,-4.218354 0.13878,0 0.25233,-0.271171 0.25233,-0.6026014 0,-1.6805643 1.78865,-5.3801675 3.08647,-6.3839823 0.42604,-0.3295219 1.22615,-0.9573356 1.77802,-1.3951416 1.55999,-1.23755344 4.25605,-1.99914654 6.51815,-1.84127304 2.61303,0.18236507 4.53199,0.98594404 6.33029,2.65085104 2.19588,2.0329901 2.91593,3.7780914 2.95622,7.1645253 0.0364,3.057082 -0.38077,4.517569 -1.84056,6.444334 -2.71054,3.577604 -7.19515,5.210538 -11.37154,4.140597 -0.91468,-0.234332 -2.03828,-0.647442 -2.49688,-0.918022 l -0.83382,-0.491966 -2.25604,1.198896 c -2.80803,1.492236 -4.3544,3.00793 -5.44767,5.339584 -1.5029,3.205296 -2.59455,3.979913 -5.60876,3.979913 l -2.011663,0 -1.948711,1.992857 c -1.071792,1.096072 -3.045803,3.323572 -4.38669,4.95 -2.793088,3.387878 -3.851781,4.396647 -6.375317,6.074686 -1.067811,0.710046 -1.805788,1.381032 -1.805788,1.641863 0,0.472559 -1.514237,2.544091 -2.571428,3.517811 -0.353572,0.325654 -1.577888,1.271837 -2.720703,2.102629 -1.142815,0.83079 -2.878529,2.433654 -3.857143,3.56192 -4.062677,4.68395 -6.279297,7.538266 -6.279297,8.085782 0,0.31356 0.449239,1.329205 0.998311,2.256995 0.549072,0.927787 1.319495,2.525814 1.712054,3.551171 0.748721,1.955651 0.831994,2.016131 2.655121,1.928404 0.193161,-0.0093 1.118875,0.09806 2.057143,0.238562 0.938268,0.140505 5.177371,0.33238 9.420228,0.426391 7.554587,0.16739 7.734872,0.183726 8.708762,0.789131 0.67544,0.419878 1.190222,1.038582 1.604631,1.928571 0.857522,1.841619 0.80434,3.122329 -0.192127,4.62672 -0.97219,1.467741 -1.462608,1.811201 -3.306981,2.316024 -0.777857,0.212907 -2.166428,0.668301 -3.085714,1.011991 -1.774412,0.663387 -3.566854,1.061804 -5.978571,1.328894 l -1.478572,0.163746 0,0.889755 c 0,1.267647 -0.596664,2.528635 -1.519215,3.210706 -0.542605,0.401164 -0.79507,0.805348 -0.79507,1.272865 0,0.953889 -0.996627,2.346729 -2.062268,2.882127 -1.058619,0.531866 -3.303524,0.577884 -4.653717,0.09539 z"
       id="path3422"
       inkscape:connector-curvature="0" />
    <path
       style="fill:#629dfa"
       d="m 73.884992,90.797013 c -1.404296,-0.360643 -3.127487,-1.635714 -4.469251,-3.307017 -0.710902,-0.885499 -1.779912,-1.917635 -2.375576,-2.293631 -2.475938,-1.562874 -2.9136,-1.90375 -3.31688,-2.583384 -0.289795,-0.488381 -0.936131,-0.910113 -2.051748,-1.33876 -3.167295,-1.216949 -4.432762,-1.995626 -6.148594,-3.783397 -0.93024,-0.969238 -1.798097,-1.945275 -1.928572,-2.168969 -0.312649,-0.536019 -4.1385,-1.377136 -6.776004,-1.489713 -1.145096,-0.04888 -1.445524,-0.534634 -1.516305,-2.451693 -0.0565,-1.530434 0.05469,-1.989298 1.00987,-4.167252 0.998192,-2.27604 1.051858,-2.513779 0.766239,-3.394607 -0.201595,-0.621707 -0.232048,-1.300029 -0.08862,-1.974096 0.182864,-0.859428 0.118373,-1.20609 -0.395388,-2.125306 -0.337642,-0.604106 -0.845337,-1.222239 -1.128215,-1.373631 -0.282875,-0.151391 -0.740278,-0.786073 -1.016452,-1.410406 -0.554513,-1.253574 -0.553605,-1.252923 -1.191201,-0.854738 -0.344268,0.215 -0.868338,0.135803 -2.246511,-0.33949 -1.371844,-0.473112 -2.010618,-0.570299 -2.697495,-0.41041 -0.495,0.115223 -1.719196,0.140534 -2.720435,0.05625 -1.275215,-0.107352 -2.304664,-0.0292 -3.437218,0.260952 -1.578012,0.404267 -1.638502,0.400777 -2.522325,-0.145456 -0.646184,-0.399363 -1.116285,-1.024442 -1.641353,-2.182454 -0.404697,-0.892537 -0.735812,-1.790642 -0.735812,-1.995788 0,-0.734554 -0.777067,-1.14073 -2.504791,-1.309253 -0.955936,-0.09325 -2.832056,-0.337999 -4.169155,-0.543901 -1.337099,-0.205902 -2.730727,-0.308556 -3.096951,-0.228119 -0.366224,0.08043 -1.644376,-0.08832 -2.840339,-0.375017 -1.195963,-0.286697 -2.550549,-0.522075 -3.010192,-0.523065 -0.474031,-10e-4 -1.045623,-0.211711 -1.320734,-0.486823 C 9.9324633,47.475321 9.4297789,47.36829 7.9364084,47.351396 6.8949551,47.339614 5.1171427,47.23966 3.9857142,47.129273 1.9897515,46.934539 1.9261515,46.907539 1.8472057,46.221428 1.8024545,45.832499 1.6178888,45.514285 1.4370596,45.514285 c -0.4033689,0 -1.17991675,-0.825369 -1.17991675,-1.254098 0,-0.172482 0.23082462,-0.791355 0.5129436,-1.375272 C 1.2271366,41.93893 1.2411465,41.776963 0.89865787,41.398516 0.26742682,40.701013 0.41434333,40.286535 1.2214285,40.487921 c 1.3382552,0.333926 5.7214285,0.474614 5.7214285,0.183644 0,-0.15068 -0.4105407,-0.587098 -0.9123125,-0.969819 -1.1035003,-0.84168 -1.5583955,-1.591038 -1.1896686,-1.959766 0.3946773,-0.394678 3.8067904,2.009945 5.0082222,3.529448 0.7424789,0.939047 1.1983939,1.290001 1.6908839,1.301616 0.370867,0.0087 1.079303,0.150341 1.574303,0.314655 0.495,0.164315 1.870223,0.464825 3.05605,0.667798 1.185828,0.202976 2.227257,0.477913 2.314286,0.610974 0.08703,0.133061 1.720379,0.318978 3.629664,0.413146 1.909286,0.09417 3.934286,0.262888 4.5,0.374927 1.772843,0.351111 10.810404,-0.474228 12.589447,-1.149709 3.023431,-1.147957 8.115631,-1.705934 9.408957,-1.030983 0.360548,0.188162 1.093988,0.413259 1.629864,0.500223 0.828578,0.134457 0.950387,0.09574 0.814315,-0.258861 -0.448465,-1.168678 -0.640705,-2.857731 -0.654401,-5.749671 -0.02093,-4.419187 0.198618,-5.185565 1.907664,-6.659153 1.404691,-1.211166 2.072088,-1.357674 5.414721,-1.188641 2.928114,0.148068 3.144142,0.197522 4.326737,0.990479 1.761868,1.18137 2.463876,2.640936 2.524286,5.248313 0.08804,3.799739 -0.164671,6.310749 -0.76564,7.607752 -0.311274,0.671788 -0.636212,1.572724 -0.722083,2.002081 -0.176546,0.882727 -0.947625,1.533625 -1.816799,1.533625 -0.858571,0 -0.714294,0.313581 0.430061,0.934712 0.917825,0.498173 1.062602,0.513172 1.56393,0.162028 0.369206,-0.258601 0.91673,-0.345908 1.650544,-0.263198 0.986346,0.111175 1.206375,0.02672 2.16252,-0.830073 0.585445,-0.524612 1.064448,-1.022742 1.064448,-1.106954 0,-0.25886 2.823089,-2.851261 3.698753,-3.396515 2.156009,-1.342486 3.295301,-2.57932 4.410938,-4.788586 0.615793,-1.219438 1.940233,-3.516541 2.943196,-5.104676 2.13138,-3.37491 5.383725,-9.728326 6.153127,-12.020054 0.295262,-0.879467 0.536842,-2.161415 0.536842,-2.848772 0,-0.966819 0.180124,-1.521678 0.795662,-2.450968 1.262695,-1.906322 1.606161,-1.562631 0.648874,0.6493 -0.437441,1.010772 -0.135316,1.63793 0.35116,0.728942 0.311197,-0.581478 1.855607,-1.448902 2.828049,-1.588387 0.800902,-0.11488 1.053414,0.686293 0.292431,0.92782 -0.612448,0.194383 -2.087604,1.815088 -2.087604,2.293581 0,0.238419 0.379291,0.149738 1.292472,-0.30219 1.228448,-0.607952 2.215242,-0.573076 1.168339,0.04129 -1.454868,0.85378 -2.144549,1.859878 -2.843735,4.148413 -0.541014,1.770816 -0.905858,2.498701 -1.553637,3.099591 -0.624389,0.579193 -0.993464,1.287842 -1.406204,2.700001 -0.307789,1.05308 -0.850672,2.818818 -1.206403,3.923859 -0.355732,1.105043 -0.582318,2.073633 -0.503525,2.152429 0.07879,0.07879 0.582527,-0.202718 1.119407,-0.625582 0.536879,-0.422866 3.348286,-2.362333 6.247571,-4.309928 5.752304,-3.864109 8.611918,-6.232974 9.638151,-7.984114 l 0.66324,-1.131729 -0.52212,-1.023448 c -0.28717,-0.562896 -0.52213,-1.197558 -0.52213,-1.410359 0,-0.857546 1.94614,-1.200157 3.58065,-0.630362 0.77791,0.271181 0.8744,0.235641 1.57078,-0.578571 0.40808,-0.477126 0.74666,-1.084724 0.75241,-1.350219 0.0121,-0.560063 2.63439,-3.348505 3.67473,-3.907602 0.38893,-0.209016 0.70715,-0.593413 0.70715,-0.854214 0,-0.9704467 1.07424,-3.7993642 1.9377,-5.1027671 0.49089,-0.7410158 1.37058,-1.66673 1.95486,-2.0571428 0.58427,-0.3904131 1.36497,-0.9147331 1.73487,-1.1651559 0.36991,-0.2504227 1.46711,-0.6997152 2.43823,-0.99842792 4.67467,-1.43791864 10.3239,1.14332412 11.91886,5.44595212 2.23044,6.0169666 -0.46566,12.0231756 -6.3855,14.2252266 -2.63407,0.979814 -5.6466,0.783941 -8.35231,-0.543064 -1.26466,-0.620244 -1.40525,-0.640212 -1.82974,-0.259872 -0.25291,0.226598 -1.09626,0.693983 -1.87412,1.038634 -2.24624,0.995261 -3.94595,2.71545 -5.11551,5.177154 -1.36929,2.882114 -3.07538,4.265761 -4.93577,4.00292 -0.19965,-0.02821 -0.91303,-0.03758 -1.58527,-0.02083 -1.154997,0.02879 -1.315884,0.126008 -2.922821,1.766181 -0.935301,0.954643 -2.786377,3.084657 -4.113504,4.733367 -2.681295,3.331016 -4.104465,4.703645 -6.753481,6.513635 -1.212097,0.82819 -1.844553,1.442018 -1.956706,1.899077 -0.09114,0.371443 -0.386298,0.906778 -0.655899,1.189635 -0.269602,0.282857 -0.860724,0.957698 -1.313607,1.499644 -0.452882,0.541947 -1.526323,1.460713 -2.385424,2.041704 -1.982679,1.340841 -4.1409,3.389454 -6.008148,5.703023 -0.804687,0.997025 -2.245358,2.752714 -3.201495,3.90153 -0.956135,1.148817 -1.758785,2.363817 -1.783667,2.7 -0.02489,0.336184 0.359923,1.24767 0.855121,2.025527 0.495198,0.777858 1.277941,2.361873 1.739428,3.520034 l 0.839065,2.105745 1.327417,0.144862 c 3.770265,0.411452 8.78248,0.65808 13.400247,0.659366 2.907125,7.71e-4 5.604341,0.123405 6.184313,0.2811 1.920379,0.522147 3.454195,2.617748 3.465782,4.735183 0.0042,0.762699 -0.23311,1.386538 -0.909298,2.390616 -0.918216,1.363474 -1.314352,1.620782 -3.456484,2.24513 -0.636428,0.185495 -1.975469,0.631898 -2.975646,0.992011 -1.586752,0.571304 -2.946541,0.854177 -6.474353,1.346834 -0.760758,0.106241 -0.835715,0.197129 -0.835715,1.013315 0,1.315574 -0.641517,2.629975 -1.530545,3.135917 -0.595651,0.338983 -0.781102,0.626865 -0.783077,1.215601 -0.0032,0.941236 -0.775589,2.264807 -1.65988,2.844216 -0.744822,0.488027 -3.438699,0.715559 -4.684361,0.395656 z"
       id="path3420"
       inkscape:connector-curvature="0" />
    <path
       style="fill:#5394fb"
       d="m 74.314284,90.786992 c -1.666226,-0.337757 -3.002804,-1.263196 -4.99733,-3.46013 -1.215249,-1.338572 -2.424623,-2.398625 -3.121215,-2.73584 -0.625479,-0.302791 -1.571469,-1.053321 -2.102202,-1.667849 -0.748188,-0.866317 -1.427102,-1.298626 -3.02211,-1.92438 -1.131428,-0.44388 -2.52,-1.07639 -3.085714,-1.405576 -1.015735,-0.591051 -3.915476,-3.435982 -4.404024,-4.320782 -0.168925,-0.305936 -0.775442,-0.540455 -1.841927,-0.712206 -0.874538,-0.14084 -1.888426,-0.369509 -2.253086,-0.508153 -0.364656,-0.138641 -1.147266,-0.253656 -1.739131,-0.255587 -2.037186,-0.0066 -2.178144,-0.121212 -2.371583,-1.927499 -0.189522,-1.769737 -0.0067,-2.55493 1.206574,-5.18201 0.781575,-1.692339 0.886821,-2.402465 0.471168,-3.179119 -0.175608,-0.328127 -0.176048,-0.8641 -0.0013,-1.643634 0.239439,-1.068423 0.20222,-1.241002 -0.487486,-2.260481 -0.410693,-0.60706 -1.046515,-1.384274 -1.412936,-1.727141 -0.366485,-0.342869 -0.666283,-0.754681 -0.666283,-0.915138 0,-0.16046 -0.153139,-0.501174 -0.340308,-0.757142 -0.280972,-0.384253 -0.426685,-0.411706 -0.835714,-0.157456 -0.404419,0.251386 -0.813119,0.192405 -2.225268,-0.321138 -1.464436,-0.532555 -1.924372,-0.593727 -2.997563,-0.398669 -0.741155,0.13471 -1.871059,0.135797 -2.720324,0.0026 -1.136639,-0.178244 -1.824375,-0.127988 -3.161618,0.23103 -1.031863,0.27703 -1.866675,0.373158 -2.106957,0.242614 -0.924996,-0.502549 -1.828468,-1.797071 -2.514834,-3.603327 l -0.732841,-1.928572 -1.78943,-0.216318 c -0.984185,-0.118975 -3.033253,-0.412918 -4.553484,-0.653208 -1.520231,-0.240289 -2.928337,-0.344952 -3.129125,-0.232585 -0.204796,0.114608 -1.305587,-0.02116 -2.507372,-0.309276 -1.178267,-0.282469 -2.50277,-0.514391 -2.94334,-0.515381 -0.44057,-10e-4 -1.076999,-0.216528 -1.414286,-0.47897 C 10.008068,47.472613 9.2221275,47.356138 6.0533112,47.20474 3.9376326,47.103657 2.1151326,46.964411 2.0033113,46.895302 1.8914901,46.826192 1.8,46.494989 1.8,46.159294 1.8,45.77467 1.6096981,45.488543 1.2854414,45.385626 0.18352806,45.035894 0.14196479,44.307051 1.1056427,42.232721 1.3255006,41.759472 1.2836173,41.583098 0.88076819,41.285746 0.13383732,40.734421 0.6958932,40.32524 1.807742,40.610903 c 0.4907419,0.126084 1.8469008,0.305305 3.0136865,0.39827 2.0021384,0.159524 2.1214285,0.140295 2.1214285,-0.341959 0,-0.306956 -0.3606557,-0.73388 -0.9032528,-1.069225 -1.0740209,-0.663781 -1.5864452,-1.468291 -1.18861,-1.866127 0.1886601,-0.188661 0.3978844,-0.163988 0.6941039,0.08185 0.2332204,0.193557 0.626579,0.472153 0.8741302,0.619103 1.6687326,0.990586 2.6295474,1.807583 3.4662715,2.947428 0.6836702,0.931345 1.1326602,1.305468 1.5667112,1.305468 0.334626,0 1.279414,0.176621 2.099528,0.39249 0.820115,0.215871 2.155941,0.463729 2.968502,0.550795 0.812561,0.08707 1.607801,0.315444 1.7672,0.507507 0.193033,0.232591 0.883788,0.349208 2.068465,0.349208 0.978257,0 2.902303,0.132199 4.275657,0.293775 2.915135,0.34297 4.308993,0.371795 7.125579,0.147358 4.127369,-0.328885 6.741887,-0.701519 7.476827,-1.065633 1.064266,-0.527271 5.715393,-1.432944 7.349279,-1.431059 0.755643,7.71e-4 1.673946,0.158158 2.040673,0.349524 0.366729,0.191368 1.105578,0.430259 1.641885,0.530871 0.932848,0.175004 0.967109,0.157071 0.790563,-0.413809 -0.438799,-1.418897 -0.647476,-3.348751 -0.634528,-5.86817 0.01967,-3.830621 0.292636,-4.879119 1.568286,-6.024294 1.866083,-1.675219 2.253276,-1.782465 5.726594,-1.58617 2.994855,0.169251 3.132118,0.203042 4.415562,1.086984 1.498284,1.031909 1.961108,1.895418 2.41884,4.512937 0.212559,1.215521 0.22257,1.967636 0.03422,2.571428 -0.146417,0.469371 -0.223657,1.310287 -0.171648,1.868701 0.118726,1.274683 -0.159698,2.605014 -1.025303,4.898985 -0.796793,2.111614 -0.857849,2.188602 -1.816719,2.290834 -1.078928,0.115033 -1.028867,0.49129 0.153807,1.155991 0.999101,0.561523 1.072834,0.568409 1.541842,0.143962 0.372505,-0.337112 0.759409,-0.409973 1.587343,-0.298924 0.952539,0.127762 1.236232,0.04039 2.183533,-0.672511 0.598817,-0.450642 1.092333,-0.94638 1.096707,-1.101638 0.0109,-0.386928 2.750554,-2.951599 3.90636,-3.656857 1.776168,-1.083795 3.237698,-2.704945 4.214823,-4.675142 0.526065,-1.060715 1.767924,-3.201429 2.759688,-4.757143 3.855577,-6.047987 6.869936,-12.599753 6.869936,-14.931933 0,-1.274989 0.654385,-2.784417 1.553064,-3.582353 0.318569,-0.282857 0.533381,-0.398029 0.477362,-0.255939 -0.05602,0.142091 -0.321061,0.810028 -0.588978,1.484305 -0.576766,1.451563 -0.397725,1.807844 0.449242,0.893954 0.793,-0.855663 2.115779,-1.531731 2.799431,-1.43078 0.872167,0.128786 0.778066,0.55653 -0.243856,1.10846 -0.861089,0.465067 -2.101528,2.044737 -1.823755,2.322511 0.06191,0.06191 0.563074,-0.117108 1.113689,-0.397827 1.528441,-0.779244 2.219747,-0.664469 0.996739,0.165486 -1.352386,0.917754 -1.490863,1.146912 -2.397705,3.967802 -0.606083,1.88532 -0.960207,2.583681 -1.519992,2.997549 -0.499703,0.369445 -0.872571,1.013309 -1.182559,2.042027 -0.249009,0.826349 -0.812237,2.62666 -1.251617,4.00069 -0.439383,1.37403 -0.73169,2.565422 -0.649574,2.647538 0.08212,0.08212 2.043625,-1.167395 4.358906,-2.776693 2.315281,-1.609298 5.207863,-3.569973 6.427959,-4.357062 2.706238,-1.7458 4.959586,-3.74098 6.074502,-5.378541 0.98277,-1.443476 0.98948,-1.497415 0.32239,-2.59155 -0.68997,-1.131652 -0.64878,-1.70389 0.14435,-2.005437 0.88342,-0.335875 1.82349,-0.316011 2.8648,0.06053 0.79513,0.28752 0.90838,0.260122 1.48202,-0.358513 0.3416,-0.368403 0.80398,-1.115993 1.02751,-1.661311 0.38002,-0.927121 2.36348,-3.024924 3.67321,-3.88499 0.31822,-0.208962 0.57858,-0.520707 0.57858,-0.692766 0,-0.1720593 0.24832,-1.113394 0.55183,-2.0918547 0.6515,-2.1003101 2.05855,-4.352981 3.03401,-4.8574115 0.38196,-0.1975194 0.85961,-0.5590373 1.06146,-0.8033734 0.48531,-0.5874881 2.59012,-1.50441921 4.36215,-1.90030868 2.79614,-0.62468833 6.54748,0.46181524 8.81683,2.55362428 2.35927,2.174707 3.42214,6.0733478 2.62839,9.64109 -0.94009,4.225527 -4.16226,7.237756 -8.7217,8.15342 -1.83954,0.369434 -4.14501,0.02371 -6.30449,-0.9454 l -1.54101,-0.691565 -0.72231,0.507524 c -0.39727,0.279139 -1.24302,0.73598 -1.87945,1.015201 -1.61103,0.706811 -3.87826,2.859678 -4.58606,4.354725 -0.91443,1.931519 -1.36778,2.750458 -1.81618,3.280787 -0.73166,0.865344 -2.33569,1.368167 -4.26919,1.338282 l -1.799998,-0.02782 -1.888112,1.929675 c -1.038464,1.061321 -3.024975,3.329604 -4.414472,5.04063 -2.377785,2.928003 -4.130221,4.553773 -7.014878,6.507848 -0.866147,0.586731 -1.276935,1.060324 -1.383989,1.59559 -0.08373,0.418659 -0.339505,0.901692 -0.568386,1.073404 -0.22888,0.17171 -0.739694,0.745483 -1.135141,1.275048 -0.395448,0.529562 -1.436817,1.446927 -2.314152,2.038585 -1.975616,1.332319 -4.949897,4.171536 -6.687985,6.384283 -0.722088,0.919286 -1.985585,2.441538 -2.807771,3.382781 -0.822184,0.941246 -1.616228,2.059447 -1.76454,2.484895 -0.240501,0.689902 -0.1672,0.927854 0.677944,2.200729 0.52118,0.784954 1.327107,2.386039 1.790951,3.557965 l 0.843352,2.130773 1.119304,0.183695 c 2.615696,0.429274 6.131337,0.627799 12.047875,0.680326 3.465,0.03076 6.705,0.124763 7.2,0.208892 1.882165,0.319891 3.08051,1.333139 3.71988,3.14531 0.581526,1.648219 0.492994,2.325968 -0.514157,3.936111 -0.949724,1.518336 -0.942837,1.514165 -4.362866,2.641446 -0.707142,0.233082 -2.132004,0.706392 -3.166361,1.051802 -1.034358,0.34541 -2.82652,0.713864 -3.982585,0.818789 l -2.101937,0.190772 -0.2016,1.403701 c -0.229037,1.594749 -0.718715,2.48228 -1.588094,2.878396 -0.430714,0.196246 -0.636375,0.550926 -0.731744,1.261964 -0.339061,2.527887 -2.628486,3.737183 -5.841964,3.085789 z"
       id="path3418"
       inkscape:connector-curvature="0" />
  </g>
</svg>
