<?xml version="1.0" encoding="UTF-8" standalone="no"?>
<!-- Created with Inkscape (http://www.inkscape.org/) -->

<svg
   xmlns:dc="http://purl.org/dc/elements/1.1/"
   xmlns:cc="http://creativecommons.org/ns#"
   xmlns:rdf="http://www.w3.org/1999/02/22-rdf-syntax-ns#"
   xmlns:svg="http://www.w3.org/2000/svg"
   xmlns="http://www.w3.org/2000/svg"
   xmlns:sodipodi="http://sodipodi.sourceforge.net/DTD/sodipodi-0.dtd"
   xmlns:inkscape="http://www.inkscape.org/namespaces/inkscape"
   id="svg3406"
   version="1.1"
   inkscape:version="0.91 r13725"
   width="450.88455"
   height="640.91687"
   viewBox="0 0 450.88455 640.91687"
   sodipodi:docname="silhouette-football-17.svg">
  <title
     id="title3340">Silhouette Football 17</title>
  <metadata
     id="metadata3412">
    <rdf:RDF>
      <cc:Work
         rdf:about="">
        <dc:format>image/svg+xml</dc:format>
        <dc:type
           rdf:resource="http://purl.org/dc/dcmitype/StillImage" />
        <dc:title>Silhouette Football 17</dc:title>
        <cc:license
           rdf:resource="http://creativecommons.org/publicdomain/zero/1.0/" />
        <dc:date>2017-03-18</dc:date>
        <dc:creator>
          <cc:Agent>
            <dc:title>JLouis</dc:title>
          </cc:Agent>
        </dc:creator>
        <dc:rights>
          <cc:Agent>
            <dc:title>Domaine pubic</dc:title>
          </cc:Agent>
        </dc:rights>
        <dc:publisher>
          <cc:Agent>
            <dc:title>inkscape</dc:title>
          </cc:Agent>
        </dc:publisher>
        <dc:subject>
          <rdf:Bag>
            <rdf:li>silhouette</rdf:li>
            <rdf:li>soccer</rdf:li>
            <rdf:li>player</rdf:li>
            <rdf:li>sport</rdf:li>
            <rdf:li>football</rdf:li>
            <rdf:li>joueurs</rdf:li>
          </rdf:Bag>
        </dc:subject>
        <dc:description>Soccer player in silhouette - Joueur de football en silhouette</dc:description>
      </cc:Work>
      <cc:License
         rdf:about="http://creativecommons.org/publicdomain/zero/1.0/">
        <cc:permits
           rdf:resource="http://creativecommons.org/ns#Reproduction" />
        <cc:permits
           rdf:resource="http://creativecommons.org/ns#Distribution" />
        <cc:permits
           rdf:resource="http://creativecommons.org/ns#DerivativeWorks" />
      </cc:License>
    </rdf:RDF>
  </metadata>
  <defs
     id="defs3410" />
  <sodipodi:namedview
     pagecolor="#ffffff"
     bordercolor="#666666"
     borderopacity="1"
     objecttolerance="10"
     gridtolerance="10"
     guidetolerance="10"
     inkscape:pageopacity="0"
     inkscape:pageshadow="2"
     inkscape:window-width="1238"
     inkscape:window-height="756"
     id="namedview3408"
     showgrid="false"
     fit-margin-top="0"
     fit-margin-left="0"
     fit-margin-right="0"
     fit-margin-bottom="0"
     inkscape:zoom="0.8828125"
     inkscape:cx="12.870179"
     inkscape:cy="325.95557"
     inkscape:window-x="0"
     inkscape:window-y="0"
     inkscape:window-maximized="1"
     inkscape:current-layer="svg3406" />
  <g
     id="g3416"
     transform="translate(-0.36544085,0.625)">
    <path
       style="fill:#cee8f9"
       d="m 362.85208,639.18943 c -0.83762,-0.34177 -1.88371,-2.68982 -2.32466,-5.21791 -0.94411,-5.41288 -10.51934,-23.18106 -15.32156,-28.43125 -1.84388,-2.0159 -7.68129,-8.88897 -12.97201,-15.2735 -5.29073,-6.38451 -13.16086,-15.5328 -17.48918,-20.3295 -14.2372,-15.77786 -21.20998,-29.84425 -24.13455,-48.68727 -1.5044,-9.69291 -4.0907,-18.08545 -6.22684,-20.20611 -0.46046,-0.45713 -2.90068,0.0398 -5.42273,1.1042 -3.91649,1.65295 -6.19355,1.72368 -15.60625,0.4848 -6.06139,-0.79779 -16.05412,-3.12282 -22.2061,-5.16672 -6.15198,-2.04389 -13.48718,-3.71617 -16.30045,-3.71617 -6.03899,0 -18.86495,-2.74636 -33.49114,-7.17131 -13.91902,-4.21102 -19.02679,-4.66763 -31.85024,-2.84734 -8.77215,1.24521 -10.75637,1.92554 -10.75637,3.68804 0,1.3274 -1.56728,2.68306 -4.0625,3.51396 -21.13958,7.03944 -27.17083,9.93824 -33.88061,16.28407 -7.83514,7.41014 -11.50526,8.26178 -13.338369,3.09508 -0.67078,-1.89063 -1.781857,-4.41424 -2.469061,-5.60804 -1.681023,-2.92023 -1.632656,-3.06267 1.30045,-3.8297 2.00951,-0.5255 2.383622,-1.32936 1.765269,-3.79308 C 97.460823,494.67374 97.905384,493.621 100,492.5 c 2.10519,-1.12666 2.5403,-2.16927 1.92627,-4.61575 -0.65343,-2.60349 0.11969,-4.0031 4.3878,-7.9434 2.84954,-2.63069 4.80895,-5.38504 4.35423,-6.12079 -0.45471,-0.73575 0.19327,-1.71857 1.43997,-2.18407 2.47344,-0.92354 4.83495,-3.68824 8.18253,-9.57953 1.95868,-3.44704 1.9836,-4.08958 0.26055,-6.7193 C 118.22646,451.78894 119.13198,450 123.25287,450 c 2.82023,0 3.07168,-0.43037 2.73873,-4.6875 -0.31616,-4.04256 0.0204,-4.74246 2.4459,-5.08694 1.80745,-0.2567 2.8125,-1.26175 2.8125,-2.8125 0,-5.24295 12.68129,-0.26717 20.1478,7.90543 l 4.84806,5.30651 12.81456,0.41694 c 7.04802,0.22931 18.15833,-0.24389 24.68958,-1.05157 6.53125,-0.80768 16.9375,-1.76136 23.125,-2.1193 10.3857,-0.60078 15.625,-2.38843 15.625,-5.33122 0,-2.07983 -10.90504,-18.7458 -15.56639,-23.78985 C 205.12052,405.96708 197.5,389.09283 197.5,375.71784 l 0,-9.18961 -4.375,-0.82076 c -2.55581,-0.47947 -4.375,-1.55736 -4.375,-2.59222 0,-3.57504 5.19579,-15.51786 8.6326,-19.84251 1.94491,-2.44737 3.90094,-6.73068 4.34673,-9.51848 0.50096,-3.13284 2.23513,-6.55944 4.54059,-8.97189 C 209.7066,321.18624 210,320.16791 210,311.83632 c 0,-7.84215 -0.7573,-10.91532 -5.70329,-23.14426 -3.13681,-7.75575 -6.54421,-17.5249 -7.57199,-21.70921 -2.26856,-9.23583 -5.38566,-19.33578 -6.87566,-22.27839 -0.60449,-1.1938 -1.09906,-3.03399 -1.09906,-4.0893 0,-1.05531 -1.38321,-2.54898 -3.0738,-3.31927 -2.47214,-1.12639 -3.71272,-0.98188 -6.33806,0.73832 -7.26035,4.75717 -12.48908,5.7091 -22.96869,4.18169 -10.94519,-1.59529 -13.24057,-1.1074 -39.49445,8.39454 -10.53188,3.81175 -15.55059,4.81072 -31.875,6.34471 -11.068342,1.04006 -22.858436,2.91948 -27.5,4.38364 -4.46875,1.40965 -12.34375,3.0318 -17.5,3.60478 -5.15625,0.57301 -11.466309,1.94509 -14.022351,3.04912 -5.621439,2.42805 -11.396774,2.66841 -10.687774,0.44481 0.274014,-0.85937 3.464668,-3.17185 7.090341,-5.13883 3.625674,-1.96697 6.12023,-4.03969 5.543459,-4.60603 -0.576771,-0.56634 -4.423675,-0.2314 -8.548675,0.7443 -14.3459629,3.39331 -19.53270709,1.3463 -8.4375,-3.32998 3.265625,-1.37636 7.0625,-3.043 8.4375,-3.70366 2.232029,-1.07243 2.165035,-1.14848 -0.625,-0.70945 -1.71875,0.27045 -5.710136,1.21844 -8.8697466,2.10664 -3.1596108,0.8882 -6.7594964,1.22552 -7.9997459,0.74958 -2.11010365,-0.80971 -2.07866285,-1.05302 0.4893113,-3.7865 1.5093706,-1.60665 2.6520193,-3.4201 2.5392195,-4.02988 -0.1128,-0.60978 -0.138479,-1.74323 -0.057065,-2.51878 0.1910723,-1.82015 12.7748987,-6.31806 20.5591937,-7.34858 5.018303,-0.66435 5.887031,-1.15257 5.151755,-2.89522 -2.773543,-6.57347 -1.601705,-10.11009 1.937078,-5.84611 1.051736,1.26726 3.876477,1.875 8.714955,1.875 5.881412,0 8.140375,0.6651 12.659444,3.72725 3.025331,2.04999 6.131926,3.73749 6.903545,3.75 4.255433,0.069 22.444661,-7.13069 31.097056,-12.30889 13.83933,-8.28241 15.44779,-8.7313 33.125,-9.24469 19.80457,-0.57516 28.21006,-3.07612 30.74727,-9.14852 0.94064,-2.25126 2.84239,-4.45252 4.2261,-4.8917 1.38372,-0.43918 5.4714,-3.34924 9.08374,-6.4668 3.61234,-3.11758 7.83351,-6.26448 9.38039,-6.99313 2.00686,-0.94532 2.82389,-2.43103 2.85225,-5.18667 0.0515,-5.00349 1.62214,-6.93215 10.02004,-12.30423 3.80796,-2.43592 7.61641,-5.26377 8.46321,-6.28411 0.84681,-1.02034 5.46305,-3.1167 10.25832,-4.65859 4.79528,-1.54188 8.71868,-3.17022 8.71868,-3.61853 0,-1.8626 -4.02521,-6.37139 -5.68804,-6.37139 -0.98795,0 -3.48731,-2.3344 -5.55412,-5.18755 -3.785,-5.22505 -4.74202,-9.55643 -2.59613,-11.74995 0.71695,-0.73286 0.47768,-3.80424 -0.625,-8.02241 -2.0815,-7.9626 -2.30322,-15.48932 -0.55266,-18.7603 0.86136,-1.60946 0.68579,-3.85982 -0.58134,-7.451259 -2.73492,-7.751578 -0.14791,-12.207572 10.51715,-18.11532 4.77523,-2.645158 13.87184,-2.968402 20.64349,-0.733556 3.06024,1.009966 4.32805,2.289824 4.84911,4.895179 0.48822,2.441065 2.03229,4.15726 5.01284,5.57162 5.87176,2.786336 11.11665,9.068747 14.61249,17.503106 1.9385,4.67699 3.64138,7.05044 5.05848,7.05044 2.75133,0 3.65373,2.49246 3.65373,10.09164 0,4.78342 -0.55146,6.48157 -2.5,7.69845 -2.55749,1.59719 -3.36586,8.2299 -1.74118,14.28637 l 0.72468,2.70145 4.41625,-2.60565 c 3.232,-1.90692 6.30124,-2.55243 11.44575,-2.40722 8.13332,0.22956 17.63237,-2.5375 20.82622,-6.06667 1.21867,-1.34661 3.56184,-2.44837 5.20705,-2.44837 3.67169,0 14.83412,-7.00111 21.34759,-13.38926 2.65575,-2.60466 7.12218,-8.11074 9.92538,-12.23574 6.66516,-9.808 11.13065,-13.881365 24.72326,-22.552285 13.77547,-8.78757 40.87364,-29.796795 47.01819,-36.453236 7.70016,-8.341646 14.85681,-20.742395 14.85681,-25.743287 0,-2.463257 0.50309,-4.789571 1.11796,-5.169586 0.61488,-0.380015 1.39398,-2.803837 1.73134,-5.386271 C 428.24909,2.6916585 435,-5.5642774 435,5.0468247 l 0,5.2301353 2.3924,-2.95098 c 1.31583,-1.623039 2.81236,-2.5325692 3.32564,-2.0211782 1.17233,1.1680308 -1.39465,12.8976292 -3.86445,17.6581622 C 435.83411,24.928006 435,29.100771 435,32.235776 l 0,5.700009 2.8125,-2.561689 C 443.01034,30.639784 451.25,28.051995 451.25,31.153846 451.25,32.633349 443.91534,40 442.44226,40 c -0.6135,0 -3.04365,3.014268 -5.40034,6.698373 -2.3567,3.684104 -6.03577,7.945108 -8.17573,9.468897 -2.13997,1.523789 -8.79312,8.493896 -14.78478,15.489127 -5.99166,6.995232 -11.50182,13.281103 -12.24479,13.968603 -0.74296,0.6875 -4.51375,5.1875 -8.37951,10 -3.86576,4.8125 -12.73736,14.09375 -19.71466,20.625 -13.86608,12.97964 -23.58143,22.50847 -35.68506,35 -6.08553,6.28055 -7.9646,9.10915 -8.27754,12.46029 -0.36378,3.8954 -0.89698,4.45094 -5.25499,5.47513 -5.24555,1.23278 -13.08427,8.15294 -16.31756,14.40542 -3.48164,6.73275 -4.83304,26.29986 -3.68005,53.28416 0.5875,13.75 1.07484,42.4375 1.08298,63.75 0.007,21.3125 0.48312,40.04261 1.05554,41.62249 0.67047,1.85044 0.50108,3.52277 -0.47607,4.70016 -1.63055,1.9647 -1.2936,9.93844 1.36752,32.36091 1.39114,11.72172 0.65775,30.88548 -2.14291,55.99527 -0.59227,5.31004 -0.20527,6.56356 3.70791,12.01042 2.84382,3.95839 4.0098,6.66312 3.33977,7.74726 -0.59738,0.96657 -0.30828,3.06022 0.6888,4.98835 2.97972,5.76217 13.93511,40.19503 15.69361,49.32514 1.33747,6.94417 3.15489,10.99959 8.80611,19.65019 3.91645,5.9951 8.37748,14.71385 9.91338,19.375 4.08787,12.4059 16.76461,37.09933 22.04726,42.9466 2.51679,2.78578 6.25417,5.93288 8.30532,6.99357 2.05114,1.06069 7.15972,4.62435 11.35239,7.91924 4.19268,3.2949 10.53176,6.94211 14.08685,8.10492 7.72771,2.52762 10.56624,5.34092 10.82603,10.72984 0.15565,3.22879 -0.53654,4.44337 -3.55674,6.24095 -2.0625,1.22759 -5.29688,2.27308 -7.1875,2.32333 -2.11739,0.0562 -3.4375,0.7831 -3.4375,1.89258 0,0.99068 -0.54034,2.13519 -1.20076,2.54335 -1.52385,0.94179 -33.9051,1.92803 -35.94716,1.09485 z"
       id="path3430"
       inkscape:connector-curvature="0" />
    <path
       style="fill:#acd8f7"
       d="m 362.89944,638.56045 c -0.74842,-0.927 -1.78209,-3.6542 -2.29704,-6.06045 -2.04221,-9.54265 -11.49489,-23.34971 -32.41679,-47.34961 -28.39295,-32.5701 -32.39907,-39.27169 -36.70886,-61.40806 -4.37665,-22.47974 -5.45253,-24.1829 -13.70548,-21.6963 -4.76791,1.43656 -7.69036,1.5101 -15.27127,0.38427 -10.50669,-1.56031 -20.11946,-4.15841 -25.4138,-6.8687 -1.94634,-0.99639 -6.44634,-1.82172 -10,-1.83409 -6.79646,-0.0236 -25.13385,-3.96226 -40.70282,-8.74238 -8.02054,-2.46254 -10.8559,-2.73167 -21.45894,-2.0368 -13.8813,0.9097 -15.70898,1.38943 -16.4793,4.32563 -0.31514,1.20119 -3.44621,3.11723 -7.31068,4.4737 -3.71771,1.30498 -7.32943,2.81023 -8.02608,3.345 -0.69664,0.53479 -4.04889,1.67293 -7.44944,2.52919 -4.65915,1.17319 -8.1128,3.3523 -14.01435,8.8425 -4.30734,4.00711 -8.57697,7.28565 -9.48806,7.28565 -2.201909,0 -4.65653,-2.55085 -4.65653,-4.83907 0,-1.01149 -0.890417,-2.82298 -1.978705,-4.02552 -1.819384,-2.0104 -1.760225,-2.30337 0.734732,-3.63864 2.038042,-1.09072 2.527753,-2.19201 1.967442,-4.42447 -0.554977,-2.2112 -0.07486,-3.33146 1.875001,-4.375 1.96148,-1.04975 2.43106,-2.15946 1.86618,-4.41013 -0.60538,-2.41205 0.23898,-3.90523 4.26527,-7.54273 2.76105,-2.49444 5.02008,-5.52929 5.02008,-6.7441 0,-1.21482 1.06055,-2.4861 2.35678,-2.82508 1.29623,-0.33896 3.92055,-3.28469 5.83184,-6.54605 2.85548,-4.87252 3.21532,-6.34566 2.01822,-8.26252 -2.19355,-3.51244 -1.81231,-4.49822 2.29316,-5.92939 3.79058,-1.3214 4.79071,-3.14656 2.5,-4.5623 -2.5026,-1.54669 -1.15826,-4.08085 2.55925,-4.82435 2.73882,-0.54776 3.70479,-1.38201 3.4375,-2.96875 -0.27965,-1.66013 0.36165,-2.12665 2.58842,-1.88297 5.16995,0.56574 11.00307,4.04567 16.35783,9.75879 l 5.19464,5.54228 10.86868,0.16131 c 16.10057,0.23895 22.14868,-0.12725 34.91772,-2.1142 6.35197,-0.98841 15.09885,-1.79711 19.4375,-1.79711 7.70702,0 10.88846,-1.33179 10.88846,-4.55802 0,-2.95905 -9.20191,-17.3405 -15.75505,-24.6232 -3.66886,-4.07733 -9.23603,-12.5617 -12.59713,-19.19807 -5.51411,-10.88738 -6.05965,-12.768 -6.45883,-22.26532 l -0.436,-10.3735 -4.2515,-0.79759 c -2.33832,-0.43867 -4.25149,-1.2325 -4.25149,-1.76406 0,-3.98326 4.53125,-14.6188 7.99428,-18.76378 2.78061,-3.32817 4.49048,-6.94777 5.05249,-10.69555 0.57819,-3.85559 2.02385,-6.83922 4.52637,-9.34175 3.4305,-3.43049 3.67686,-4.31977 3.67686,-13.27226 0,-8.29511 -0.67786,-11.27673 -5.00221,-22.00241 -2.75123,-6.82385 -6.093,-16.47105 -7.42617,-21.43824 -4.39821,-16.3871 -9.41408,-30.00656 -11.54195,-31.33956 -1.59798,-1.00107 -3.75583,-0.49954 -9.09117,2.11292 -7.80238,3.82044 -10.00464,4.08773 -22.5635,2.73851 -9.90764,-1.06438 -12.98266,-0.39533 -38.75,8.43108 -14.30072,4.89861 -18.371226,5.73751 -33.933384,6.99345 -9.725861,0.78492 -20.132111,2.32282 -23.125,3.41756 -2.992889,1.09474 -9.809345,2.45924 -15.147681,3.03224 -5.338336,0.573 -12.812561,2.20411 -16.609391,3.62469 -12.362455,4.62538 -16.430446,2.46656 -5.648005,-2.99732 11.306356,-5.72936 10.182441,-8.05916 -2.505559,-5.19385 -11.1462534,2.51715 -13.7878443,2.57213 -12.9038881,0.26858 0.3704963,-0.9655 4.1497175,-3.06158 8.3982691,-4.65795 8.92929,-3.35513 6.685399,-4.67406 -3.038933,-1.78625 C 7.5005785,254.12266 3.8045914,255 2.8981235,255 c -2.38418237,0 -2.02510781,-3.4148 0.508147,-4.83249 1.1859487,-0.66369 2.1703237,-2.45539 2.1875,-3.98155 0.017176,-1.52617 0.8749795,-3.17367 1.9062295,-3.66112 1.03125,-0.48745 3.103837,-1.51799 4.605748,-2.29009 2.245789,-1.15451 15.903481,-3.94039 19.488852,-3.97531 0.53328,-0.005 0.06993,-1.74922 -1.02967,-3.8756 -2.312994,-4.47284 -1.50335,-6.07127 1.974957,-3.89903 1.334405,0.83335 4.543198,1.51833 7.130652,1.52216 6.679449,0.01 13.33036,2.09343 15.96081,5.00004 1.240866,1.37115 3.293911,2.49299 4.562322,2.49299 4.490881,0 24.261034,-7.10389 29.806329,-10.71011 14.41059,-9.37155 18.13692,-10.53839 33.71817,-10.5583 18.8163,-0.024 32.53183,-4.02673 32.53183,-9.49397 0,-0.93845 2.10937,-3.07357 4.6875,-4.74472 2.57812,-1.67115 7.77726,-5.61571 11.55364,-8.76569 3.77637,-3.14996 7.292,-5.72721 7.8125,-5.72721 0.5205,0 0.94636,-1.56234 0.94636,-3.47186 0,-4.52514 2.63957,-8.16132 8.43656,-11.62192 2.57864,-1.53936 6.37594,-4.33982 8.43844,-6.22326 2.0625,-1.88344 5.71875,-3.8288 8.125,-4.32302 2.40625,-0.49423 6.0625,-1.81803 8.125,-2.94177 2.0625,-1.12375 3.91169,-2.11111 4.1093,-2.19413 1.44821,-0.6085 -3.08491,-6.49702 -5.7866,-7.51679 -2.06875,-0.78086 -4.56398,-3.52379 -6.4644,-7.10613 -2.60411,-4.90881 -2.84957,-6.22756 -1.5473,-8.31283 1.24616,-1.99543 1.18397,-3.87533 -0.31909,-9.646 -2.17917,-8.36638 -2.34021,-12.73466 -0.63485,-17.22012 0.87376,-2.29816 0.74654,-4.64985 -0.4375,-8.086509 -2.6642,-7.732922 0.11588,-12.632921 10.03755,-17.691252 9.15719,-4.668599 24.727,-2.19182 25.64164,4.078961 0.25006,1.714387 2.518,3.986276 6.01891,6.029386 6.2185,3.629075 11.68975,10.628464 13.94574,17.840834 0.92781,2.96622 2.67561,5.29098 4.70627,6.25988 2.69483,1.28578 3.29321,2.51687 3.60958,7.42636 0.39354,6.10677 -1.50167,11.58282 -3.56696,10.30641 -1.30264,-0.80507 -1.67358,11.69205 -0.44229,14.90071 0.65409,1.70456 1.34899,1.63329 5.69551,-0.58414 3.38115,-1.72494 7.00857,-2.44915 11.44252,-2.2845 7.38926,0.27439 17.71288,-2.8423 21.66496,-6.54061 1.47015,-1.37575 3.4389,-2.32636 4.375,-2.11248 4.38334,1.00157 22.86955,-13.40587 28.3351,-22.08326 5.53147,-8.78205 17.98922,-20.61215 28.33435,-26.906823 5.51791,-3.35747 13.97006,-9.219682 18.78256,-13.02714 4.8125,-3.807457 12.76235,-9.977482 17.66634,-13.711165 11.40912,-8.686418 24.14807,-26.319046 24.18491,-33.475561 0.013,-2.537551 0.52249,-4.921962 1.13205,-5.298694 0.60956,-0.37673 1.49683,-2.800552 1.97169,-5.386271 2.65719,-14.4687889 7.98409,-22.0517198 7.16506,-10.1995889 L 433.6151,11.875 436.60545,8.2298589 C 442.53667,0.99988168 442.2952,8.5671501 436.10279,23.981726 433.66984,30.037999 432.95416,37.5 434.80626,37.5 c 0.58095,0 2.07878,-1.129858 3.3285,-2.510794 2.56764,-2.837197 11.39534,-5.890851 12.8108,-4.431471 0.51119,0.527056 -1.9208,3.570305 -5.40443,6.762775 -3.48363,3.192469 -7.62839,7.672403 -9.21058,9.955408 -1.58219,2.283003 -5.69874,6.783003 -9.1479,10 -6.10067,5.690046 -22.74817,24.494856 -32.82199,37.075331 -7.14395,8.921581 -26.87181,28.652861 -34.11108,34.117011 -3.39325,2.56121 -7.74633,6.62549 -9.67349,9.03174 -1.92716,2.40625 -7.7049,8.68514 -12.83941,13.95309 -7.11429,7.29917 -9.17598,10.188 -8.66513,12.14153 0.77111,2.94873 -0.75269,4.46558 -5.66556,5.63974 -5.26145,1.25748 -12.75708,8.76221 -16.06905,16.08859 l -2.96194,6.55205 0.4046,67.5 c 0.22252,37.125 0.84319,71.71875 1.37924,76.875 0.68572,6.59596 0.54133,9.93081 -0.48708,11.25 -2.30317,2.95436 -2.2705,10.20084 0.0851,18.88424 2.7716,10.2166 2.82108,45.11801 0.0875,61.74076 l -1.85003,11.25 4.19186,6.96474 c 2.30553,3.8306 4.16078,8.04935 4.12278,9.375 -0.038,1.32564 2.26351,8.87901 5.11446,16.78526 6.47479,17.9559 8.3863,24.2841 11.13854,36.875 1.71852,7.86189 3.53105,12.00448 8.47722,19.375 6.04574,9.00903 8.46729,14.05212 12.6045,26.25 3.55677,10.48653 14.19324,30.15031 19.31354,35.70518 2.80269,3.04056 7.13696,6.78582 9.63171,8.32282 2.49477,1.53699 8.15662,5.49656 12.58189,8.79905 4.42529,3.30249 10.43753,6.60672 13.36053,7.34275 6.06215,1.52646 8.61966,3.9343 9.52045,8.96326 0.66526,3.71349 -1.61404,7.11694 -4.76613,7.11694 -0.98214,0 -1.78571,0.62347 -1.78571,1.38551 0,0.85604 -1.20184,1.08387 -3.14498,0.59616 -2.54912,-0.63978 -3.36222,-0.21794 -4.2916,2.22652 -1.05171,2.76621 -1.85197,3.02366 -9.66752,3.11022 -4.6865,0.0519 -12.48423,0.45056 -17.3283,0.88593 -6.64385,0.59712 -9.14168,0.37753 -10.16816,-0.89389 z"
       id="path3428"
       inkscape:connector-curvature="0" />
    <path
       style="fill:#90ccf6"
       d="M 361.87219,635.81108 C 360.84249,633.34665 360,630.7005 360,629.93075 c 0,-2.40165 -8.37735,-16.51364 -14.44464,-24.33255 -3.18945,-4.11026 -10.94731,-13.31549 -17.23968,-20.45605 -29.23773,-33.1789 -32.57927,-39.06323 -37.68797,-66.36708 -2.31032,-12.34763 -5.32838,-18.3716 -8.8604,-17.68507 -14.19508,2.75916 -28.35378,0.92624 -44.19131,-5.72081 -2.36445,-0.99237 -8.2707,-2.08154 -13.125,-2.4204 -9.35835,-0.65327 -24.86831,-4.00097 -38.05269,-8.21335 -6.61067,-2.1121 -10.14268,-2.44117 -20.625,-1.92152 -13.72544,0.68042 -17.02331,1.49907 -17.02331,4.22575 0,1.92172 -1.02038,2.39689 -18.69136,8.7044 -9.84323,3.51345 -12.89321,5.28122 -18.26522,10.58649 -5.23606,5.17103 -7.1257,6.29124 -10.04794,5.95659 -2.42854,-0.2781 -3.746188,-1.22525 -4.051339,-2.91215 -0.24873,-1.375 -1.284581,-3.43961 -2.301894,-4.58802 -1.653421,-1.86649 -1.56178,-2.24208 0.86378,-3.5402 2.00705,-1.07414 2.524908,-2.20335 1.98924,-4.33763 -0.54878,-2.18651 0.06257,-3.40094 2.523893,-5.01366 2.37453,-1.55585 2.87597,-2.50036 1.86447,-3.51186 -2.21973,-2.21973 -1.62572,-3.9516 2.1128,-6.16 1.92304,-1.13597 4.31275,-3.64788 5.31046,-5.58202 0.99772,-1.93413 2.5054,-3.95935 3.35041,-4.50046 0.84501,-0.54112 3.29153,-3.53489 5.43672,-6.6528 3.67596,-5.34282 3.91509,-6.89814 1.83461,-11.93216 -0.65793,-1.59195 0.0558,-2.26886 3.09649,-2.9367 3.97872,-0.87388 4.17232,-1.57979 1.92318,-7.01204 -0.63614,-1.53642 0.1075,-2.20611 3.11852,-2.80831 2.8408,-0.56816 3.75085,-1.31979 3.23275,-2.66995 -0.50408,-1.31364 0.0888,-1.87919 1.97,-1.87919 4.60537,0 13.28133,4.99499 17.75594,10.22258 l 4.28221,5.00278 12.28364,0.66494 c 9.1363,0.49456 16.53188,-0.0148 28.86394,-1.98769 9.11917,-1.45893 20.11605,-2.65261 24.4375,-2.65261 7.7922,0 10.8572,-1.3323 10.8572,-4.71941 0,-2.74058 -9.42899,-17.9361 -14.50743,-23.3798 -5.73791,-6.15063 -11.56203,-15.18403 -16.13493,-25.02579 -2.62478,-5.64904 -3.63084,-10.03829 -4.07653,-17.785 l -0.59172,-10.28499 -4.2197,-0.79162 c -2.32083,-0.43539 -4.21969,-1.27042 -4.21969,-1.85561 0,-3.09547 5.71829,-15.97332 8.34636,-18.79639 1.671,-1.79499 3.82139,-6.23261 4.77864,-9.86139 0.95725,-3.62878 3.17699,-8.09718 4.93272,-9.92979 2.86175,-2.98701 3.19228,-4.33495 3.19228,-13.0186 0,-8.43424 -0.71789,-11.57676 -5.55268,-24.3066 -3.05397,-8.041 -7.06892,-20.24501 -8.92211,-27.12001 -3.9912,-14.80673 -7.41873,-22.97074 -10.07125,-23.9886 -1.05986,-0.4067 -5.16156,0.80651 -9.11488,2.69603 -6.92792,3.31123 -7.663,3.40311 -20.32433,2.54011 l -13.13644,-0.89538 -14.87665,5.23727 c -24.71262,8.69997 -29.7968,9.87707 -46.559579,10.77956 -10.672793,0.57461 -17.753726,1.60474 -21.771661,3.16729 -3.275019,1.27363 -10.624662,2.84636 -16.33254,3.49493 -5.707879,0.64858 -13.434567,2.34097 -17.170421,3.76088 -12.481991,4.74411 -15.375058,2.58792 -4.295429,-3.20135 6.75437,-3.52926 8.994878,-6.7301 4.69047,-6.7009 -1.203125,0.009 -5.28125,0.84524 -9.0625,1.86016 -8.4522775,2.26869 -11.25,2.34399 -11.25,0.30281 0,-0.8647 3.796875,-3.07925 8.4375,-4.92122 9.456324,-3.75345 6.548891,-4.89873 -4.176336,-1.64511 -3.3748904,1.0238 -6.839289,1.86755 -7.698664,1.875 -2.31770237,0.0201 -1.8929292,-3.42734 0.5937705,-4.81897 1.1859488,-0.66368 2.1703238,-2.42581 2.1875,-3.91583 0.023965,-2.0789 1.6305619,-3.40029 6.9062295,-5.6802 3.78125,-1.63409 9.125,-3.00228 11.875,-3.04042 7.395035,-0.1025 8.896749,-1.44118 6.212523,-5.53782 -2.591163,-3.95461 -1.657712,-5.43854 2.226861,-3.54006 1.545839,0.75547 5.749914,1.60992 9.342387,1.89877 4.30554,0.34618 8.237265,1.6538 11.535699,3.83661 2.752161,1.82129 6.182436,3.31144 7.622834,3.31144 5.522715,0 22.281996,-6.68586 33.089564,-13.20059 L 105.68473,217.5 l 13.6404,0 c 19.48364,0 36.92487,-5.09655 36.92487,-10.78991 0,-0.90885 1.54687,-2.64179 3.4375,-3.85098 1.89062,-1.2092 7.65625,-5.51592 12.8125,-9.57051 7.95488,-6.25529 9.46967,-8.05395 10,-11.87399 0.47753,-3.4397 1.61647,-5.09632 4.82694,-7.0208 2.31106,-1.38535 6.59271,-4.62819 9.51478,-7.20631 2.92207,-2.57813 6.2952,-4.6875 7.49584,-4.6875 2.8679,0 14.41244,-5.31661 14.41244,-6.63736 0,-2.49958 -2.69072,-5.63834 -6.0133,-7.0146 -2.01654,-0.83528 -4.86021,-3.72134 -6.44499,-6.54105 -2.41207,-4.29173 -2.60621,-5.47583 -1.29839,-7.91952 1.22313,-2.28542 1.20958,-3.85937 -0.0663,-7.69288 -1.36961,-4.1154 -1.76327,-12.50607 -1.04713,-22.31959 0.10037,-1.375 -0.1266,-5.137676 -0.5043,-8.361503 -0.59605,-5.087429 -0.27431,-6.27392 2.43622,-8.984459 C 210.8907,81.950165 218.24829,78.75 224.8464,78.75 c 7.31469,0 13.90355,3.000692 13.90355,6.331945 0,1.489664 2.33452,3.942197 6.15959,6.470948 6.31565,4.175276 13.0391,12.944187 14.55462,18.982547 0.46892,1.86828 2.11083,3.87527 3.6487,4.45996 3.27253,1.24422 4.38709,3.62715 4.38709,9.3796 0,5.40857 -1.08949,8.125 -3.25874,8.125 -1.30506,0 -1.74126,1.9832 -1.74126,7.91666 0,4.35418 0.3509,8.26758 0.77977,8.69645 0.42888,0.42888 2.997,-0.35136 5.70693,-1.73387 3.43889,-1.75438 6.88464,-2.41834 11.40772,-2.19812 6.97522,0.33962 18.4243,-2.87661 20.91243,-5.87462 0.8246,-0.99358 2.74339,-1.8065 4.26398,-1.8065 2.98363,0 14.95967,-7.81569 21.74243,-14.18935 2.30355,-2.16461 6.32934,-7.0294 8.94621,-10.81065 6.74319,-9.74358 14.95954,-17.165546 29.48943,-26.638266 6.94314,-4.526565 19.66776,-13.854855 28.27694,-20.729534 13.02204,-10.398479 16.8356,-14.258456 22.6886,-22.964756 4.74271,-7.054738 7.03556,-11.714554 7.03556,-14.29851 0,-2.108242 0.84029,-5.444339 1.8673,-7.41355 1.02701,-1.969212 1.87924,-4.705384 1.89382,-6.080384 0.0301,-2.845201 2.52332,-10.326319 4.374,-13.125 0.92163,-1.39373731 1.4003,-0.1103701 1.86488,5 l 0.625,6.875 2.29387,-4.2061272 c 1.58523,-2.9067307 2.6947,-3.8052927 3.59137,-2.9086314 0.89666,0.8966611 0.25073,4.3199476 -2.09084,11.0811276 C 434.766,26.918512 432.77665,37.5 434.33254,37.5 c 0.45885,0 2.62486,-1.362455 4.81336,-3.027678 4.60897,-3.506942 10.24372,-5.221191 11.33867,-3.449535 0.68225,1.103909 -5.21897,7.172185 -9.54048,9.81055 -0.9384,0.572914 -2.92727,3.054624 -4.41968,5.514909 -1.49241,2.460286 -5.39906,6.994115 -8.68145,10.075176 C 419.9995,63.78582 413.85508,70.582034 402.007,85 c -12.07178,14.690175 -31.58339,34.9932 -40.83427,42.49055 -3.82376,3.09895 -10.64323,9.8532 -15.15441,15.00945 -4.51116,5.15625 -10.24202,11.21676 -12.73522,13.46781 -3.09626,2.79553 -4.53459,5.17278 -4.53779,7.5 -0.004,2.83924 -0.90441,3.77711 -5.40226,5.62639 -7.06706,2.90559 -13.69982,10.00112 -16.62114,17.7808 -2.20902,5.88279 -2.32461,10.25267 -1.96731,74.375 0.20878,37.46875 0.68139,71.98365 1.05024,76.69976 0.42267,5.40436 0.16677,9.07863 -0.6921,9.9375 -1.85609,1.85609 -1.68258,9.94378 0.40736,18.98774 0.95322,4.125 2.1062,12 2.56217,17.5 0.89373,10.78022 -0.94236,38.51791 -3.23537,48.87662 -1.38161,6.24149 -1.31485,6.52777 3.15068,13.5085 2.50921,3.92253 4.28681,7.57747 3.95022,8.12209 -0.33659,0.54461 0.81332,4.87204 2.55537,9.6165 1.74207,4.74446 4.87358,13.97004 6.95895,20.50129 2.08537,6.53125 4.28727,13 4.89312,14.375 0.60583,1.375 1.68216,6.28196 2.39183,10.90435 1.027,6.68932 2.40158,10.00536 6.73598,16.25 6.74401,9.71619 8.67976,13.4922 12.81599,24.99972 1.79816,5.00277 6.22763,15.00609 9.84326,22.22963 7.02491,14.03482 12.01833,19.64781 26.12481,29.3663 3.99165,2.75 8.18013,5.90802 9.30772,7.01782 1.1276,1.1098 5.41834,3.26134 9.53499,4.78119 9.74646,3.59838 10.64018,4.45756 10.64018,10.22904 0,4.46234 -0.86473,5.51407 -4.09729,4.98339 -0.53475,-0.0878 -1.29652,0.68533 -1.69281,1.71807 -0.4865,1.26778 -1.6831,1.63611 -3.68386,1.13395 -2.32099,-0.58252 -3.26603,-0.0794 -4.35977,2.32113 -1.29515,2.84252 -2.09085,3.07588 -10.96886,3.21687 -5.26482,0.0836 -13.0893,0.51503 -17.38772,0.9587 l -7.81532,0.80669 -1.87218,-4.48078 z"
       id="path3426"
       inkscape:connector-curvature="0" />
    <path
       style="fill:#72c2fa"
       d="M 361.83966,635.73323 C 360.82785,633.31161 360,630.72564 360,629.98662 c 0,-0.73902 -2.00119,-5.05003 -4.4471,-9.58003 -4.86119,-9.0033 -18.20528,-25.97475 -34.22744,-43.53159 -19.09907,-20.92849 -25.06445,-31.71185 -29.5678,-53.4486 -3.91774,-18.91006 -6.09151,-23.97323 -9.75841,-22.7293 -10.48149,3.55561 -28.66654,1.35447 -44.49925,-5.38625 -2.40625,-1.02446 -9.4375,-2.30749 -15.625,-2.85118 -6.1875,-0.5437 -17.71875,-2.83772 -25.625,-5.09783 -10.44884,-2.98695 -17.61835,-4.23212 -26.25,-4.55894 -12.5749,-0.47613 -21.875,1.4493 -21.875,4.52885 0,1.68316 -10.08904,6.036 -22.91216,9.88528 -4.90159,1.47136 -8.44556,3.75498 -13.41069,8.64141 -7.5038,7.38487 -12.253791,8.70852 -13.740766,3.82906 -0.471397,-1.54687 -1.67538,-3.74594 -2.675518,-4.88679 -1.6178,-1.84543 -1.518876,-2.16937 0.896596,-2.93601 2.179639,-0.6918 2.606722,-1.59967 2.165782,-4.604 -0.387248,-2.63849 0.03711,-3.95774 1.438753,-4.47281 3.028043,-1.11273 3.824853,-3.02354 2.383703,-5.71634 -1.0325,-1.92925 -0.833,-2.70221 0.95581,-3.70327 3.2331,-1.80934 8.02349,-7.20787 8.02349,-9.04207 0,-0.85731 0.80757,-1.86864 1.79459,-2.24739 0.98703,-0.37876 3.76946,-3.62116 6.18318,-7.20533 4.00352,-5.94488 4.22994,-6.74319 2.58041,-9.09822 -2.54548,-3.63417 -2.31467,-4.21538 2.05513,-5.17516 3.88547,-0.85339 4.07609,-1.57982 1.83499,-6.99266 -0.63276,-1.52826 0.0907,-2.20275 2.98319,-2.78125 2.25486,-0.45098 3.81851,-1.54429 3.81851,-2.66995 0,-4.7558 11.20617,-0.0291 18.49987,7.80309 l 5.45725,5.86017 12.70894,0.4688 c 9.04789,0.33376 17.70156,-0.33022 30.0403,-2.30496 9.53225,-1.52558 20.06034,-2.51156 23.39575,-2.19106 5.04281,0.48455 6.48926,0.13046 8.58651,-2.10197 l 2.52212,-2.68466 -5.8071,-9.94034 c -3.19392,-5.46717 -8.22852,-12.40428 -11.18799,-15.41578 -2.95949,-3.0115 -8.07183,-10.60525 -11.36076,-16.875 -5.5495,-10.57909 -6.02488,-12.20923 -6.60489,-22.64954 l -0.625,-11.25 -4.6875,-1.15796 c -2.57813,-0.63688 -4.6875,-1.60015 -4.6875,-2.1406 0,-2.92124 5.58351,-15.21693 8.67866,-19.11168 1.97026,-2.47925 4.24064,-7.25202 5.04529,-10.60616 0.80641,-3.36154 2.8235,-7.37658 4.49452,-8.94641 2.73341,-2.5679 3.03153,-3.86172 3.03153,-13.1564 0,-9.26825 -0.55692,-11.70289 -5.51928,-24.12793 -3.0356,-7.60072 -5.89928,-15.66076 -6.36376,-17.91119 -1.5474,-7.49728 -7.28822,-25.29192 -9.38544,-29.09167 -2.76075,-5.00196 -5.33637,-5.25953 -12.67163,-1.26718 -5.94527,3.23582 -6.59484,3.31863 -19.54228,2.49125 -13.99925,-0.89457 -18.19419,-0.022 -40.89261,8.50607 -11.41744,4.28966 -19.543793,5.87973 -33.75,6.60381 -9.398056,0.47901 -17.627971,1.63634 -22.036768,3.09891 -3.870221,1.2839 -11.745221,2.92053 -17.5,3.63694 -5.754777,0.71641 -13.422391,2.42816 -17.039141,3.80389 -12.460824,4.73978 -13.342376,1.60242 -1.268841,-4.5157 9.748979,-4.94019 5.143842,-7.29099 -7.041414,-3.59447 -13.0058691,3.94548 -14.5587741,0.85345 -2.205027,-4.39047 4.265533,-1.81064 7.435462,-3.61211 7.044286,-4.00329 -0.391175,-0.39117 -4.75287,0.32838 -9.692655,1.59901 -9.569949,2.46163 -13.7481291,1.52172 -8.7616023,-1.97098 1.6878195,-1.1822 2.4196682,-2.72342 2.0196252,-4.25319 -0.8371803,-3.20138 8.7643031,-7.58116 18.7045531,-8.5322 3.97266,-0.38009 7.520871,-1.173 7.884916,-1.76204 0.364045,-0.58904 -0.214437,-2.32212 -1.285516,-3.8513 -2.560577,-3.65574 -2.467969,-5.2165 0.240084,-4.04616 1.203125,0.51995 5.706911,1.35164 10.008414,1.84819 5.212956,0.60177 9.476468,1.99842 12.7857,4.18837 6.099766,4.03664 8.50162,4.07764 19.510915,0.33314 9.20164,-3.12967 14.397916,-5.71904 25.507471,-12.71061 6.80418,-4.28208 7.02242,-4.3267 21.18549,-4.33182 11.64493,-0.004 16.1971,-0.58062 24.43901,-3.09456 9.14202,-2.78849 10.33335,-3.51896 12.23177,-7.5 1.1568,-2.42584 2.68418,-4.41061 3.39415,-4.41061 0.70999,0 6.04634,-3.79688 11.85858,-8.4375 9.33162,-7.4506 10.57197,-8.91449 10.60435,-12.51553 0.0318,-3.53522 0.91014,-4.63915 6.59915,-8.2937 3.60937,-2.31862 8.13835,-5.68663 10.0644,-7.48447 1.92605,-1.79784 4.58287,-3.2688 5.90406,-3.2688 3.02628,0 13.71904,-5.1295 13.71904,-6.58126 0,-2.53558 -2.65105,-5.678 -5.93915,-7.03998 -4.87025,-2.01732 -10.17426,-11.65602 -7.91328,-14.38035 1.27373,-1.53475 1.31397,-3.2042 0.19066,-7.90939 -0.78313,-3.28021 -1.34082,-11.02652 -1.23931,-17.21402 0.1015,-6.1875 -0.1115,-13.015201 -0.47346,-15.172669 -0.54557,-3.252344 0.0176,-4.53757 3.29576,-7.521014 6.12092,-5.570667 11.34313,-7.940007 17.27164,-7.83622 8.00581,0.140154 13.981,2.655302 14.82755,6.241395 0.39088,1.655727 2.65555,4.289757 5.03263,5.853399 7.23861,4.761564 9.78103,7.730034 13.75852,16.064109 2.09888,4.3978 4.61136,7.996 5.58331,7.996 2.45299,0 4.35513,4.01407 4.35513,9.19059 0,5.58532 -1.06831,8.30941 -3.25874,8.30941 -1.30506,0 -1.74126,1.9832 -1.74126,7.91666 0,4.35418 0.3509,8.26758 0.77977,8.69645 0.42888,0.42888 3.05933,-0.38316 5.84543,-1.80452 3.80543,-1.94138 6.59881,-2.43699 11.2284,-1.99214 6.38964,0.61396 16.96799,-2.43215 20.99483,-6.04561 1.08538,-0.97396 3.05413,-1.78153 4.375,-1.79459 6.0534,-0.0599 24.00365,-14.82242 31.74026,-26.10366 6.43961,-9.39 13.62266,-15.935304 25.86722,-23.570627 10.0613,-6.2739 41.67773,-30.444073 45.64147,-34.892049 1.11988,-1.256703 4.903,-6.463199 8.4069,-11.569992 4.7793,-6.965648 6.37072,-10.416036 6.37072,-13.812499 0,-2.490083 0.62596,-5.153383 1.39103,-5.918445 0.76506,-0.765063 1.86543,-3.930444 2.44527,-7.034183 0.57984,-3.103737 2.03555,-7.7934021 3.2349,-10.421477 l 2.18064,-4.778318 0.68657,6.875 0.68659,6.875 2.29388,-4.2061272 c 1.65264,-3.0303554 2.67396,-3.8260341 3.65358,-2.8464072 0.97963,0.9796269 0.9499,2.2591958 -0.10637,4.5774434 -0.80635,1.769748 -1.46609,4.183961 -1.46609,5.364918 0,1.180958 -1.125,4.246202 -2.5,6.811654 -2.4058,4.488706 -3.49459,14.69765 -1.5625,14.650773 0.51562,-0.01251 3.41277,-1.700012 6.4381,-3.75 C 444.15094,31.677264 447.42655,30 448.40475,30 c 3.2194,0 1.06211,4.200314 -4.14879,8.07781 -2.80664,2.088454 -6.31577,5.872394 -7.79809,8.408754 -1.48231,2.53636 -4.97382,6.47386 -7.75889,8.75 C 425.91389,57.512704 416.48977,67.8125 407.75651,78.125 387.089,102.5298 370.3297,120.10003 359.06297,129.17465 354.07834,133.18946 350,136.92377 350,137.47312 c 0,0.54937 -4.78125,5.88895 -10.625,11.86575 -8.13756,8.32285 -10.625,11.67392 -10.625,14.31395 0,2.93499 -0.77204,3.70183 -5.19741,5.16233 -5.36993,1.77224 -12.6157,8.2175 -15.38453,13.68485 -4.13889,8.1727 -4.44591,15.04449 -3.65815,81.875 0.91849,77.91925 0.91399,80.59214 -0.14937,88.79787 -0.52504,4.05162 -0.14775,8.95582 1.05782,13.75 1.03068,4.09867 2.24178,11.95213 2.69135,17.45213 0.87371,10.68896 -0.9996,38.26274 -3.33156,49.03779 -1.39463,6.44404 -1.34876,6.63741 3.19782,13.48508 2.53702,3.82102 4.26017,7.51779 3.82923,8.21507 -0.43094,0.69726 0.86962,5.59772 2.89014,10.88991 5.05907,13.25086 6.50873,17.38597 8.63191,24.62215 1.00859,3.4375 2.33216,7.375 2.94126,8.75 0.6091,1.375 1.6418,6.15625 2.29489,10.625 0.98359,6.73019 2.39065,9.94085 8.19639,18.7026 6.19023,9.34202 11.99021,21.51033 11.99021,25.15536 0,0.6953 3.46955,8.25244 7.71011,16.79364 7.97804,16.0691 13.58674,23.18233 22.91489,29.06176 2.75,1.73329 7.53125,5.23744 10.625,7.78698 3.09375,2.54955 9,5.87155 13.125,7.38221 8.63589,3.16265 10.625,5.21848 10.625,10.98136 0,3.32405 -0.49852,4.13609 -2.53923,4.13609 -1.39658,0 -2.85371,0.81951 -3.23807,1.82114 -0.46798,1.21951 -1.79706,1.6041 -4.02326,1.16413 -2.60333,-0.51448 -3.59558,-0.0444 -4.57444,2.16717 -1.04984,2.37194 -2.35086,2.87458 -8.125,3.13911 -3.78125,0.17323 -11.53153,0.65913 -17.22284,1.07977 l -10.34784,0.76483 -1.83966,-4.40292 z"
       id="path3424"
       inkscape:connector-curvature="0" />
    <path
       style="fill:#57b5f6"
       d="m 361.83966,635.73323 c -1.01181,-2.42162 -1.84312,-5.12413 -1.84736,-6.00558 -0.004,-0.88146 -0.92691,-3.29015 -2.0504,-5.35265 -1.12349,-2.0625 -2.94815,-5.52115 -4.0548,-7.68589 -1.10666,-2.16475 -4.2621,-6.64585 -7.0121,-9.958 -15.57299,-18.75645 -19.54946,-23.41577 -27.5,-32.22239 -17.65961,-19.56111 -23.68779,-30.94266 -28.12245,-53.09685 -1.42718,-7.12971 -3.41493,-14.9258 -4.41723,-17.32463 -1.66481,-3.98445 -2.1201,-4.26862 -5.26633,-3.28688 -5.19624,1.6214 -27.31763,0.77886 -31.93623,-1.21636 -8.60847,-3.71883 -21.79061,-7.11936 -27.53124,-7.10211 -5.65872,0.017 -26.449,-4.59634 -34.21685,-7.5927 -6.79401,-2.62072 -16.08203,-3.40245 -26.55462,-2.23499 -10.05648,1.12107 -14.50128,2.74846 -13.21059,4.83685 0.59038,0.95525 -13.08354,6.69946 -25.05941,10.52709 -4.37949,1.39973 -8.1962,3.9283 -12.45301,8.2501 -6.77763,6.8811 -11.129262,8.06711 -12.545656,3.41926 -0.471396,-1.54688 -1.721483,-3.79688 -2.777969,-5 -1.733056,-1.9736 -1.722899,-2.1875 0.103875,-2.1875 2.380225,0 4.542786,-3.62234 3.653761,-6.12013 -0.341624,-0.95982 0.71876,-2.76303 2.356409,-4.00713 2.64103,-2.00637 2.79117,-2.56458 1.32843,-4.9391 -0.90701,-1.4724 -1.46951,-2.78569 -1.25,-2.91843 4.77744,-2.88889 9.77411,-7.632 9.77411,-9.27814 0,-1.17463 1.15052,-2.85421 2.55671,-3.7324 1.40619,-0.87817 4.19719,-4.18346 6.20223,-7.34507 3.31615,-5.22904 3.48043,-5.9841 1.81829,-8.35713 -2.56595,-3.66341 -2.3398,-4.24126 2.03608,-5.20236 3.87048,-0.8501 4.07364,-1.59829 1.87233,-6.89535 -0.5796,-1.39471 0.32233,-2.25352 3.29568,-3.13808 2.25153,-0.66982 3.95305,-1.91509 3.78118,-2.76727 -0.95615,-4.74072 11.304,0.80444 18.06216,8.16936 l 5.41963,5.90623 13.55467,0.4185 c 9.73256,0.30049 18.09751,-0.34115 29.66535,-2.2755 8.86088,-1.48169 19.00411,-2.51376 22.54051,-2.29349 4.91693,0.30625 7.03684,-0.14855 9.00963,-1.9329 l 2.57981,-2.33339 -3.08371,-5.79161 c -6.14131,-11.53416 -7.91129,-14.14265 -13.93604,-20.53817 -3.41116,-3.62109 -8.72981,-11.59557 -12.00046,-17.9928 C 198.99187,388.11937 198.75,387.21027 198.75,377.05801 l 0,-10.58826 -4.99639,-0.84414 c -4.6419,-0.78425 -4.94096,-1.08027 -4.21509,-4.17237 1.40472,-5.98386 5.64168,-14.97885 8.10611,-17.20913 1.32739,-1.20127 3.30639,-5.31951 4.39777,-9.15162 1.09138,-3.83213 3.25859,-8.37374 4.81601,-10.09249 3.82091,-4.21668 4.92205,-16.49189 2.28248,-25.44448 -1.04278,-3.53678 -2.31701,-6.99302 -2.83164,-7.68052 -1.42376,-1.90205 -7.02844,-18.57556 -10.71456,-31.875 -6.88525,-24.84186 -8.27295,-26.29292 -19.76688,-20.66948 -6.5052,3.1827 -7.3594,3.2871 -20.37136,2.48995 -13.42594,-0.82252 -13.73174,-0.77911 -26.70645,3.79129 -27.91509,9.83321 -30.249733,10.39269 -47.031151,11.27065 -10.840669,0.56715 -18.24104,1.61759 -22.672069,3.21813 -3.618022,1.30687 -11.211772,2.92228 -16.875,3.58981 -5.663229,0.66751 -13.255939,2.36026 -16.872689,3.76166 C 21.682342,268.8534 17.816592,270 16.708536,270 c -3.272455,0 0.339841,-3.48177 6.545068,-6.30859 11.08719,-5.0508 7.18574,-7.63616 -6.613984,-4.38287 -5.117344,1.20642 -9.6047934,1.89295 -9.9721101,1.52563 -1.4004539,-1.40045 1.0135501,-3.06521 8.2940961,-5.71983 13.107991,-4.77942 8.463036,-6.16005 -6.185307,-1.83848 -6.5289871,1.92619 -9.709997,0.36404 -5.4024613,-2.65307 1.6878195,-1.1822 2.4196682,-2.72342 2.0196252,-4.25319 -0.8371803,-3.20138 8.7643031,-7.58116 18.7045531,-8.5322 3.97266,-0.38009 7.511663,-1.1581 7.86445,-1.72893 0.352789,-0.57082 -0.301889,-2.47755 -1.454839,-4.23717 -2.242555,-3.42257 -1.606585,-5.56226 1.024665,-3.44744 0.875989,0.70406 5.062848,1.51995 9.304129,1.81308 5.75269,0.39758 8.944805,1.3877 12.567188,3.89801 2.670672,1.85077 6.247387,3.36505 7.948257,3.36505 5.285711,0 22.500194,-6.23846 29.408056,-10.65738 C 104.4943,218.05685 106.28105,217.5 120.73734,217.5 c 9.82223,0 15.95237,-0.71677 23.26157,-2.71989 9.20718,-2.52326 10.10093,-3.06543 12.36326,-7.5 1.34125,-2.62906 3.04645,-4.78011 3.78935,-4.78011 0.74289,0 5.54608,-3.375 10.67375,-7.5 5.12768,-4.125 9.85217,-7.5 10.49889,-7.5 0.64671,0 1.17584,-2.25699 1.17584,-5.01553 0,-4.74327 0.39015,-5.26331 7.1875,-9.58032 3.95312,-2.51065 8.42626,-5.87866 9.94031,-7.48448 1.51405,-1.60582 3.92709,-2.91967 5.3623,-2.91967 1.43521,0 4.76743,-1.1009 7.40491,-2.44644 2.63748,-1.34555 5.14633,-2.09555 5.5752,-1.66667 0.42888,0.42887 0.77978,-0.43898 0.77978,-1.92855 0,-2.73249 -2.20473,-5.32232 -7.82723,-9.1944 -1.68596,-1.16109 -4.04623,-4.17807 -5.24505,-6.70439 -1.91017,-4.0254 -1.95419,-4.81879 -0.35607,-6.41691 1.5716,-1.5716 1.58634,-2.51224 0.10662,-6.80714 -1.03983,-3.01816 -1.71495,-10.25377 -1.71182,-18.34702 0.002,-7.34991 -0.0453,-14.673048 -0.10688,-16.273631 -0.24073,-6.258227 11.2724,-13.800488 20.4274,-13.381994 9.52067,0.435207 13.20865,1.889164 14.54969,5.736081 0.70823,2.03161 3.53081,4.983031 6.6354,6.938256 6.5883,4.149229 7.52465,5.300695 12.34433,15.180308 2.09618,4.29687 4.30483,7.8125 4.90811,7.8125 0.60327,0 1.9808,0.88393 3.06115,1.96429 3.21404,3.21397 2.17783,15.53571 -1.30644,15.53571 -1.3076,0 -1.72921,2.13342 -1.72921,8.75 0,9.73294 0.5195,10.17791 7.1199,6.09865 3.40276,-2.10304 5.61696,-2.52385 10.70641,-2.03483 7.16648,0.68862 16.25437,-1.7563 20.37925,-5.48261 1.41932,-1.28216 3.59573,-2.33121 4.83649,-2.33121 6.51369,0 24.58221,-15.11925 32.89855,-27.52862 5.21144,-7.77633 12.8733,-14.555407 24.6844,-21.840329 9.8541,-6.077866 43.10381,-31.834855 46.99973,-36.408472 1.09983,-1.291169 4.61546,-6.141907 7.8125,-10.779417 4.33873,-6.293641 5.82285,-9.621958 5.85252,-13.125 0.0219,-2.58124 0.86563,-5.785047 1.875,-7.119575 1.00939,-1.334526 1.83525,-3.478833 1.83525,-4.765127 0,-3.209174 3.7974,-14.5652145 5.15009,-15.401222 0.60495,-0.37387926 1.10271,2.3065416 1.10612,5.9564907 l 0.006,6.6362713 3.00675,-3.75 c 1.65372,-2.0625 3.38007,-3.3802351 3.83633,-2.9283003 0.89736,0.8888454 -2.41339,12.1098263 -5.16225,17.4961653 -1.78804,3.503616 -2.3503,13.573077 -0.75574,13.534389 0.51563,-0.01251 3.41278,-1.700012 6.4381,-3.75 C 446.8408,29.854586 450,29.016669 450,31.373488 450,32.857332 442.81994,40 441.32832,40 c -0.49901,0 -2.74574,2.837234 -4.99276,6.304965 -2.24701,3.46773 -5.78217,7.545855 -7.8559,9.0625 -2.07374,1.516644 -13.19062,13.726285 -24.7042,27.132535 -11.51358,13.40625 -23.41636,26.625 -26.4506,29.375 -3.03425,2.75 -6.3455,6.15785 -7.35833,7.573 -1.01284,1.41515 -5.09701,5.01429 -9.0759,7.99808 -3.97892,2.98378 -10.08243,8.85718 -13.56337,13.05199 -3.48095,4.19482 -9.08485,10.06118 -12.45312,13.03637 -5.01204,4.42712 -6.12414,6.16168 -6.12414,9.55199 0,3.47782 -0.55159,4.28022 -3.4375,5.0005 -9.4183,2.35067 -16.68266,10.61893 -19.97166,22.7317 -2.17145,7.99705 -2.29071,16.65702 -1.31421,95.43137 0.30253,24.40625 0.99096,47.81763 1.52982,52.02529 0.67279,5.25337 0.54329,7.92004 -0.41335,8.51126 -1.96731,1.21588 -1.70309,12.573 0.4819,20.71345 1.28138,4.77391 1.83736,13.17828 1.81926,27.5 -0.0234,18.47043 -0.6482,26.93948 -3.04347,41.25 -0.59499,3.55474 0.0279,5.54681 3.3225,10.625 2.23014,3.4375 4.14267,7.65625 4.25009,9.375 0.10737,1.71875 3.60381,12.84708 7.76976,24.72961 4.16595,11.88253 8.13587,25.21075 8.82206,29.61827 0.94769,6.08717 2.49854,9.85572 6.45115,15.6762 5.82311,8.57491 11.72035,20.08273 12.96403,25.2979 1.62135,6.79887 14.35576,31.68197 19.53122,38.1641 2.90313,3.63608 7.32254,7.65616 9.82091,8.93351 2.49837,1.27733 8.02772,5.11136 12.28743,8.52005 4.25971,3.4087 10.16596,6.88026 13.125,7.7146 7.94804,2.24105 10.06245,4.25145 10.2327,9.72931 0.12487,4.0192 -0.28106,4.8023 -2.66514,5.14089 -1.54687,0.21968 -2.8125,1.19 -2.8125,2.15625 0,1.25872 -0.99532,1.55775 -3.51062,1.05468 -2.81564,-0.56312 -3.76078,-0.14152 -4.77423,2.12972 -1.05694,2.3687 -2.37379,2.88577 -8.05187,3.16162 -3.73355,0.18139 -11.44481,0.67397 -17.13612,1.09462 l -10.34784,0.76482 -1.83966,-4.40292 z"
       id="path3422"
       inkscape:connector-curvature="0" />
    <path
       style="fill:#30a6f9"
       d="m 362.74412,637.91014 c -0.65908,-1.25683 -1.6135,-4.21644 -2.12091,-6.57692 -0.50741,-2.36047 -2.81992,-7.7436 -5.13892,-11.96251 -4.27002,-7.76832 -26.16682,-34.97322 -39.26433,-48.78255 -13.8229,-14.57415 -19.92407,-26.67704 -24.47821,-48.5574 -3.74414,-17.98871 -5.80335,-22.58266 -9.64894,-21.52612 -10.87112,2.98675 -24.97767,1.57037 -41.21546,-4.13825 -6.0487,-2.12651 -13.47414,-3.86639 -16.50098,-3.86639 -7.02803,0 -14.92953,-1.64104 -34.36583,-7.13734 -13.73433,-3.88386 -16.66933,-4.3176 -24.375,-3.6022 -11.59235,1.07624 -17.87217,2.85813 -18.36115,5.20994 -0.41865,2.01346 -10.68954,6.64561 -22.14803,9.9887 -4.99667,1.45781 -8.59553,3.73061 -13.86301,8.75492 -3.91291,3.73229 -8.18852,6.76767 -9.50137,6.74527 -1.50117,-0.0256 -3.181581,-1.73349 -4.528182,-4.60224 -2.06984,-4.4095 -2.057742,-4.61999 0.36301,-6.31555 1.75278,-1.22769 2.25752,-2.53127 1.682089,-4.34429 -0.593821,-1.87096 -3.84e-4,-3.21457 2.136993,-4.83838 2.64208,-2.00725 2.77937,-2.53983 1.2814,-4.97099 -1.40362,-2.27804 -1.40362,-2.89662 0,-3.78623 0.92274,-0.58482 2.07767,-1.07195 2.56652,-1.08247 1.74535,-0.0376 5.98619,-5.5314 5.98619,-7.75484 0,-1.24536 0.7235,-2.2643 1.60778,-2.2643 0.88427,0 3.70346,-3.18228 6.26486,-7.07171 4.36681,-6.63093 4.5393,-7.2515 2.76723,-9.95603 -2.49216,-3.80352 -2.49882,-3.78797 2.00644,-4.68902 2.94498,-0.589 3.74519,-1.31385 3.27738,-2.96875 -0.3404,-1.20422 -0.82813,-2.97381 -1.0838,-3.93243 -0.29279,-1.0977 1.07945,-2.16259 3.70677,-2.87652 3.04408,-0.82719 3.96941,-1.66068 3.42338,-3.08363 -0.5948,-1.55 -0.11563,-1.79124 2.3357,-1.17598 6.80133,1.70702 9.66113,3.43666 15.1378,9.15548 l 5.72063,5.97359 13.72731,0.42467 c 8.74163,0.27043 17.96439,-0.29757 25.39357,-1.56392 6.41646,-1.09373 16.46604,-2.04049 22.3324,-2.10391 9.37315,-0.10138 10.98757,-0.4575 13.31796,-2.93809 l 2.65186,-2.82277 -5.28522,-9.24799 c -2.90688,-5.08639 -8.21351,-12.51551 -11.79253,-16.50915 -3.57901,-3.99364 -9.0953,-12.32451 -12.25841,-18.51307 C 199.02666,387.89016 198.75,386.84781 198.75,376.93317 198.75,365.83221 198.27259,365 191.9044,365 c -2.62103,0 -2.80341,-0.37953 -1.9523,-4.0625 1.34076,-5.80176 6.0529,-15.3283 8.82094,-17.83335 1.29848,-1.17511 3.04703,-5.20268 3.88568,-8.95014 1.00039,-4.4702 2.55784,-7.62616 4.52844,-9.17623 2.70199,-2.12539 3.02543,-3.40543 3.22073,-12.74658 0.20201,-9.66172 -0.19083,-11.42622 -5.64823,-25.37006 -3.22594,-8.24238 -7.32459,-20.32989 -9.10812,-26.86114 -6.96565,-25.50809 -8.06084,-26.71021 -19.4339,-21.3316 -7.36692,3.484 -8.16262,3.59378 -21.62052,2.98259 l -13.97212,-0.63453 -20,7.13517 c -19.26375,6.87248 -20.637806,7.17407 -37.325776,8.19236 -11.694419,0.71359 -19.663688,1.8663 -24.518733,3.54649 -3.956125,1.3691 -11.6979,3.05413 -17.203946,3.74453 -5.506045,0.6904 -13.035115,2.40468 -16.731268,3.8095 C 17.21924,270.343 16.25,270.49259 16.25,268.77106 c 0,-0.67592 2.772693,-2.63397 6.161539,-4.35124 7.085221,-3.59035 8.201851,-4.85465 5.943216,-6.72915 -1.161226,-0.96372 -3.185529,-0.87709 -7.173736,0.30702 -16.0074244,4.75264 -20.41719827,2.93421 -6.442911,-2.65683 4.269041,-1.70801 7.761892,-3.63394 7.761892,-4.27981 0,-1.36041 -7.099687,-0.24119 -14.1955991,2.23785 -5.8981455,2.06057 -8.00717953,1.07699 -4.9483293,-2.30775 1.2479106,-1.38086 2.0964773,-3.55418 1.8857038,-4.82958 -0.4951588,-2.99625 6.2473416,-5.95136 17.2310466,-7.55207 9.731092,-1.41818 11.069397,-2.45769 8.403056,-6.52704 -2.068197,-3.15647 -1.507644,-5.36784 0.884111,-3.48781 0.750756,0.59014 4.947595,1.38174 9.326307,1.75911 6.254689,0.53906 9.128203,1.52416 13.404895,4.59545 l 5.443598,3.9093 11.95655,-3.73741 c 7.450317,-2.32884 16.02958,-6.2359 22.763665,-10.36675 l 10.807116,-6.62935 16.95644,-0.77638 c 16.17885,-0.74078 28.26453,-3.03461 31.9043,-6.05535 0.92503,-0.7677 2.00481,-2.68256 2.39953,-4.25525 0.39472,-1.57268 2.03573,-3.45997 3.64672,-4.19398 1.61098,-0.73402 5.55398,-3.60644 8.76224,-6.38317 3.20825,-2.77672 7.52868,-6.05013 9.60092,-7.27423 2.71188,-1.60195 3.76773,-3.17237 3.76773,-5.60392 0,-5.50146 1.16273,-7.09931 8.02166,-11.0236 3.58554,-2.05143 7.5177,-4.83326 8.73815,-6.18185 1.22045,-1.34857 6.38347,-3.74467 11.47336,-5.32464 8.11867,-2.52017 9.1659,-3.18288 8.53355,-5.40017 -0.39643,-1.3901 -1.87802,-3.37121 -3.29241,-4.40246 -8.46912,-6.17495 -12.64105,-13.32822 -10.11181,-17.33791 0.83481,-1.32344 0.68502,-3.76393 -0.46565,-7.58736 -0.97313,-3.23345 -1.66254,-10.97896 -1.6171,-18.16806 0.0436,-6.89242 0.0572,-13.904394 0.0304,-15.582169 -0.0479,-2.995325 4.26384,-8.824501 6.5273,-8.824501 0.63342,0 2.68042,-1.088574 4.5489,-2.419054 6.32598,-4.504491 21.61429,-1.732976 23.10029,4.187694 0.51128,2.037085 2.57016,4.102296 5.66248,5.67988 6.16402,3.14465 11.91602,10.09509 14.65276,17.70569 1.48655,4.13396 2.98557,6.14789 4.94144,6.63878 5.12315,1.28583 5.4953,14.2872 0.48568,16.96826 -1.9039,1.01894 -2.27513,2.56232 -2.07885,8.64249 0.13144,4.07111 0.65932,7.82236 1.17307,8.33611 0.51375,0.51375 3.6858,-0.35475 7.049,-1.92999 4.36711,-2.04543 7.49228,-2.68137 10.93386,-2.22486 6.05534,0.8032 16.92949,-2.14217 19.85871,-5.37894 1.22249,-1.35083 3.5168,-2.45606 5.09846,-2.45606 6.12479,0 20.82309,-11.55164 29.42424,-23.125 11.27828,-15.175604 12.42953,-16.198274 32.31254,-28.703827 6.83861,-4.301187 32.56406,-24.408747 39.12174,-30.578375 7.922,-7.453224 17.12826,-21.761555 17.12826,-26.620669 0,-2.334368 0.82586,-5.33619 1.83525,-6.670716 1.00938,-1.334528 1.85359,-3.832663 1.87601,-5.551413 0.0418,-3.19992 3.79702,-14.1749406 5.39794,-15.77587044 0.48994,-0.48993792 0.91103,2.15607884 0.93575,5.88003704 l 0.045,6.7708334 3.02473,-3.7011503 c 1.66359,-2.0356326 3.36948,-3.35639 3.79086,-2.9350162 0.42137,0.4213737 -0.75713,4.8993915 -2.6189,9.9511505 C 433.91757,27.616654 432.63829,37.5 435.31062,37.5 c 0.99105,0 2.7735,-1.073601 3.96102,-2.385781 2.41833,-2.672242 9.18842,-5.820818 10.24471,-4.764529 1.20887,1.208867 -1.7295,5.198305 -5.72681,7.77531 -2.13284,1.375 -5.60307,5.170199 -7.71163,8.433775 -2.10856,3.263577 -6.02749,7.671247 -8.70871,9.794825 -2.68124,2.123578 -13.8457,14.359629 -24.80993,27.191225 -10.96421,12.831596 -24.76718,27.830175 -30.67326,33.330175 -12.82172,11.94017 -22.96884,21.87574 -34.56595,33.84532 -6.78521,7.00314 -8.57006,9.639 -8.57006,12.65625 0,3.14642 -0.5994,3.9387 -3.4375,4.54367 -9.44254,2.01277 -17.72148,11.86928 -20.51429,24.42333 -1.65381,7.43407 -1.73757,18.14197 -0.75901,97.03143 0.31552,25.4375 1.0058,48.36554 1.53392,50.9512 0.63964,3.13156 0.45772,5.30671 -0.54487,6.51476 -1.62976,1.96374 -1.39305,7.42169 1.27807,29.46903 1.26197,10.41615 1.29375,17.76615 0.15142,35 -0.7953,11.99826 -1.77549,23.51885 -2.17822,25.60131 -0.57962,2.99734 0.20014,5.17175 3.74213,10.43512 2.46087,3.65685 4.13819,7.19271 3.72735,7.85745 -0.64616,1.0455 5.11085,19.40767 8.36209,26.67113 1.27103,2.83957 6.58937,19.34844 6.8457,21.25 1.71532,12.72524 2.52035,15.14677 7.41321,22.29895 6.65324,9.7254 9.85064,16.00783 13.94422,27.39837 5.78507,16.09711 15.03239,33.04264 21.50012,39.39849 8.42512,8.2794 25.65671,20.21002 33.14045,22.94542 7.91432,2.89278 9.71635,4.69856 9.96886,9.98956 0.16692,3.49787 -0.27949,4.2875 -2.61115,4.61865 -1.54688,0.21969 -2.8125,1.19 -2.8125,2.15625 0,1.29274 -1.0097,1.55487 -3.82238,0.99234 -3.16051,-0.6321 -3.93941,-0.31697 -4.49822,1.81995 -0.71661,2.74035 -0.6711,2.73201 -25.64568,4.69747 -8.47363,0.66686 -9.7309,0.48854 -10.7896,-1.53031 z"
       id="path3420"
       inkscape:connector-curvature="0" />
    <path
       style="fill:#0095fd"
       d="m 364.13075,639.07451 c -0.82184,-0.55699 -2.101,-3.72011 -2.84258,-7.02918 -0.74157,-3.30907 -2.74103,-8.06605 -4.44325,-10.57108 -1.70221,-2.50502 -3.09492,-5.02009 -3.09492,-5.58904 0,-1.85994 -11.19282,-15.49285 -41.5929,-50.66037 -9.66856,-11.18483 -16.70991,-25.49579 -19.17659,-38.97484 -2.50876,-13.70903 -5.4486,-23.4174 -7.6425,-25.23818 -1.32077,-1.09614 -3.21794,-1.06671 -7.8556,0.12188 -4.78438,1.2262 -8.23425,1.25073 -15.86085,0.11275 -5.36061,-0.79988 -10.87156,-1.9131 -12.24656,-2.47383 -7.80521,-3.18298 -19.57809,-6.27262 -23.90144,-6.27262 -5.88009,0 -21.44377,-3.33945 -37.92414,-8.13728 -10.08312,-2.93542 -13.21421,-3.33007 -21.25,-2.6784 -11.51477,0.93383 -18.79942,2.89142 -18.79942,5.05196 0,1.48047 -6.42789,4.32738 -23.125,10.24207 -3.86293,1.36838 -8.95969,4.75528 -13.3447,8.8678 -3.90209,3.65963 -7.92143,6.65385 -8.93187,6.65385 -1.01045,0 -2.9159,-2.1803 -4.234344,-4.84511 -2.359833,-4.76965 -2.359954,-4.86837 -0.0078,-6.33738 1.58059,-0.98709 2.160794,-2.36679 1.713918,-4.07562 -0.449204,-1.71776 0.242567,-3.33655 2.064556,-4.83122 2.40298,-1.97127 2.53902,-2.57756 1.1057,-4.92747 -1.44809,-2.37412 -1.34121,-2.75631 0.9375,-3.3522 1.41462,-0.36993 2.57199,-1.15183 2.57199,-1.73756 0,-0.58574 0.85013,-0.73875 1.88918,-0.34003 1.3518,0.51874 1.66932,0.15201 1.11626,-1.28923 -0.51548,-1.34333 -0.0959,-2.01418 1.25964,-2.01418 1.54387,0 1.84398,-0.75133 1.24823,-3.125 -0.58903,-2.34685 -0.29197,-3.125 1.19297,-3.125 1.9853,0 10.79372,-11.84749 10.79372,-14.51776 0,-0.78437 -0.84375,-2.12638 -1.875,-2.98224 -2.77621,-2.30405 -2.29253,-3.5359 1.5625,-3.97947 3.10383,-0.35714 3.41243,-0.83643 3.17923,-4.93763 -0.23384,-4.1123 0.0914,-4.61203 3.43749,-5.28125 2.1556,-0.43111 3.69578,-1.53356 3.69578,-2.6454 0,-2.34575 -0.119,-2.34788 5.78485,0.10337 2.66208,1.10532 7.7596,4.76157 11.32782,8.125 l 6.48768,6.11533 14.90421,0 c 8.19731,0 17.93411,-0.58643 21.63733,-1.30316 3.70321,-0.71674 13.17196,-1.57351 21.04167,-1.90394 14.29926,-0.60035 18.81644,-2.07149 18.81644,-6.128 0,-2.63312 -10.31246,-18.67391 -16.46317,-25.60808 -3.32634,-3.75002 -8.69828,-11.90627 -11.93764,-18.125 -5.41935,-10.40372 -5.94305,-12.2053 -6.55698,-22.55677 l -0.66721,-11.25 -4.0625,-0.3917 c -3.23581,-0.31199 -4.05691,-0.9479 -4.03505,-3.125 0.0366,-3.64091 3.8116,-11.7773 8.4087,-18.12341 2.05194,-2.83262 4.09121,-7.4042 4.53174,-10.15909 0.4982,-3.11552 2.2149,-6.45533 4.54154,-8.83544 3.46867,-3.54841 3.74057,-4.4953 3.74057,-13.02664 0,-7.85012 -0.74687,-11.06168 -5.09002,-21.88702 -2.79952,-6.97781 -7.02512,-19.55276 -9.39023,-27.94433 -7.9294,-28.13397 -9.0887,-29.53011 -19.95538,-24.03207 -7.53363,3.81167 -9.77965,4.0527 -23.68937,2.54212 -8.1432,-0.88433 -9.6602,-0.63018 -21.875,3.66483 -25.5066,8.96874 -31.373077,10.37454 -49.375,11.83195 -10.835985,0.87725 -20.356006,2.3832 -25,3.95467 -4.125,1.39585 -11.742135,3.03275 -16.926967,3.63757 -5.184833,0.60481 -12.377532,2.26266 -15.983775,3.68411 -7.528781,2.96756 -7.714258,3.00057 -7.714258,1.37297 0,-0.66629 3.09375,-2.72632 6.875,-4.57782 10.500453,-5.14156 8.507348,-9.47412 -2.782475,-6.04847 C 17.060386,259.15811 12.40625,259.94414 10,259.90892 l -4.375,-0.064 5,-2.28153 c 2.75,-1.25485 6.96875,-3.13125 9.375,-4.16979 3.801236,-1.6406 4.063022,-2.01412 1.996147,-2.84807 -1.310658,-0.52884 -4.678437,-0.2589 -7.5,0.60116 C 11.679516,252.00523 7.40625,252.96993 5,253.29046 l -4.375,0.5828 3.4461484,-2.92799 c 2.4053747,-2.0437 3.0500235,-3.32409 2.1345228,-4.23959 -0.9155004,-0.91551 -0.823734,-1.70757 0.3038518,-2.62263 2.034839,-1.65131 12.86751,-5.33074 15.721661,-5.34002 1.179098,-0.004 4.293303,-0.60385 6.920455,-1.33337 4.759786,-1.32171 4.769356,-1.33751 2.712621,-4.47648 -1.13521,-1.73255 -1.878446,-3.31128 -1.651639,-3.50829 1.356839,-1.17856 18.208159,2.16775 21.493683,4.26819 8.589831,5.4915 8.434243,5.47568 19.793355,2.01094 5.869363,-1.79026 15.104918,-5.92326 20.523456,-9.18444 14.499745,-8.72676 15.464485,-9.01583 30.223205,-9.05598 15.88688,-0.0433 29.79537,-3.23396 32.75368,-7.51401 3.34969,-4.8463 18.40377,-17.6694 24.69851,-21.03824 2.07673,-1.11142 2.80149,-2.62284 2.80149,-5.84221 0,-3.69158 0.76712,-4.85665 5.11509,-7.76851 2.8133,-1.8841 7.17267,-5.1614 9.6875,-7.28292 2.51482,-2.12151 8.50991,-5.18987 13.32241,-6.81857 4.8125,-1.6287 8.96634,-3.10926 9.23075,-3.29013 1.51637,-1.03725 -3.12773,-7.92547 -6.20193,-9.19885 -5.70907,-2.36477 -11.36842,-13.71431 -7.56363,-15.1685 0.5996,-0.22916 0.19796,-4.76037 -0.89254,-10.06935 -1.58365,-7.70989 -1.69751,-10.72119 -0.56573,-14.96146 1.09975,-4.12021 1.05355,-6.36368 -0.20636,-10.02061 -1.39722,-4.055465 -1.33969,-5.269092 0.41304,-8.712106 2.94685,-5.788734 10.49647,-9.65767 18.9747,-9.723919 8.4448,-0.06599 12.9221,1.87221 14.60126,6.32079 0.73479,1.946688 3.17761,4.263238 5.81573,5.515105 5.85098,2.776478 9.75043,7.477384 13.29357,16.02584 1.76351,4.25479 3.95298,7.35566 5.78219,8.1891 2.58315,1.17696 2.94395,2.20156 2.94395,8.36018 0,5.96757 -0.37444,7.11673 -2.5,7.67258 -2.11415,0.55286 -2.5,1.70503 -2.5,7.46515 0,3.74627 0.58722,7.90864 1.30495,9.2497 1.26968,2.37241 1.4574,2.34898 6.9457,-0.86739 4.63619,-2.71698 6.6121,-3.17256 11.09493,-2.55812 6.33896,0.86885 16.24602,-1.6912 20.99217,-5.42452 1.74986,-1.37644 4.21785,-2.52018 5.48441,-2.54164 6.00449,-0.10175 23.39413,-14.40188 29.92122,-24.60535 5.96892,-9.33095 13.83348,-16.653941 25.56591,-23.805435 10.66097,-6.498389 39.44428,-28.502164 45.86299,-35.060559 C 416.00155,46.24541 425,31.55444 425,26.924654 c 0,-2.352412 0.5625,-4.624755 1.25,-5.049654 0.6875,-0.424899 1.25,-2.237531 1.25,-4.028071 0,-4.006931 4.02525,-16.5754591 5.3125,-16.5878817 0.51562,-0.00498 0.9375,2.5222027 0.9375,5.6159527 0,6.40886 1.34197,7.189251 3.76166,2.1875 3.18816,-6.5902315 2.80716,0.4508196 -0.55082,10.179781 -2.92728,8.481095 -4.31395,19.507719 -2.45321,19.507719 0.41668,0 2.88826,-1.6875 5.49237,-3.75 2.60411,-2.0625 6.06006,-3.741555 7.67987,-3.731234 2.57052,0.01638 2.03089,0.867305 -4.24237,6.68973 -3.95313,3.669029 -7.1875,7.181429 -7.1875,7.805333 0,0.623902 -5.48438,6.777157 -12.1875,13.6739 -6.70313,6.896741 -17.78418,19.266521 -24.62455,27.4884 -12.7308,15.301931 -35.88701,39.323871 -37.9067,39.323871 -0.61919,0 -3.9543,2.95312 -7.41134,6.5625 -23.01443,24.02856 -25.36991,26.81682 -25.36991,30.03126 0,2.72085 -1.02334,3.74193 -5.92193,5.9088 -17.57277,7.77328 -21.66541,21.85918 -19.60017,67.45938 0.60811,13.42718 1.11499,42.69431 1.12639,65.03806 0.0113,22.34375 0.49101,41.35276 1.06582,42.24225 0.61038,0.94452 0.42139,2.36881 -0.45432,3.42397 -1.5991,1.92679 -1.33038,8.72127 1.2343,31.20878 1.45238,12.73474 1.00623,28.99619 -1.40113,51.06987 l -1.34361,12.31987 3.88209,5.50756 c 2.13515,3.02915 3.84123,6.76646 3.79131,8.30512 -0.0499,1.53867 2.80261,10.67258 6.33895,20.29758 3.53634,9.625 7.75644,23.30302 9.37797,30.39561 2.47485,10.82493 3.98318,14.47198 9.3934,22.71275 3.54483,5.39943 8.39194,15.06515 10.77138,21.47939 7.76289,20.92644 16.32854,36.56647 23.66337,43.20704 10.49225,9.4991 25.65714,19.7451 32.66748,22.07142 7.37295,2.44666 8.52886,3.5383 9.7389,9.19733 0.70597,3.30159 0.44005,4.19763 -1.41815,4.77873 -1.25788,0.39338 -3.26379,1.23667 -4.45759,1.87398 -1.1938,0.63731 -3.35584,1.15875 -4.80452,1.15875 -1.54793,0 -2.89328,0.99151 -3.26283,2.40468 -0.5213,1.99343 -2.15799,2.53326 -9.57047,3.15658 -4.9179,0.41355 -10.06664,0.66818 -11.44164,0.56585 -1.375,-0.10237 -4.75,0.18433 -7.5,0.63702 -2.75,0.45268 -5.67241,0.36736 -6.49425,-0.18962 z"
       id="path3418"
       inkscape:connector-curvature="0" />
  </g>
</svg>
