<?xml version="1.0" encoding="UTF-8" standalone="no"?>
<!-- Created with Inkscape (http://www.inkscape.org/) -->

<svg
   xmlns:dc="http://purl.org/dc/elements/1.1/"
   xmlns:cc="http://creativecommons.org/ns#"
   xmlns:rdf="http://www.w3.org/1999/02/22-rdf-syntax-ns#"
   xmlns:svg="http://www.w3.org/2000/svg"
   xmlns="http://www.w3.org/2000/svg"
   xmlns:sodipodi="http://sodipodi.sourceforge.net/DTD/sodipodi-0.dtd"
   xmlns:inkscape="http://www.inkscape.org/namespaces/inkscape"
   id="svg3540"
   version="1.1"
   inkscape:version="0.91 r13725"
   width="277.59836"
   height="611.45392"
   viewBox="0 0 277.59836 611.45392"
   sodipodi:docname="silhouette-football-12.svg">
  <title
     id="title3340">Silhouette Football 12</title>
  <metadata
     id="metadata3546">
    <rdf:RDF>
      <cc:Work
         rdf:about="">
        <dc:format>image/svg+xml</dc:format>
        <dc:type
           rdf:resource="http://purl.org/dc/dcmitype/StillImage" />
        <dc:title>Silhouette Football 12</dc:title>
        <cc:license
           rdf:resource="http://creativecommons.org/publicdomain/zero/1.0/" />
        <dc:date>2017-03-18</dc:date>
        <dc:creator>
          <cc:Agent>
            <dc:title>JLouis</dc:title>
          </cc:Agent>
        </dc:creator>
        <dc:rights>
          <cc:Agent>
            <dc:title>Domaine pubic</dc:title>
          </cc:Agent>
        </dc:rights>
        <dc:publisher>
          <cc:Agent>
            <dc:title>inkscape</dc:title>
          </cc:Agent>
        </dc:publisher>
        <dc:subject>
          <rdf:Bag>
            <rdf:li>silhouette</rdf:li>
            <rdf:li>soccer</rdf:li>
            <rdf:li>player</rdf:li>
            <rdf:li>sport</rdf:li>
            <rdf:li>football</rdf:li>
            <rdf:li>joueurs</rdf:li>
          </rdf:Bag>
        </dc:subject>
        <dc:description>Soccer player in silhouette - Joueur de football en silhouette</dc:description>
      </cc:Work>
      <cc:License
         rdf:about="http://creativecommons.org/publicdomain/zero/1.0/">
        <cc:permits
           rdf:resource="http://creativecommons.org/ns#Reproduction" />
        <cc:permits
           rdf:resource="http://creativecommons.org/ns#Distribution" />
        <cc:permits
           rdf:resource="http://creativecommons.org/ns#DerivativeWorks" />
      </cc:License>
    </rdf:RDF>
  </metadata>
  <defs
     id="defs3544" />
  <sodipodi:namedview
     pagecolor="#ffffff"
     bordercolor="#666666"
     borderopacity="1"
     objecttolerance="10"
     gridtolerance="10"
     guidetolerance="10"
     inkscape:pageopacity="0"
     inkscape:pageshadow="2"
     inkscape:window-width="1235"
     inkscape:window-height="756"
     id="namedview3542"
     showgrid="false"
     fit-margin-top="0"
     fit-margin-left="0"
     fit-margin-right="0"
     fit-margin-bottom="0"
     inkscape:zoom="0.92244898"
     inkscape:cx="-108.61364"
     inkscape:cy="320.23467"
     inkscape:window-x="0"
     inkscape:window-y="0"
     inkscape:window-maximized="1"
     inkscape:current-layer="svg3540" />
  <g
     id="g3550"
     transform="translate(-0.27846711,-0.93783655)">
    <path
       style="fill:#cfe9fb"
       d="M 89.274015,610.29547 C 74.458721,605.00456 62.73681,591.61325 60.460584,577.3785 c -0.689276,-4.3105 -1.039691,-4.85339 -1.802198,-2.79214 -1.159497,3.13441 -4.714296,3.79436 -18.729867,3.47718 C 28.917031,577.81434 23.75,576.85209 23.75,575.05062 c 0,-0.56699 3.042075,-5.87636 6.760166,-11.7986 8.0388,-12.80431 10.617228,-19.71044 11.616882,-31.11497 0.695708,-7.93697 0.533118,-8.70807 -2.504686,-11.87886 -4.511245,-4.70873 -18.539661,-34.48628 -19.193693,-40.74169 -1.560699,-14.92707 -3.259454,-25.00287 -4.862123,-28.8386 -0.98544,-2.35849 -1.435723,-5.21584 -1.000632,-6.34966 0.435091,-1.13384 0.06411,-5.91425 -0.824389,-10.62315 -1.225974,-6.49741 -1.286868,-10.19784 -0.252567,-15.348 1.064338,-5.29974 0.989008,-8.0287 -0.343879,-12.45755 -0.938726,-3.11915 -1.343558,-6.03439 -0.899627,-6.47833 1.397398,-1.3974 -2.6855255,-3.13215 -7.4187185,-3.15207 L 0.27846711,396.25 0.87816956,374.6875 C 1.5519104,350.46292 5.058071,325.82314 11.23915,301.875 c 5.300086,-20.5348 8.487864,-27.10303 15.580289,-32.10222 6.981561,-4.92106 10.099223,-12.87124 8.01193,-20.43081 -0.986124,-3.57143 -0.836633,-5.15431 0.709674,-7.51427 3.703376,-5.65206 2.801333,-9.4223 -8.692648,-36.33235 C 19.567811,188.44982 6.3230714,138.62091 6.2830213,128.125 6.2447874,118.10508 8.2219008,114.44421 18.63548,105.2529 24.032839,100.48905 32.735366,94.225144 37.97443,91.333116 43.213494,88.44109 47.486249,85.411161 47.469442,84.599943 47.349589,78.814891 44.457101,71.8201 40.731884,68.306768 35.602071,63.468733 32.554073,54.702044 34.768804,51.155694 35.583461,49.85122 36.25,45.510511 36.25,41.509675 36.25,33.957257 40.552009,18.75 42.688526,18.75 c 0.664959,0 0.882739,-0.527929 0.483955,-1.173175 -0.398785,-0.645245 0.006,-1.62962 0.899425,-2.1875 0.893468,-0.557879 2.68876,-3.428307 3.989539,-6.3787297 1.625341,-3.686593 2.934348,-5.1459458 4.185239,-4.6659338 1.001102,0.3841591 2.475015,0.1550116 3.275361,-0.5092167 C 56.322391,3.1712164 58.833394,2.3007455 61.10205,1.901065 63.370707,1.5013845 65.597707,1.0729055 66.05094,0.94888944 66.504173,0.82487337 70.097526,1.7589134 74.03617,3.0245339 88.774871,7.7605807 100,23.496511 100,39.421891 c 0,5.236097 0.43717,6.828109 1.875,6.828109 3.53671,0 1.38881,16.68601 -2.515388,19.540824 -1.749667,1.279388 -1.820318,2.17528 -0.5151,6.53171 1.255798,4.191492 2.384578,5.40001 6.646598,7.116119 7.68192,3.093146 27.4352,5.812636 31.36581,4.318221 4.61887,-1.756089 16.70782,-2.567913 17.56583,-1.179619 0.39864,0.64501 2.80097,1.192677 5.33852,1.217039 2.53755,0.02436 5.99164,0.807371 7.67575,1.74002 1.68412,0.932648 3.8,1.412532 4.70199,1.066407 0.90199,-0.346124 4.58658,0.53372 8.18798,1.955209 3.60141,1.421488 11.54688,3.741911 17.65662,5.156496 16.0493,3.715888 19.89705,5.7949 36.54938,19.748364 18.08637,15.15508 27.91268,25.5442 31.80213,33.62361 1.59938,3.32232 4.77185,8.6475 7.04993,11.8337 4.01109,5.61002 4.1483,6.20636 4.34209,18.86997 0.19995,13.06699 0.19696,13.08079 -3.95627,18.24892 -3.0443,3.78822 -5.35897,5.36882 -8.65112,5.90748 -2.47211,0.40449 -5.77697,1.36141 -7.34414,2.12645 -4.59789,2.24459 -6.59749,-1.0157 -7.96589,-12.98806 -0.65741,-5.75182 -0.89061,-12.03971 -0.51821,-13.9731 1.53876,-7.98884 -6.51315,-18.30747 -23.56029,-30.19285 -9.9214,-6.91726 -12.76227,-8.2607 -20.20062,-9.55279 -4.76058,-0.82695 -10.06185,-1.41962 -11.7806,-1.31707 -1.71875,0.10262 -6.7373,0.22312 -11.15234,0.26791 -6.10972,0.062 -9.2469,0.79617 -13.1326,3.07334 -8.60967,5.04561 -9.2296,7.14641 -8.84866,29.9867 0.18346,11 1.02251,23.09375 1.86456,26.875 0.84205,3.78125 5.17443,16.0681 9.62751,27.30411 l 8.09653,20.4291 -0.76794,10.8209 c -1.3345,18.80438 -1.88416,21.50688 -4.57686,22.50298 -2.14874,0.79486 -2.54521,2.42863 -3.09169,12.73985 -0.53342,10.06482 -1.29189,13.31878 -5.08785,21.82806 -6.53992,14.66032 -10.42756,26.73064 -10.45356,32.45611 -0.0314,6.91258 -3.29536,28.6771 -5.44291,36.29389 -0.9692,3.4375 -3.21092,9.4581 -4.9816,13.37912 -2.77575,6.14664 -3.11619,8.23472 -2.47028,15.15158 0.55818,5.9774 0.25885,8.93975 -1.17422,11.62087 -1.05787,1.97914 -2.84954,6.22599 -3.98152,9.43747 -1.13197,3.21147 -2.87228,6.51472 -3.86736,7.34056 -1.29701,1.07642 -1.80921,4.27185 -1.80921,11.28692 0,13.27858 -1.96968,21.68784 -7.06179,30.14945 -7.50264,12.46722 -15.5185,16.5653 -22.6421,11.57574 -6.643739,-4.65346 -8.065723,-22.47974 -3.457505,-43.34394 2.083565,-9.43358 2.075035,-9.73203 -0.376736,-13.17523 -1.379728,-1.93764 -3.771437,-7.15664 -5.314908,-11.59777 -2.972489,-8.55292 -3.283161,-13.91645 -2.20566,-38.07908 0.479114,-10.74399 0.188924,-14.7109 -1.32589,-18.125 l -1.939246,-4.37069 -0.650583,7.5 -0.650582,7.5 -4.564056,0.3806 c -3.679442,0.30682 -4.85314,1.0785 -6.055545,3.98136 -0.845698,2.0417 -2.976772,4.11855 -4.921826,4.7966 -3.017831,1.05203 -4.263672,3.42389 -10.360214,19.72407 -6.471033,17.30143 -6.804347,18.71982 -5.034,21.42171 1.042732,1.59141 2.083054,4.98647 2.311825,7.54457 0.228771,2.5581 2.110113,9.43234 4.18076,15.27609 3.878736,10.94651 4.613717,19.24444 2.767941,31.25 -0.972609,6.32619 1.352605,29.88681 3.515855,35.625 1.272566,3.37558 6.288716,14.4542 6.957964,15.36729 0.148061,0.202 3.554258,-1.61162 7.56933,-4.03026 13.539004,-8.15579 27.016886,-8.77181 40.707986,-1.86056 9.61584,4.85407 15.96504,10.70549 20.50138,18.89409 3.49112,6.30186 3.6726,7.37061 3.6726,21.62944 0,13.83315 -0.25898,15.49063 -3.32911,21.30705 -4.44783,8.42647 -12.23335,15.99191 -20.74026,20.15396 -9.20694,4.50453 -25.141409,5.40222 -34.781615,1.95946 z"
       id="path3564"
       inkscape:connector-curvature="0" />
    <path
       style="fill:#abdafb"
       d="m 90.098875,610.51871 c -7.71273,-2.80122 -13.715829,-6.80985 -19.065166,-12.73092 -5.820708,-6.44283 -7.280344,-9.17451 -9.838602,-18.41279 -1.675075,-6.04896 -2.244985,-6.97081 -2.945712,-4.76476 -0.558771,1.75913 -2.074217,2.87432 -4.246606,3.125 -5.184489,0.59824 -28.715372,-0.78115 -29.673709,-1.73949 -0.46666,-0.46666 1.711916,-4.95974 4.841279,-9.98461 9.060516,-14.54864 12.1913,-22.43844 12.96539,-32.67369 0.675696,-8.93426 0.595902,-9.26234 -3.584828,-14.73939 -2.351747,-3.08096 -7.292015,-12.27475 -10.978372,-20.43065 -5.76927,-12.76426 -6.845603,-16.38011 -7.730509,-25.97006 -0.565424,-6.12764 -1.649041,-13.20692 -2.408039,-15.73175 -2.841411,-9.45204 -4.465922,-27.98036 -3.690385,-42.0906 0.188934,-3.4375 -0.08359,-8.89391 -0.605611,-12.12536 L 12.188876,396.37427 6.406938,395.99964 0.625,395.625 1.0285253,376.25 c 0.5830208,-27.99336 4.9865573,-56.23832 12.9577707,-83.11315 4.443551,-14.98137 6.701899,-18.91191 13.79136,-24.00318 6.315092,-4.53516 8.61341,-10.94896 7.582018,-21.15876 -0.406669,-4.02564 -0.12957,-6.71959 0.746896,-7.26126 2.882097,-1.78124 1.302564,-10.37255 -4.38908,-23.87284 C 22.672377,195.38627 20.166445,188.18385 16.821552,174.02769 15.10809,166.77601 12.309778,156.26479 10.603082,150.66941 7.1379274,139.30894 6.3316485,120.33434 9.1067943,115.45643 12.100397,110.19455 27.457039,97.654344 37.833986,91.997865 l 10.57149,-5.762522 -1.890727,-7.902205 c -1.36891,-5.721295 -2.615059,-8.220408 -4.515238,-9.05517 -3.198264,-1.405022 -7.430375,-9.68443 -7.23009,-14.144445 0.324004,-7.214985 2.548445,-23.491502 3.70545,-27.113239 0.677288,-2.120095 2.774839,-6.299633 4.661226,-9.287863 1.886387,-2.98823 4.152549,-7.162941 5.035915,-9.2771346 C 49.406754,6.5001334 51.0541,5.2345493 55.296365,3.9819579 69.319851,-0.1586842 78.307065,2.3379528 88.980721,13.339431 96.000478,20.574786 100,29.99283 100,39.28754 c 0,5.029496 0.50579,6.889077 2.03319,7.475196 2.80074,1.074744 1.33471,12.527974 -2.234154,17.454189 -2.317897,3.199463 -2.440426,4.131947 -1.121427,8.534375 1.831221,6.112064 5.648721,7.930634 22.187341,10.569536 10.56557,1.685843 12.49069,1.673234 19.67639,-0.128871 8.1118,-2.034361 13.23442,-1.593773 23.83366,2.049893 2.0625,0.709018 5.71875,1.457852 8.125,1.664073 2.40625,0.206222 6.35209,1.220275 8.76852,2.25345 2.41643,1.033177 9.72893,3.122192 16.25,4.642254 17.62054,4.107359 20.69207,5.913385 43.73148,25.713635 14.10552,12.12241 20.8059,19.79928 26.09602,29.89919 2.14922,4.1033 5.17247,9.04655 6.71833,10.985 4.73901,5.94257 5.18969,30.54442 0.62128,33.91447 -0.97751,0.7211 -2.41575,2.51001 -3.19612,3.97536 -1.06121,1.99275 -3.4987,3.05674 -9.67042,4.22126 -4.72677,0.89188 -8.71543,1.08868 -9.33745,0.4607 -1.59864,-1.61391 -3.85873,-21.64765 -2.97413,-26.36299 1.49256,-7.95602 -7.74751,-19.02281 -26.8276,-32.13126 -10.48179,-7.20122 -16.74091,-8.65561 -35.71182,-8.29809 -13.6286,0.25684 -17.56914,1.58772 -23.30938,7.87247 -3.45124,3.77862 -3.46315,3.85408 -3.47959,22.05761 -0.0239,26.41691 2.6341,37.95386 15.1515,65.76601 3.44154,7.64669 3.91697,10.01094 3.77039,18.75 -0.0923,5.5 -0.53845,13.54789 -0.99154,17.88419 -0.72408,6.92971 -1.20742,8.03004 -3.9926,9.08895 -2.65083,1.00785 -3.05281,1.7847 -2.45921,4.75269 1.28674,6.43367 -2.55054,24.85386 -7.1571,34.35648 -5.76817,11.89883 -7.80644,19.86958 -9.47249,37.04269 -1.34508,13.86463 -5.10043,31.71764 -7.5806,36.03828 -3.40446,5.93083 -5.86488,13.72403 -4.84262,15.33858 1.93669,3.05874 1.23116,11.62468 -1.35485,16.44962 -1.375,2.56546 -2.5,5.7071 -2.5,6.98145 0,1.27433 -1.66521,4.61575 -3.70049,7.42535 -3.271,4.51548 -3.61641,5.81821 -2.97611,11.22447 1.18925,10.04138 -1.63533,22.85785 -7.00819,31.79954 -9.51109,15.82867 -19.6563,17.73734 -26.264025,4.94116 -2.572459,-4.98169 -3.098083,-20.14986 -0.961988,-27.76056 3.572003,-12.7267 3.841633,-18.31805 1.098689,-22.78341 -4.143479,-6.74534 -8.057329,-19.888 -8.086534,-27.15448 -0.0152,-3.78125 0.331584,-13.74352 0.770623,-22.13837 0.491381,-9.39567 0.333049,-15.5509 -0.41186,-16.01128 C 90.544551,367.68901 90,366.26065 90,364.92623 90,363.5918 89.4375,362.5 88.75,362.5 c -0.6875,0 -1.25,1.33594 -1.25,2.96875 0,7.85797 -1.37309,10.52611 -5.849135,11.36583 -3.285786,0.61641 -4.632168,1.67302 -5.573804,4.37421 -0.750816,2.15378 -2.435211,3.86106 -4.261562,4.31945 -3.677532,0.923 -4.88551,3.22251 -12.40443,23.61305 -5.455464,14.79465 -5.753583,16.18464 -3.908502,18.22342 1.098588,1.21393 1.997433,4.00904 1.997433,6.21136 0,2.20233 0.89562,6.09553 1.990265,8.65158 5.792493,13.52571 6.165351,16.66875 5.611684,47.30421 -0.252718,13.98334 2.165892,27.14988 6.180492,33.64563 1.357158,2.19592 2.467559,5.47307 2.467559,7.28255 0,3.95646 0.457762,4.02432 5.056751,0.74955 14.127999,-10.06003 30.381759,-11.91376 44.315529,-5.0542 9.77469,4.81206 17.86183,12.4577 21.93701,20.73938 2.69089,5.46852 3.06571,7.91133 3.06571,19.98023 0,16.19575 -1.9879,21.84375 -11.12714,31.61434 -8.47116,9.05635 -17.63627,13.11765 -30.74786,13.62516 -7.507804,0.29061 -12.246271,-0.17756 -16.151125,-1.59579 z"
       id="path3562"
       inkscape:connector-curvature="0" />
    <path
       style="fill:#8fcefa"
       d="m 91.607549,610.76053 c -16.383013,-5.35014 -28.652264,-19.03102 -31.166138,-34.75192 -0.85794,-5.36526 -0.862792,-5.36947 -2.058262,-1.78306 l -1.198295,3.59489 -16.096789,-0.58125 c -8.853234,-0.31969 -16.43844,-0.9229 -16.856014,-1.34048 -0.417574,-0.41756 2.442256,-5.80935 6.355178,-11.98174 3.91292,-6.17238 8.194034,-14.69138 9.513586,-18.93111 2.902463,-9.32563 3.201299,-21.51405 0.580803,-23.68887 -2.723209,-2.26006 -7.230804,-10.4117 -13.850176,-25.04699 -5.15886,-11.40613 -6.074231,-14.7038 -6.989597,-25.18045 -0.57932,-6.63049 -1.697549,-13.66174 -2.484951,-15.625 -1.609932,-4.01409 -3.877327,-22.04298 -3.789545,-30.13205 0.13688,-12.6134 0.08137,-20.60231 -0.171515,-24.6875 -0.270005,-4.36161 -0.289394,-4.375 -6.3353575,-4.375 l -6.06452356,0 0.86255996,-24.0625 c 1.1078693,-30.9058 3.8426783,-49.07161 11.5262561,-76.5625 4.027052,-14.4083 7.959395,-21.60396 14.252215,-26.07966 6.234255,-4.43404 7.678023,-7.79465 8.128466,-18.92034 0.194843,-4.8125 0.706781,-11.28125 1.137644,-14.375 0.668596,-4.80077 0.01752,-7.4566 -4.443288,-18.125 -9.441731,-22.58065 -12.282019,-30.75944 -15.57285,-44.84302 -1.78726,-7.64884 -4.630477,-18.29539 -6.31826,-23.65901 C 7.3466357,139.38356 6.2709551,120.16992 8.7003023,116.25 12.503344,110.11353 26.781109,98.156571 37.193414,92.388354 45.842668,87.596834 48.667192,85.424739 48.217561,83.910649 47.885078,82.791043 46.958332,79.203125 46.158129,75.9375 45.357925,72.671875 44.01342,70 43.170341,70 40.705284,70 37.638594,65.852096 35.531399,59.66782 33.937798,54.990859 33.859734,53.380608 35.113062,51.03874 35.96054,49.455215 36.585338,45.339318 36.501501,41.892301 36.315891,34.260735 39.012993,26.039924 45.625,14.083719 49.452339,7.1629084 51.26732,5.0374603 53.363729,5.0212183 54.87003,5.0095432 56.403191,4.5134033 56.770754,3.9186739 57.942736,2.0223656 67.27355,1.4441996 72.157386,2.9652706 79.595175,5.2817702 84.201326,8.1879619 89.194096,13.714361 95.84176,21.07253 100,30.864764 100,39.161167 c 0,4.982793 0.51775,7.020039 1.92092,7.558487 2.61376,1.002995 1.24256,12.617831 -2.041454,17.29223 -2.863142,4.07534 -2.967533,6.22507 -0.531085,10.93664 2.338659,4.522474 8.916439,6.976996 23.776619,8.872334 9.46541,1.207263 12.42432,1.127063 18.65291,-0.505577 7.51295,-1.969297 12.52888,-1.540823 22.59709,1.930304 2.0625,0.71107 6.28125,1.68209 9.375,2.157822 3.09375,0.475733 6.75,1.467854 8.125,2.204714 1.375,0.736859 7.85211,2.548769 14.39359,4.026468 16.16221,3.65099 22.2486,6.791171 36.85641,19.015491 17.95729,15.02728 28.75865,26.45852 32.73826,34.6474 1.89174,3.89263 5.28643,9.51454 7.54375,12.49312 l 4.10423,5.41561 -0.31813,13.85648 c -0.22646,9.86447 -0.77584,14.0087 -1.90691,14.38484 -0.87384,0.29058 -2.43516,2.16502 -3.4696,4.16541 -1.59095,3.07655 -2.63505,3.63706 -6.77493,3.63706 -2.69177,0 -5.24177,0.5625 -5.66667,1.25 -1.31064,2.12065 -6.65186,1.42224 -7.41083,-0.96904 -1.47321,-4.64167 -3.12136,-21.68251 -2.43096,-25.13452 1.54445,-7.72228 -6.42149,-17.53266 -25.03572,-30.83255 -11.6731,-8.34044 -17.91589,-9.87635 -38.15204,-9.38658 -11.11204,0.26895 -13.69995,0.73857 -17.58485,3.191 -8.05391,5.0842 -8.55371,6.73203 -8.56661,28.24337 -0.014,23.25833 1.49458,31.09688 10.08221,52.38832 9.59054,23.77804 9.64545,24.03376 8.4276,39.24949 -1.2826,16.02446 -1.7673,17.77941 -5.15529,18.66539 -2.05779,0.53812 -2.48312,1.394 -1.98576,3.99578 1.44735,7.5713 -3.62381,29.64795 -8.60925,37.47919 -3.11616,4.89495 -6.47349,18.91754 -7.92734,33.11015 -1.72599,16.84934 -4.77794,29.7588 -9.87734,41.78013 -2.81043,6.62536 -3.40497,9.35605 -2.53513,11.64387 1.83631,4.8299 1.3063,10.65686 -1.36837,15.04371 -1.37242,2.25099 -2.49532,5.2153 -2.49532,6.58734 0,1.37205 -1.54688,4.87408 -3.4375,7.78229 -3.00339,4.6199 -3.44505,6.55053 -3.4973,15.28766 -0.0791,13.22295 -2.28688,21.5332 -8.11743,30.55419 -7.372,11.40592 -14.80358,14.15731 -21.13581,7.82507 -5.849015,-5.84901 -8.103389,-22.27797 -4.531414,-33.02307 0.979301,-2.9459 2.162174,-8.53505 2.628614,-12.42034 0.71777,-5.97879 0.45454,-7.61125 -1.7133,-10.625 -2.876755,-3.9993 -7.049741,-15.99544 -8.195893,-23.56085 -0.416622,-2.75 0.0089,-10.34375 0.94558,-16.875 1.766265,-12.3156 1.214432,-21.38636 -1.711028,-28.125 -1.726397,-3.97666 -1.828112,-3.78226 -3.10667,5.9375 -0.614472,4.67129 -1.276037,5.9375 -3.102205,5.9375 -3.9985,0 -6.425384,1.4811 -7.633475,4.65863 -0.641478,1.6872 -2.759475,3.669 -4.706664,4.40398 -3.12096,1.17803 -4.392635,3.56329 -10.735274,20.13598 -6.940329,18.1344 -7.124252,18.9193 -5.197581,22.1809 1.098542,1.85969 1.99735,4.93782 1.99735,6.8403 0,1.90249 1.366506,6.8782 3.036681,11.05714 4.740301,11.8607 6.226325,22.77078 4.49755,33.02012 -1.970935,11.68504 0.08436,30.28396 4.498065,40.70416 1.776074,4.19308 3.515476,9.17067 3.865339,11.06129 0.349862,1.89063 0.785371,3.4375 0.967796,3.4375 0.182426,0 3.62297,-1.98191 7.645654,-4.40424 8.923036,-5.37317 14.829075,-7.05703 24.588425,-7.01036 14.40737,0.0689 31.85603,11.31741 38.57806,24.86984 2.54489,5.13081 2.93622,7.75229 2.93622,19.66976 0,11.90259 -0.39298,14.5421 -2.92479,19.64544 -7.70828,15.53749 -21.80631,24.84562 -38.70734,25.55631 -5.86024,0.24641 -11.66087,-0.26689 -14.874111,-1.31622 z"
       id="path3560"
       inkscape:connector-curvature="0" />
    <path
       style="fill:#74c3fb"
       d="M 93.418084,611.2194 C 77.320601,607.15512 66.006136,595.5898 61.16588,578.25215 c -1.986154,-7.11435 -2.192529,-7.38628 -3.069544,-4.04448 l -0.94023,3.58268 -15.447136,-0.51426 c -8.495925,-0.28284 -15.978025,-1.05129 -16.626888,-1.70768 -0.742606,-0.7512 0.674878,-3.97246 3.825462,-8.69341 10.191182,-15.27086 13.255627,-23.496 13.825213,-37.10765 0.230537,-5.5092 -0.220415,-7.25501 -2.449905,-9.4845 -3.185046,-3.18504 -13.064085,-22.42428 -17.329515,-33.74889 -1.624336,-4.31256 -2.96506,-10.50006 -2.979387,-13.75 -0.01432,-3.24992 -0.9245,-9.56521 -2.022606,-14.03396 -1.098107,-4.46875 -2.136965,-11.21875 -2.308575,-15 -0.17161,-3.78125 -0.980809,-9.30348 -1.798219,-12.2716 -1.157244,-4.20211 -1.145961,-6.91694 0.05097,-12.2654 1.21004,-5.40703 1.213716,-8.13086 0.01728,-12.79912 -0.835943,-3.26168 -1.154366,-6.88287 -0.70761,-8.0471 C 13.903653,396.54661 13.11544,396.25 7.5800196,396.25 l -6.4374522,0 0.764075,-22.8125 c 0.8487362,-25.34018 3.9060312,-47.97728 9.3081856,-68.9205 5.861187,-22.72283 8.053349,-27.49111 15.656416,-34.05513 7.483436,-6.46072 8.515657,-8.82121 8.947807,-20.46187 0.165899,-4.46875 0.662314,-10.71758 1.103144,-13.88629 0.691479,-4.97037 0.08714,-7.45857 -4.402229,-18.125 -8.775975,-20.8511 -12.423764,-31.35214 -15.684111,-45.1505 -1.72133,-7.28496 -4.579654,-17.99907 -6.351832,-23.80914 C 7.8086691,140.25796 7.3351153,136.56141 7.6934405,127.24586 L 8.125,116.0264 17.5,107.05824 C 22.65625,102.12575 28.5625,97.239395 30.625,96.199664 42.74782,90.088401 48.798935,85.866511 48.22368,83.920986 47.890951,82.795694 47.258476,80.1875 46.818179,78.125 45.307343,71.047741 44.945067,70.376259 41.885522,68.982236 36.80897,66.669205 32.479769,51.705131 36.218632,49.394386 36.902674,48.971625 37.109448,46.249539 36.689985,43.189225 35.788949,36.615453 38.918666,25.405176 43.687488,18.125 45.488852,15.375 47.714333,11.296875 48.632999,9.0625 49.840031,6.1267631 51.10752,5 53.202879,5 54.797648,5 56.411691,4.4996495 56.789644,3.8881101 59.328964,-0.22059576 76.200335,3.055132 84.293746,9.2282776 93.454384,16.215436 100,29.003171 100,39.91254 c 0,4.165647 0.57197,6.289471 1.82311,6.769581 2.60753,1.000603 1.17081,12.882757 -2.12403,17.566461 -2.088864,2.969377 -2.348225,4.436275 -1.436579,8.125 1.540674,6.233908 8.189129,9.398318 23.896729,11.373923 10.31561,1.297433 13.30111,1.249675 19.19321,-0.30702 7.5066,-1.98325 16.50533,-1.137445 24.62747,2.314772 2.2577,0.959608 5.51014,1.744743 7.22765,1.744743 1.7175,0 5.13916,0.842517 7.60369,1.87226 2.46451,1.029743 9.61832,3.073406 15.89735,4.541474 16.23371,3.795526 22.1877,6.909716 37.0414,19.374276 17.77965,14.91988 28.18966,25.97965 32.202,34.21199 1.84294,3.78125 5.15352,9.25415 7.35686,12.16201 3.95949,5.22555 4.0035,5.43871 3.7861,18.33831 -0.19629,11.64639 -0.52271,13.3734 -3.03246,16.04355 -1.54688,1.64574 -2.8125,3.59894 -2.8125,4.34045 0,1.7279 -2.98909,2.86568 -7.52846,2.86568 -1.9657,0 -3.92164,0.5625 -4.34654,1.25 -0.4249,0.6875 -2.13488,1.25 -3.79995,1.25 -3.38513,0 -3.48641,-0.27529 -5.61168,-15.25198 -0.88083,-6.20725 -0.94151,-10.42552 -0.17078,-11.875 1.67828,-3.15628 -2.49402,-11.53032 -8.97299,-18.00931 C 231.70956,149.50369 213.83492,137.5 209.37924,137.5 c -2.19005,0 -6.54557,-0.77155 -9.67893,-1.71455 -3.35731,-1.0104 -6.39072,-1.27494 -7.38616,-0.64414 -0.92903,0.58873 -5.68288,1.07903 -10.5641,1.08955 -7.84031,0.0169 -9.47215,0.45174 -13.99753,3.72991 -2.81742,2.04093 -5.71431,4.81646 -6.43755,6.16783 C 160.55785,147.5433 160,156.77482 160,167.88949 c 0,23.23102 1.65253,31.6576 10.34189,52.73551 9.09765,22.06827 9.507,24.04305 8.2613,39.85302 -1.04073,13.20842 -2.26109,17.02198 -5.44714,17.02198 -1.06704,0 -1.80148,4.07778 -2.39898,13.31952 -0.75096,11.61559 -1.42721,14.53395 -5.28611,22.8125 -6.39309,13.71514 -8.8434,22.69842 -10.43134,38.24298 -1.79656,17.58684 -5.0974,31.49114 -10.06432,42.39452 -3.26276,7.1624 -3.70539,9.15492 -2.58161,11.62133 1.98128,4.34846 1.6673,8.90202 -1.01034,14.652 -1.30165,2.79517 -2.70774,6.58567 -3.12464,8.42331 -0.41689,1.83764 -2.1644,5.01259 -3.88335,7.05544 -2.80091,3.3287 -3.12536,4.82461 -3.12536,14.40981 0,14.82811 -1.78173,21.7723 -7.95703,31.0121 -4.20529,6.29218 -6.35827,8.30179 -10.41671,9.72308 -4.62908,1.62114 -5.43545,1.58216 -8.47544,-0.40973 -6.743895,-4.41876 -10.008808,-21.12127 -6.520227,-33.35591 1.062651,-3.72678 2.316347,-9.97865 2.785987,-13.89306 0.71122,-5.92795 0.44701,-7.70324 -1.58128,-10.625 -2.632125,-3.7916 -6.349285,-14.23683 -7.920949,-22.25789 -0.551954,-2.81692 -0.380417,-9.36616 0.392875,-15 0.754924,-5.5 1.303357,-13.07034 1.21874,-16.82299 -0.161287,-7.15292 -2.671467,-17.55201 -4.23679,-17.55201 -0.503269,0 -1.296872,3.375 -1.763564,7.5 -0.685122,6.05569 -1.279184,7.5 -3.084836,7.5 -3.92394,0 -6.234008,1.45775 -8.134743,5.13336 -1.018328,1.96924 -3.198939,3.9186 -4.845804,4.33194 -2.514675,0.63115 -3.989431,3.38713 -9.206918,17.20561 -8.198352,21.7133 -8.238101,21.86379 -6.369495,24.11533 0.8747,1.05395 1.987952,4.54259 2.473894,7.75251 0.485943,3.20994 2.390104,10.055 4.231469,15.21125 3.49112,9.77594 3.582479,10.96236 3.080145,40 -0.263102,15.20868 1.929856,26.70168 6.559027,34.375 1.244268,2.0625 2.264407,5.01562 2.266977,6.5625 0.0026,1.54687 0.277472,2.8125 0.610893,2.8125 0.333423,0 3.33842,-1.68114 6.677773,-3.73586 8.87121,-5.45852 15.728322,-7.51427 25.060666,-7.51315 14.75347,10e-4 31.4511,10.50465 38.67034,24.32382 2.93658,5.62124 3.29496,7.71462 3.32563,19.42519 0.0304,11.61052 -0.34572,13.9356 -3.25959,20.15001 -7.26549,15.49511 -20.64907,24.60908 -37.46305,25.51163 -5.08365,0.27288 -11.361102,-0.0386 -13.949906,-0.69224 z"
       id="path3558"
       inkscape:connector-curvature="0" />
    <path
       style="fill:#55b6fa"
       d="M 89.825727,609.683 C 74.792357,604.4203 64.267202,592.63469 61.133064,577.55421 l -1.417547,-6.82077 -1.851191,3.53312 -1.851192,3.53313 -14.58882,-0.52015 c -8.023851,-0.28608 -15.28194,-0.94851 -16.129088,-1.47208 -1.116821,-0.69023 -0.213936,-2.90805 3.28421,-8.0672 9.540174,-14.0701 12.942985,-22.71922 14.411387,-36.63032 0.666272,-6.31203 0.423906,-7.35665 -2.418394,-10.42354 -3.546798,-3.82706 -12.343082,-20.88149 -17.11679,-33.1864 -2.134428,-5.50179 -3.393373,-11.78598 -3.899398,-19.4643 -0.411012,-6.23662 -1.654056,-13.5095 -2.762322,-16.16195 -1.134382,-2.71496 -1.775862,-6.77317 -1.467785,-9.2857 0.300983,-2.45467 -0.244136,-7.17055 -1.211378,-10.4797 -1.444602,-4.94233 -1.483946,-7.24402 -0.220341,-12.8904 1.211119,-5.41185 1.215028,-8.13501 0.01839,-12.80407 -0.835942,-3.26168 -1.16694,-6.8501 -0.73555,-7.97429 0.648688,-1.69045 -0.260881,-2.11061 -5.2589508,-2.42928 L 1.875,395.625 2.2901617,372.5 c 0.4563922,-25.42159 2.8348121,-43.2508 9.0784183,-68.05403 5.669311,-22.52177 8.121132,-27.80308 15.672811,-33.75978 7.362473,-5.80745 9.886995,-12.18388 8.496059,-21.4593 -0.60994,-4.06738 -0.288576,-6.29554 1.245726,-8.63718 2.631568,-4.01627 1.797785,-8.76382 -3.912712,-22.27895 C 23.097152,195.18014 21.107166,189.60294 18.01384,176.67313 16.23115,169.22166 13.079076,157.34615 11.00923,150.28312 7.8195365,139.39879 7.3132755,135.79999 7.6880509,126.67425 l 0.4421785,-10.767 9.2142416,-8.51234 C 22.412304,102.71312 31.596395,95.975151 37.753562,92.42164 48.202044,86.391465 48.895513,85.741173 48.154951,82.667855 45.544746,71.83554 44.79129,70.102227 42.356921,69.329589 37.594474,67.818046 32.58299,51.641336 36.187107,49.41387 c 0.652911,-0.40352 1.01021,-2.705071 0.794002,-5.114559 -0.747478,-8.330098 4.04237,-24.0934 8.804481,-28.975386 0.832144,-0.853091 2.180897,-3.574858 2.99723,-6.0483702 1.12945,-3.4222672 2.030589,-4.3544219 3.769845,-3.8995963 1.257082,0.3287344 3.44798,-0.2164612 4.868663,-1.2115457 1.420682,-0.9950847 3.132946,-1.4693952 3.805032,-1.0540234 0.672085,0.4153717 2.217974,0.237026 3.435306,-0.3963239 3.434993,-1.78714546 14.589043,2.4943046 21.330625,8.1876995 7.681588,6.487247 12.773288,16.607186 13.382735,26.598675 0.277637,4.551656 1.213704,8.266865 2.375644,9.428805 2.5917,2.591696 0.85663,14.473571 -2.687835,18.406506 -1.574664,1.747244 -1.750801,3.18866 -0.840111,6.875 0.925102,3.744681 2.200446,5.193399 6.468816,7.348213 7.93372,4.005201 24.94914,6.105485 34.51392,4.260197 9.49615,-1.832046 14.30629,-1.823005 16.54034,0.03109 0.9473,0.786191 2.60891,1.08924 3.69246,0.673441 1.08355,-0.4158 3.59404,0.08378 5.57885,1.110155 1.9848,1.026386 5.36115,1.866155 7.50299,1.866155 2.14184,0 4.98754,0.58511 6.32379,1.300245 1.33623,0.715135 8.84628,2.931984 16.68898,4.92633 7.84272,1.994345 16.97807,5.004352 20.30081,6.688903 7.35172,3.72717 34.32098,26.63274 42.13213,35.78374 3.11794,3.65275 6.7597,8.95537 8.09282,11.78358 1.33311,2.82821 4.41321,8.09304 6.84464,11.69961 4.37152,6.48428 4.41818,6.69351 4.18397,18.76225 -0.2302,11.86213 -0.35645,12.35366 -4.49625,17.50509 -3.65231,4.54481 -4.93171,5.30025 -8.97643,5.30025 -2.59436,0 -5.06466,0.5625 -5.48956,1.25 -1.46344,2.36789 -5.55844,1.33569 -6.19884,-1.5625 -1.8312,-8.28736 -2.88643,-21.53679 -1.91811,-24.08369 0.77836,-2.04725 0.42674,-4.1742 -1.22602,-7.416 -4.30427,-8.44256 -8.82637,-13.1062 -21.44248,-22.11357 -11.34236,-8.09798 -13.50615,-9.14852 -22.14266,-10.75038 -5.26454,-0.97643 -10.13439,-1.72801 -10.82189,-1.67016 -24.91802,2.09691 -26.43009,2.58344 -32.26907,10.38309 -2.99763,4.0042 -3.05024,4.48446 -2.55972,23.36982 0.61064,23.50998 2.08485,30.33135 11.88789,55.00703 l 7.66291,19.28865 -0.67372,14.62287 C 177.73917,272.42365 176.3781,277.5 173.08102,277.5 c -1.34531,0 -1.84187,1.57505 -1.87192,5.9375 -0.084,12.19192 -2.22769,22.8206 -6.30087,31.24022 -6.43457,13.30083 -8.60893,21.17114 -9.9313,35.94728 -1.18683,13.26155 -5.45078,34.92395 -7.38138,37.5 -0.51525,0.6875 -2.17819,4.38355 -3.69542,8.21345 -2.20947,5.57725 -2.49898,7.64634 -1.45438,10.39387 1.87049,4.91973 1.6274,7.93133 -1.11026,13.75577 -1.32799,2.8253 -2.73408,6.64043 -3.12464,8.47807 -0.39056,1.83764 -2.11654,5.01259 -3.83549,7.05544 -2.81217,3.34209 -3.12842,4.82356 -3.15592,14.78385 -0.04,14.48359 -1.47146,20.17564 -7.45765,29.6541 -5.32858,8.43721 -9.05466,11.20711 -15.07583,11.20711 -5.25899,0 -8.23273,-3.46499 -10.506166,-12.24179 -2.494475,-9.63011 -2.41889,-12.95063 0.570206,-25.04987 3.10446,-12.5662 3.12134,-16.91816 0.08577,-22.11605 -1.327825,-2.27368 -3.656813,-7.75136 -5.175529,-12.17264 -2.493162,-7.25807 -2.663895,-9.32159 -1.758206,-21.25 0.551701,-7.26622 0.925242,-16.30506 0.830091,-20.08631 -0.177121,-7.03864 -2.627336,-17.5 -4.098775,-17.5 -1.012576,0 -2.383356,6.56027 -2.383356,11.40625 0,3.1686 -0.448621,3.59375 -3.792156,3.59375 -3.008882,0 -4.325332,0.90366 -6.37347,4.375 -1.419723,2.40625 -3.329324,4.375 -4.243558,4.375 -3.232654,0 -5.334631,3.79287 -11.83777,21.3604 -6.366809,17.19926 -6.509815,17.86741 -4.538499,21.20459 1.119499,1.89516 2.035453,4.87382 2.035453,6.61926 0,1.74542 1.737891,8.36076 3.86198,14.70075 3.237225,9.66248 3.814439,13.16215 3.5681,21.63361 -0.872756,30.01374 0.744015,43.75148 6.388448,54.28276 1.33731,2.49514 2.431472,5.52932 2.431472,6.74262 0,2.94213 0.591635,2.82555 7.626245,-1.5029 18.93795,-11.65264 38.50157,-9.60939 54.90529,5.73437 9.04097,8.45678 11.84712,15.83574 11.82687,31.09954 -0.0146,11.0414 -0.42414,13.37516 -3.50921,20 -9.43523,20.26096 -33.46542,30.26728 -54.773468,22.808 z"
       id="path3556"
       inkscape:connector-curvature="0" />
    <path
       style="fill:#2fa7fb"
       d="M 93.75,610.7827 C 84.895299,608.34499 79.074363,605.09225 72.997499,599.18621 67.072118,593.42741 61.29595,582.77073 61.24307,577.5 c -0.05146,-5.13006 -1.838058,-6.80686 -3.459908,-3.24729 -1.386587,3.04323 -1.549276,3.07066 -16.437981,2.77263 -8.270642,-0.16556 -15.461817,-0.72532 -15.980386,-1.24388 -0.955488,-0.95548 -0.51522,-1.83017 7.591037,-15.08116 6.04983,-9.88943 9.09494,-18.36358 10.154664,-28.25911 0.85884,-8.01974 0.79485,-8.26871 -3.422457,-13.3165 -6.398423,-7.65842 -18.718473,-35.7504 -19.077265,-43.49969 -0.465525,-10.05452 -2.011272,-19.42989 -3.980535,-24.14299 -1.115743,-2.67035 -1.527655,-6.01191 -1.052984,-8.54212 0.447381,-2.38475 -0.01385,-6.82804 -1.082226,-10.42565 -1.510312,-5.08578 -1.593597,-7.54879 -0.44106,-13.04355 1.07012,-5.10183 1.060718,-8.33398 -0.03809,-13.09427 -0.802407,-3.47621 -1.130306,-7.17675 -0.728666,-8.22341 0.575446,-1.49959 -0.291818,-1.90707 -4.090979,-1.92215 -2.6516798,-0.01 -5.4854746,-0.44157 -6.2973219,-0.95786 -2.33245395,-1.48334 -0.022272,-48.80754 3.2280486,-66.12675 3.6027673,-19.19721 9.4902023,-41.5772 12.7771033,-48.56978 1.724253,-3.66818 4.931856,-7.45856 8.67953,-10.25646 6.972279,-5.20529 9.49368,-11.69625 8.114908,-20.89056 -0.628864,-4.19356 -0.342764,-6.38973 1.100912,-8.45086 1.072821,-1.53168 1.950584,-3.76504 1.950584,-4.96304 0,-3.08473 -3.270647,-12.48929 -8.395419,-24.14055 -6.068552,-13.79697 -9.937036,-25.3111 -13.439087,-40 C 15.276391,165 12.487364,154.3902 10.717654,148.29766 7.1248101,135.92867 6.516147,123.52439 9.1882524,117.12915 11.563253,111.44497 26.286862,98.920474 38.125,92.514377 c 5.5,-2.976272 10.21511,-5.584057 10.478023,-5.79508 0.262912,-0.211021 -0.284374,-3.82022 -1.21619,-8.020442 C 46.044292,72.647271 44.979654,70.640928 42.257831,69.033107 36.993501,65.923393 32.713851,52.81046 36.25,50.625 c 0.6875,-0.424899 1.25,-4.608151 1.25,-9.296116 0,-9.298147 3.832301,-21.228406 8.361334,-26.029504 0.817485,-0.866591 2.176734,-3.484885 3.020555,-5.818431 0.908399,-2.5121312 2.174339,-3.9971742 3.10349,-3.6406257 0.863099,0.3312018 2.878848,-0.1290442 4.479445,-1.022769 C 58.065421,3.9238294 60.5,3.1202598 61.875,3.0318439 c 1.375,-0.088416 3.0625,-0.336522 3.75,-0.551347 1.399085,-0.437176 7.061383,0.8370408 12.028177,2.7067645 4.671334,1.7584988 16.131115,13.3510776 18.332661,18.5450996 1.024027,2.415951 2.28313,8.590388 2.798003,13.720969 0.514875,5.130581 1.561639,9.536831 2.326149,9.791666 2.27027,0.756756 1.58229,10.599253 -1.10999,15.880004 -6.080848,11.927229 -0.965688,17.546661 18.75,20.598447 10.93662,1.692878 16.97259,1.596282 24.647,-0.394433 5.43302,-1.409309 7.08902,-1.398856 10.57466,0.06675 2.27308,0.955753 5.03626,1.501485 6.14044,1.212737 1.10418,-0.288747 3.35879,0.223784 5.01024,1.138959 1.65146,0.915175 4.85872,1.683886 7.12724,1.708249 2.26851,0.02436 5.64522,0.830652 7.50379,1.791757 1.85857,0.961105 9.57454,3.228827 17.1466,5.039382 16.7839,4.013197 22.31443,7.085322 39.97503,22.205522 15.70957,13.44983 25.88151,24.37481 28.758,30.88702 2.44747,5.54093 2.88348,6.28759 7.23811,12.39545 3.23308,4.53475 3.51521,5.87977 3.75,17.87692 l 0.25389,12.97324 -4.2717,5.3125 c -3.49016,4.34054 -5.03699,5.3125 -8.45446,5.3125 -2.30053,0 -5.33439,0.70312 -6.74193,1.5625 -2.1629,1.32055 -2.82159,1.20884 -4.25386,-0.72144 -1.83917,-2.47866 -3.91949,-22.04076 -2.6858,-25.25572 1.06705,-2.78069 -2.238,-10.06291 -7.4586,-16.43396 -2.44107,-2.97902 -9.88228,-9.24905 -16.53599,-13.93342 -10.4966,-7.38985 -13.25567,-8.72646 -20.84766,-10.09947 -4.8125,-0.87035 -9.59375,-1.50896 -10.625,-1.41914 -1.03125,0.0897 -6.12354,0.32092 -11.3162,0.51358 -10.9029,0.40448 -17.71541,3.472 -22.02243,9.91618 -2.49668,3.73557 -2.64162,5.25813 -2.22456,23.37089 0.51524,22.377 2.2706,31.45338 9.54909,49.375 10.80904,26.61478 10.10634,23.70345 9.35294,38.75 -0.79317,15.84041 -1.51773,19.02526 -4.54705,19.98674 -1.80872,0.57406 -2.3362,2.84221 -3.04108,13.07648 -0.8204,11.91169 -3.9305,22.70174 -8.80009,30.53061 -3.05188,4.90654 -6.6706,20.06372 -7.45692,31.23383 -1.08351,15.39159 -3.93283,28.16313 -9.03054,40.47792 -3.87997,9.373 -4.19496,10.96203 -2.93172,14.78968 1.53776,4.65947 0.66437,10.94538 -2.06615,14.87038 -0.94342,1.35609 -1.71529,3.66232 -1.71529,5.12495 0,1.46262 -1.61068,4.88279 -3.57928,7.60037 -3.29355,4.5466 -3.6274,6.03347 -4.18201,18.62504 -0.6518,14.79813 -2.10475,19.6653 -8.83453,29.59449 -4.4462,6.55997 -8.53894,8.8458 -14.75767,8.24226 -5.22323,-0.50691 -8.185624,-5.20204 -10.084713,-15.98334 -1.116951,-6.34103 -0.987702,-9.23997 0.726388,-16.29238 4.109635,-16.90857 4.440725,-21.52073 1.810097,-25.21509 -1.307411,-1.8361 -3.853098,-7.73293 -5.657083,-13.10406 -3.046277,-9.06992 -3.205534,-10.6133 -2.235223,-21.66179 1.466843,-16.70228 0.932226,-28.81069 -1.524562,-34.52946 -2.035764,-4.73875 -2.114897,-4.78452 -3.011458,-1.74163 -0.506416,1.71875 -0.976826,5.51563 -1.045356,8.4375 -0.115563,4.92699 -0.374045,5.31389 -3.5621,5.33164 -4.360159,0.0242 -5.995158,1.11806 -7.136943,4.7745 -0.503013,1.61084 -2.485462,3.46735 -4.424275,4.14322 -3.866171,1.34775 -5.181473,3.9355 -13.194667,25.9594 -4.602785,12.65055 -4.67815,13.12498 -2.647141,16.6638 1.14979,2.0034 2.090526,5.07707 2.090526,6.83038 0,1.75331 1.728289,8.22141 3.840641,14.37355 3.183749,9.27253 3.789415,12.82556 3.54113,20.77336 -0.932892,29.86275 0.748124,45.66166 5.677123,53.35599 0.887286,1.38507 2.01296,4.3382 2.501496,6.5625 0.488536,2.22428 1.081614,4.04416 1.317949,4.04416 0.236335,0 4.832266,-2.38325 10.213181,-5.29611 9.320052,-5.04524 10.289679,-5.29689 20.46991,-5.3125 9.7002,-0.0149 11.46171,0.37695 19.08727,4.24571 9.5402,4.84012 17.32875,12.58671 21.25785,21.14331 2.18425,4.75675 2.6791,8.17118 2.65866,18.34459 -0.0217,10.8529 -0.46114,13.4422 -3.33404,19.65043 -8.79753,19.01108 -31.24351,29.69107 -50.98117,24.25727 z"
       id="path3554"
       inkscape:connector-curvature="0" />
    <path
       style="fill:#0095fd"
       d="m 95,610.76603 c -8.748435,-1.93988 -13.857663,-4.6667 -20.956383,-11.18455 -6.339991,-5.82121 -12.791105,-18.02244 -12.792631,-24.1952 -0.0012,-5.00399 -2.160674,-6.55242 -3.22485,-2.3124 -0.893474,3.55988 -0.38742,3.46827 -18.537154,3.35582 -6.812308,-0.0423 -12.879167,-0.56989 -13.481906,-1.17263 -0.627852,-0.62784 1.82563,-5.74932 5.744731,-11.99173 7.864124,-12.52609 10.3357,-19.20894 11.51515,-31.13559 0.791083,-7.99945 0.65092,-8.69273 -2.401586,-11.87886 -4.508629,-4.70599 -18.534146,-34.4873 -19.183876,-40.73439 -1.377504,-13.24458 -3.477706,-25.50119 -4.992208,-29.13412 -0.915447,-2.19595 -1.308465,-4.92032 -0.873373,-6.05414 0.435091,-1.13384 0.06569,-5.90593 -0.820898,-10.60465 -1.190145,-6.30753 -1.274031,-10.25229 -0.320565,-15.07448 0.828143,-4.18836 0.870249,-7.92013 0.117375,-10.40273 -0.64572,-2.12925 -1.200539,-5.6486 -1.23293,-7.82078 -0.06234,-4.17985 -1.981565,-5.3734 -8.6969091,-5.40854 L 1.5989712,395 2.1279431,374.0625 c 0.5900009,-23.35311 4.1133594,-47.91385 10.3350809,-72.04409 5.4009,-20.94678 7.915325,-26.16564 15.173518,-31.49364 7.341058,-5.38883 10.569644,-13.48733 8.444827,-21.1828 -0.986124,-3.57143 -0.836633,-5.15431 0.709674,-7.51427 3.720846,-5.67873 3.323922,-7.15695 -11.335279,-42.21485 -1.670138,-3.99417 -4.734693,-14.11918 -6.810122,-22.5 C 16.570212,168.73204 13.405585,157.09375 11.613136,151.25 7.5382575,137.96506 6.848101,119.92835 10.23179,115.1496 14.213261,109.5266 28.496067,98.117958 38.58748,92.5 44.144714,89.40625 48.704694,86.214789 48.72077,85.407862 48.736845,84.600937 48.088951,81.076908 47.281004,77.576687 46.194256,72.868642 44.778428,70.424299 41.83992,68.18299 36.983139,64.478543 33.85814,55.21688 36.000891,50.877667 36.748505,49.3637 37.54414,44.162263 37.768967,39.318917 38.079281,32.633974 39.031116,28.87035 41.720592,23.693918 43.669159,19.943513 46.388466,14.589669 47.763497,11.796485 49.787504,7.6850005 51.250047,6.4382823 55.444277,5.2491475 64.984898,2.5442213 68.178382,2.5067795 75.08063,5.0189221 88.954229,10.068358 98.75,24.564982 98.75,40.046891 c 0,6.074246 0.379237,7.453109 2.04988,7.453109 3.11817,0 1.51885,13.076264 -2.06604,16.892202 -2.457379,2.615759 -2.541023,3.25189 -1.072206,8.154362 1.323326,4.416871 2.466376,5.703572 6.750196,7.598508 7.50687,3.320645 28.26493,6.451093 32.38648,4.884087 4.66588,-1.773964 16.7611,-2.598802 17.62444,-1.201904 0.39864,0.64501 2.80097,1.192677 5.33852,1.217039 2.53755,0.02436 5.99164,0.807371 7.67575,1.74002 1.68412,0.932648 3.8,1.412532 4.70199,1.066407 0.90199,-0.346124 4.58658,0.53372 8.18798,1.955209 3.60141,1.421488 11.32926,3.69195 17.17301,5.045471 15.97706,3.700584 20.44075,6.144909 37.85702,20.730579 16.69427,13.98102 27.48515,25.67239 30.58732,33.13977 1.00606,2.42179 3.7552,7.03545 6.10917,10.25258 4.18038,5.71322 4.28625,6.15931 4.55073,19.17227 0.25353,12.47537 0.0919,13.4679 -2.54174,15.60105 -1.54688,1.25295 -2.8125,2.87125 -2.8125,3.59624 0,1.94831 -4.30746,3.90611 -8.59405,3.90611 -2.06713,0 -4.10605,0.5625 -4.53095,1.25 -1.43998,2.32992 -4.43099,1.2655 -5.68075,-2.02163 -0.68413,-1.79938 -1.47513,-9.44751 -1.75779,-16.99581 -0.45839,-12.2412 -0.86094,-14.22496 -3.72541,-18.35839 -4.58431,-6.61517 -9.85378,-11.43097 -21.90296,-20.01727 -7.86307,-5.60325 -12.02109,-7.72568 -16.25,-8.29465 -3.1257,-0.42055 -7.4746,-1.31314 -9.66423,-1.98354 -2.67059,-0.81764 -5.62825,-0.77536 -8.98466,0.12841 -2.75194,0.74103 -7.26383,0.98588 -10.02641,0.54413 -4.07922,-0.6523 -6.06962,-0.18979 -10.59407,2.46171 -9.64595,5.6529 -10.54938,8.36868 -10.2418,30.78704 0.32364,23.58787 1.4286,28.79574 11.63424,54.83401 l 8.01885,20.45901 -0.76544,10.79099 c -1.30662,18.42039 -1.78605,20.74856 -4.54513,22.07188 -2.22376,1.06655 -2.61197,2.6943 -3.10208,13.00723 -0.48186,10.13915 -1.19022,13.19912 -5.06395,21.875 C 158.80002,326.73437 155,338.62236 155,344.55316 c 0,14.41992 -4.36829,35.20287 -10.26684,48.8464 -3.53285,8.17161 -3.76559,9.47858 -2.46242,13.82814 1.43755,4.79812 0.51407,11.23522 -2.07389,14.45595 -0.63699,0.79274 -1.54496,3.25079 -2.01771,5.46234 -0.47275,2.21153 -2.2252,6.0334 -3.89434,8.49301 -2.53736,3.739 -3.0348,5.98952 -3.0348,13.72999 0,12.77027 -2.02616,21.25431 -7.08251,29.6561 -5.28756,8.78598 -9.48248,12.22491 -14.91237,12.22491 -11.137056,0 -14.5223,-17.24212 -8.64734,-44.04368 l 2.11939,-9.66867 -2.911118,-4.70633 C 92.496456,420.99794 91.50696,414.3525 92.600963,384.375 c 0.593291,-16.25721 -3.123818,-30.66468 -5.563106,-21.5625 -0.414546,1.54687 -0.761401,5.20312 -0.770788,8.125 -0.0168,5.22734 -0.08669,5.3125 -4.359969,5.3125 -3.542759,0 -4.693489,0.67796 -6.245784,3.67977 -1.046586,2.02388 -3.451656,4.41876 -5.3446,5.32194 -2.925481,1.39587 -4.523539,4.52798 -10.65418,20.88173 -6.761982,18.03786 -7.08357,19.38196 -5.148809,21.51985 1.135009,1.25417 2.252598,4.40462 2.483529,7.00101 0.230931,2.59639 2.114041,9.50195 4.184688,15.3457 3.871456,10.92596 4.605285,19.15264 2.787537,31.25 -1.513409,10.07194 2.532768,37.36829 6.233294,42.05112 0.619832,0.78437 1.812151,3.70032 2.649596,6.47988 l 1.522629,5.05375 8.087344,-4.88581 c 14.290201,-8.63315 27.521396,-9.39813 41.397586,-2.39345 10.41241,5.25617 15.51396,10.2407 20.17689,19.7141 3.72773,7.57339 4.08217,9.29981 4.02004,19.58056 -0.0581,9.61167 -0.58904,12.42439 -3.5994,19.06774 -6.00235,13.24612 -17.9765,22.52626 -32.53919,25.21832 -8.59142,1.58821 -8.03099,1.60048 -16.91827,-0.37019 z"
       id="path3552"
       inkscape:connector-curvature="0" />
  </g>
</svg>
